<svg xmlns="http://www.w3.org/2000/svg" xmlns:xlink="http://www.w3.org/1999/xlink" width="108" height="108" viewBox="0 0 108 108">
  <defs>
    <filter id="Trazado_904820" x="0" y="0" width="108" height="108" filterUnits="userSpaceOnUse">
      <feOffset dy="3" input="SourceAlpha"/>
      <feGaussianBlur stdDeviation="3" result="blur"/>
      <feFlood flood-opacity="0.161"/>
      <feComposite operator="in" in2="blur"/>
      <feComposite in="SourceGraphic"/>
    </filter>
    <clipPath id="clip-path">
      <path id="path21" d="M0-682.665H56.816v56.816H0Z" transform="translate(0 682.665)"/>
    </clipPath>
  </defs>
  <g id="Grupo_1222306" data-name="Grupo 1222306" transform="translate(-200 -2856.47)">
    <g id="Grupo_1222265" data-name="Grupo 1222265" transform="translate(209 2862.47)">
      <g id="Grupo_1173585" data-name="Grupo 1173585" transform="translate(0 0)">
        <g id="Grupo_1173428" data-name="Grupo 1173428">
          <g id="Grupo_1171958" data-name="Grupo 1171958">
            <g id="Grupo_1167341" data-name="Grupo 1167341">
              <g id="Grupo_1166792" data-name="Grupo 1166792">
                <g transform="matrix(1, 0, 0, 1, -9, -6)" filter="url(#Trazado_904820)">
                  <g id="Trazado_904820-2" data-name="Trazado 904820" transform="translate(9 6)" fill="#f7f5f3">
                    <path d="M 44.99999618530273 88.50002288818359 C 39.12687301635742 88.50002288818359 33.43022155761719 87.35009765625 28.06829643249512 85.08218383789062 C 22.88852119445801 82.89133453369141 18.23629570007324 79.75460815429688 14.24084663391113 75.75916290283203 C 10.24540901184082 71.76371002197266 7.108683586120605 67.11148834228516 4.917821407318115 61.93171310424805 C 2.649921178817749 56.56978607177734 1.499996185302734 50.87313461303711 1.499996185302734 45.0000114440918 C 1.499996185302734 39.12688827514648 2.649921178817749 33.43023681640625 4.917821407318115 28.06829833984375 C 7.108683586120605 22.88852310180664 10.24540901184082 18.2363109588623 14.24084663391113 14.2408618927002 C 18.23629570007324 10.24541187286377 22.88852119445801 7.108686447143555 28.06829643249512 4.917823791503906 C 33.43022155761719 2.649924039840698 39.12687301635742 1.499998927116394 44.99999618530273 1.499998927116394 C 50.87311935424805 1.499998927116394 56.56977081298828 2.649924039840698 61.93169784545898 4.917823791503906 C 67.11147308349609 7.108686447143555 71.76369476318359 10.24541187286377 75.75914764404297 14.2408618927002 C 79.75458526611328 18.2363109588623 82.89131164550781 22.88852310180664 85.08216857910156 28.06829833984375 C 87.35007476806641 33.43023681640625 88.5 39.12688827514648 88.5 45.0000114440918 C 88.5 50.87313461303711 87.35007476806641 56.56978607177734 85.08216857910156 61.93171310424805 C 82.89131164550781 67.11148834228516 79.75458526611328 71.76371002197266 75.75914764404297 75.75916290283203 C 71.76369476318359 79.75460815429688 67.11147308349609 82.89133453369141 61.93169784545898 85.08218383789062 C 56.56977081298828 87.35009765625 50.87311935424805 88.50002288818359 44.99999618530273 88.50002288818359 Z" stroke="none"/>
                    <path d="M 44.99999618530273 3 C 39.32870864868164 3 33.82865142822266 4.110054016113281 28.65262603759766 6.299339294433594 C 23.65165710449219 8.414566040039062 19.15968322753906 11.44333648681641 15.301513671875 15.30152893066406 C 11.44333648681641 19.15969848632812 8.414566040039062 23.65165710449219 6.299339294433594 28.65264129638672 C 4.110054016113281 33.82866668701172 2.999992370605469 39.3287239074707 2.999992370605469 45.0000114440918 C 2.999992370605469 50.67129898071289 4.110054016113281 56.17135620117188 6.299339294433594 61.34738159179688 C 8.414566040039062 66.34836578369141 11.44333648681641 70.84032440185547 15.301513671875 74.69849395751953 C 19.15968322753906 78.55668640136719 23.65165710449219 81.58545684814453 28.65262603759766 83.70068359375 C 33.82865142822266 85.88996887207031 39.32870864868164 87.00002288818359 44.99999618530273 87.00002288818359 C 50.67128372192383 87.00002288818359 56.17134094238281 85.88996887207031 61.34736633300781 83.70068359375 C 66.34834289550781 81.58545684814453 70.84030914306641 78.55668640136719 74.69847869873047 74.69849395751953 C 78.55665588378906 70.84032440185547 81.58542633056641 66.34836578369141 83.70065307617188 61.34738159179688 C 85.88993835449219 56.17135620117188 87 50.67129898071289 87 45.0000114440918 C 87 39.3287239074707 85.88993835449219 33.82866668701172 83.70065307617188 28.65264129638672 C 81.58542633056641 23.65165710449219 78.55665588378906 19.15969848632812 74.69847869873047 15.30152893066406 C 70.84030914306641 11.44333648681641 66.34834289550781 8.414566040039062 61.34736633300781 6.299339294433594 C 56.17134094238281 4.110054016113281 50.67128372192383 3 44.99999618530273 3 M 44.99999618530273 0 C 69.85281372070312 0 90 20.14719390869141 90 45.0000114440918 C 90 69.85282897949219 69.85281372070312 90.00002288818359 44.99999618530273 90.00002288818359 C 20.14717864990234 90.00002288818359 -7.62939453125e-06 69.85282897949219 -7.62939453125e-06 45.0000114440918 C -7.62939453125e-06 20.14719390869141 20.14717864990234 0 44.99999618530273 0 Z" stroke="none" fill="#bca78f"/>
                  </g>
                </g>
              </g>
            </g>
          </g>
        </g>
      </g>
    </g>
    <g id="g15" transform="translate(225.592 3561.727)">
      <g id="g17" transform="translate(0 -682.665)">
        <g id="g19" transform="translate(0 0)" clip-path="url(#clip-path)">
          <g id="g25" transform="translate(4.161 11.765)">
            <path id="path27" d="M0-36.671v18.192H6.658V-36.671A3.329,3.329,0,0,0,3.329-40,3.329,3.329,0,0,0,0-36.671" transform="translate(0 40)" fill="#ff734c"/>
          </g>
          <g id="g29" transform="translate(19.761 45.999)">
            <path id="path31" d="M0,0,3.654,9.987H6.983V0Z" fill="#ff734c"/>
          </g>
          <g id="g33" transform="translate(0.832 8.436)">
            <path id="path35" d="M-248.751-523.781v-9.987l-15.924-16.042v-18.122a3.374,3.374,0,0,0-3.236-3.4A3.329,3.329,0,0,0-271.333-568v21.036a6.657,6.657,0,0,0,.635,2.839l6.433,13.651a7.665,7.665,0,0,1-.078,6.7Z" transform="translate(271.333 571.331)" fill="#ff9152"/>
          </g>
          <g id="g37" transform="translate(10.817 26.629)">
            <path id="path39" d="M-137.847-122.613l-10.108-10.108a3.326,3.326,0,0,0-2.406-1.023l12.6,24.078a5,5,0,0,0,3.329-4.708,11.652,11.652,0,0,0-3.413-8.239" transform="translate(150.361 133.744)" fill="#ff9152"/>
          </g>
          <g id="g41" transform="translate(7.49 26.629)">
            <path id="path43" d="M-145.516-122.613l-8.038-10.108a2.438,2.438,0,0,0-1.846-1.023c-.108,0-.217,0-.327.015a3.337,3.337,0,0,0-2.988,3.034,3.322,3.322,0,0,0,.964,2.633l6.828,6.828a4.994,4.994,0,0,1,1.463,3.531v3.329a4.994,4.994,0,0,0,4.994,4.994,4.984,4.984,0,0,0,1.665-.285v-4.708a13.325,13.325,0,0,0-2.714-8.239" transform="translate(158.726 133.744)" fill="#ffad4f"/>
          </g>
          <g id="g45" transform="translate(45.996 11.765)">
            <path id="path47" d="M0-36.671v18.192H6.658V-36.671A3.329,3.329,0,0,0,3.329-40,3.329,3.329,0,0,0,0-36.671" transform="translate(0 40)" fill="#ff734c"/>
          </g>
          <g id="g49" transform="translate(44.855 8.436)">
            <path id="path51" d="M-84.893-.014a3.247,3.247,0,0,0-1.562.449v21.07L-92.6,44.1h3.329a7.671,7.671,0,0,1,.731-3.264l6.433-13.65a6.661,6.661,0,0,0,.636-2.839V3.314A3.329,3.329,0,0,0-84.893-.014" transform="translate(92.6 0.015)" fill="#ff734c"/>
          </g>
          <g id="g53" transform="translate(30.072 8.887)">
            <path id="path55" d="M-248.751-31.708v21.036a10.982,10.982,0,0,1-.364,2.839L-252.8,5.817a12.707,12.707,0,0,0-.419,3.271,7.678,7.678,0,0,0,.809,3.425h-18.92V2.526l19.253-16.042V-31.639a3.429,3.429,0,0,1,1.673-2.947,3.323,3.323,0,0,1,.676.52,3.32,3.32,0,0,1,.98,2.358" transform="translate(271.333 34.587)" fill="#ff9152"/>
          </g>
          <g id="g57" transform="translate(30.072 26.628)">
            <path id="path59" d="M-37.593-122.628l10.108-10.108a3.329,3.329,0,0,1,2.733-1.008,3.337,3.337,0,0,1,2.988,3.034,3.323,3.323,0,0,1-.964,2.633l-6.828,6.828a4.994,4.994,0,0,0-1.463,3.531v3.329a4.994,4.994,0,0,1-4.994,4.994,4.994,4.994,0,0,1-4.994-4.994,11.652,11.652,0,0,1,3.413-8.239" transform="translate(41.005 133.76)" fill="#ffad4f"/>
          </g>
          <g id="g61" transform="translate(14.148 0.83)">
            <path id="path63" d="M-314.147-157.073a14.259,14.259,0,0,1-14.259,14.259,14.259,14.259,0,0,1-14.259-14.259,14.259,14.259,0,0,1,14.259-14.259,14.259,14.259,0,0,1,14.259,14.259" transform="translate(342.666 171.333)" fill="#fff9d9"/>
          </g>
          <g id="g65" transform="translate(27.697 9.976)">
            <path id="path67" d="M-107.543-6.644l-4.151-.6-5.612,4.3,1.671,7.832,3.712,1.952a1.665,1.665,0,0,0,2.415-1.755l-.892-5.2,3.78-3.684a1.664,1.664,0,0,0-.922-2.839" transform="translate(117.306 7.247)" fill="#ffc74f"/>
          </g>
          <g id="g69" transform="translate(17.929 4.159)">
            <path id="path71" d="M-169.416-64.074l-1.073-.156-2.336-4.733a1.665,1.665,0,0,0-2.985,0l-2.336,4.733-5.223.759a1.665,1.665,0,0,0-.922,2.839l3.779,3.684-.892,5.2a1.665,1.665,0,0,0,2.415,1.755l4.672-2.456.959.5a1.665,1.665,0,0,0,2.415-1.755l-.757-4.413,3.206-3.125a1.664,1.664,0,0,0-.922-2.839" transform="translate(184.796 69.89)" fill="#ffe345"/>
          </g>
          <g id="g73" transform="translate(7.49 11.765)">
            <path id="path75" d="M-36.671-163.716v-11.533A3.329,3.329,0,0,0-40-178.578" transform="translate(40 178.578)" fill="none" stroke="#000" stroke-linecap="round" stroke-linejoin="round" stroke-miterlimit="10" stroke-width="1.2"/>
          </g>
          <g id="g77" transform="translate(0.832 8.436)">
            <path id="path79" d="M-73.342-237.057v-18.122a3.374,3.374,0,0,0-3.236-3.4A3.329,3.329,0,0,0-80-255.248v21.036a6.657,6.657,0,0,0,.635,2.838l6.433,13.651a7.665,7.665,0,0,1-.078,6.7h18.92v-9.987a11.652,11.652,0,0,0-3.413-8.239L-67.61-239.362a3.326,3.326,0,0,0-2.4-1.024,3.329,3.329,0,0,0-3.329,3.329,3.319,3.319,0,0,0,.975,2.354l6.828,6.828a4.993,4.993,0,0,1,1.463,3.531" transform="translate(80 258.577)" fill="none" stroke="#000" stroke-linecap="round" stroke-linejoin="round" stroke-miterlimit="10" stroke-width="1.2"/>
          </g>
          <g id="g81" transform="translate(45.996 11.765)">
            <path id="path83" d="M0-163.716v-11.533a3.329,3.329,0,0,1,3.329-3.329" transform="translate(0 178.578)" fill="none" stroke="#000" stroke-linecap="round" stroke-linejoin="round" stroke-miterlimit="10" stroke-width="1.2"/>
          </g>
          <g id="g85" transform="translate(30.072 8.436)">
            <path id="path87" d="M-212.08-237.057v-18.122a3.374,3.374,0,0,1,3.236-3.4,3.329,3.329,0,0,1,3.423,3.328v21.036a6.657,6.657,0,0,1-.635,2.838l-6.433,13.651a7.665,7.665,0,0,0,.078,6.7h-18.92v-9.987a11.652,11.652,0,0,1,3.413-8.239l10.108-10.108a3.326,3.326,0,0,1,2.4-1.024,3.329,3.329,0,0,1,3.329,3.329,3.319,3.319,0,0,1-.975,2.354l-6.828,6.828a4.993,4.993,0,0,0-1.463,3.531" transform="translate(231.333 258.577)" fill="none" stroke="#000" stroke-linecap="round" stroke-linejoin="round" stroke-miterlimit="10" stroke-width="1.2"/>
          </g>
          <g id="g89" transform="translate(17.929 4.159)">
            <path id="path91" d="M-215.135-70.717l-5.223-.759-2.336-4.733a1.665,1.665,0,0,0-2.985,0l-2.336,4.733-5.223.759a1.665,1.665,0,0,0-.922,2.839l3.779,3.684-.892,5.2a1.665,1.665,0,0,0,2.415,1.755l4.672-2.456,4.672,2.456a1.665,1.665,0,0,0,2.415-1.755l-.892-5.2,3.78-3.684A1.665,1.665,0,0,0-215.135-70.717Z" transform="translate(234.666 77.137)" fill="none" stroke="#000" stroke-linecap="round" stroke-linejoin="round" stroke-miterlimit="10" stroke-width="1.2"/>
          </g>
          <g id="g93" transform="translate(14.148 0.83)">
            <path id="path95" d="M-14.348-222.726a14.261,14.261,0,0,0,12.957,8.3,14.259,14.259,0,0,0,14.259-14.259A14.259,14.259,0,0,0-1.391-242.946a14.259,14.259,0,0,0-14.259,14.259,14.322,14.322,0,0,0,.274,2.794" transform="translate(15.651 242.946)" fill="none" stroke="#000" stroke-linecap="round" stroke-linejoin="round" stroke-miterlimit="10" stroke-width="1.2"/>
          </g>
        </g>
      </g>
    </g>
  </g>
</svg>
