<svg xmlns="http://www.w3.org/2000/svg" xmlns:xlink="http://www.w3.org/1999/xlink" width="113" height="113" viewBox="0 0 113 113">
  <defs>
    <filter id="Trazado_982547" x="0" y="0" width="113" height="113" filterUnits="userSpaceOnUse">
      <feOffset dy="3" input="SourceAlpha"/>
      <feGaussianBlur stdDeviation="3" result="blur"/>
      <feFlood flood-opacity="0.161"/>
      <feComposite operator="in" in2="blur"/>
      <feComposite in="SourceGraphic"/>
    </filter>
    <clipPath id="clip-path">
      <path id="path10707" d="M0-682.665H64.839v64.839H0Z" transform="translate(0 682.665)"/>
    </clipPath>
  </defs>
  <g id="Grupo_1222308" data-name="Grupo 1222308" transform="translate(-1111 -3233.131)">
    <g id="Grupo_1208022" data-name="Grupo 1208022" transform="translate(0 1986.241)">
      <g id="Grupo_1202141" data-name="Grupo 1202141" transform="translate(1120 1252.89)">
        <g id="Grupo_1176928" data-name="Grupo 1176928" transform="translate(0 0)">
          <g id="Grupo_1172322" data-name="Grupo 1172322">
            <g id="Grupo_1164700" data-name="Grupo 1164700">
              <g id="Grupo_1160931" data-name="Grupo 1160931">
                <g id="Grupo_1160749" data-name="Grupo 1160749">
                  <g id="Grupo_1158891" data-name="Grupo 1158891">
                    <g id="Grupo_1157406" data-name="Grupo 1157406">
                      <g id="Grupo_1155793" data-name="Grupo 1155793">
                        <g id="Grupo_1154704" data-name="Grupo 1154704">
                          <g id="Grupo_1150790" data-name="Grupo 1150790">
                            <g id="Grupo_1154214" data-name="Grupo 1154214">
                              <g id="Grupo_1152583" data-name="Grupo 1152583">
                                <g id="Grupo_1146973" data-name="Grupo 1146973">
                                  <g id="Grupo_1146954" data-name="Grupo 1146954">
                                    <g transform="matrix(1, 0, 0, 1, -9, -6)" filter="url(#Trazado_982547)">
                                      <g id="Trazado_982547-2" data-name="Trazado 982547" transform="translate(9 6)" fill="#f2f4f0">
                                        <path d="M 47.50001525878906 93.49988555908203 C 41.28938674926758 93.49988555908203 35.26533508300781 92.28385925292969 29.59520149230957 89.88558959960938 C 24.11772155761719 87.56883239746094 19.19814872741699 84.25184631347656 14.97309494018555 80.02680206298828 C 10.74805545806885 75.80178070068359 7.431081771850586 70.88219451904297 5.11430835723877 65.40472412109375 C 2.716042041778564 59.73459243774414 1.500015258789062 53.71055221557617 1.500015258789062 47.49993896484375 C 1.500015258789062 41.28932571411133 2.716042041778564 35.26528549194336 5.11430835723877 29.59515190124512 C 7.431081771850586 24.11768531799316 10.74805545806885 19.19811248779297 14.97309494018555 14.97307205200195 C 19.19814872741699 10.74803256988525 24.11772155761719 7.431058883666992 29.59520149230957 5.114285469055176 C 35.26533508300781 2.716032266616821 41.28938674926758 1.500005602836609 47.50001525878906 1.500005602836609 C 53.71064376831055 1.500005602836609 59.73469543457031 2.716032266616821 65.40483856201172 5.114285469055176 C 70.88230895996094 7.431058883666992 75.80189514160156 10.74803256988525 80.02693176269531 14.97307205200195 C 84.25199127197266 19.19811248779297 87.56896209716797 24.11768531799316 89.88573455810547 29.59515190124512 C 92.28400421142578 35.26528549194336 93.50003051757812 41.28932571411133 93.50003051757812 47.49993896484375 C 93.50003051757812 53.71055221557617 92.28400421142578 59.73459243774414 89.88573455810547 65.40472412109375 C 87.56896209716797 70.88219451904297 84.25199127197266 75.80176544189453 80.02693176269531 80.02680206298828 C 75.80189514160156 84.25184631347656 70.88230895996094 87.56881713867188 65.40483856201172 89.88558959960938 C 59.73469543457031 92.28385925292969 53.71064376831055 93.49988555908203 47.50001525878906 93.49988555908203 Z" stroke="none"/>
                                        <path d="M 47.50001525878906 3 C 41.49123001098633 3 35.66378402709961 4.176155090332031 30.17951965332031 6.495803833007812 C 24.88084411621094 8.7369384765625 20.12152099609375 11.94596862792969 16.03375244140625 16.03373718261719 C 11.94598388671875 20.12149047851562 8.736953735351562 24.88081359863281 6.495796203613281 30.17947387695312 C 4.176155090332031 35.66372299194336 3 41.49116897583008 3 47.49993896484375 C 3 53.50870895385742 4.176155090332031 59.33615493774414 6.495796203613281 64.82040405273438 C 8.736953735351562 70.11906433105469 11.94598388671875 74.87838745117188 16.03375244140625 78.96614074707031 C 20.12152099609375 83.05390930175781 24.88084411621094 86.262939453125 30.17951965332031 88.50407409667969 C 35.66378402709961 90.82372283935547 41.49123001098633 91.9998779296875 47.50001525878906 91.9998779296875 C 53.5088005065918 91.9998779296875 59.33624649047852 90.82372283935547 64.82051086425781 88.50407409667969 C 70.11917114257812 86.262939453125 74.87849426269531 83.05390930175781 78.96626281738281 78.96614074707031 C 83.05404663085938 74.87838745117188 86.2630615234375 70.11906433105469 88.50421142578125 64.82040405273438 C 90.82386016845703 59.33615493774414 92.00001525878906 53.50870895385742 92.00001525878906 47.49993896484375 C 92.00001525878906 41.49116897583008 90.82386016845703 35.66372299194336 88.50421142578125 30.17947387695312 C 86.2630615234375 24.88081359863281 83.05404663085938 20.12149047851562 78.96626281738281 16.03373718261719 C 74.87849426269531 11.94596862792969 70.11917114257812 8.7369384765625 64.82051086425781 6.495803833007812 C 59.33624649047852 4.176155090332031 53.5088005065918 3 47.50001525878906 3 M 47.50001525878906 0 C 73.73353576660156 0 95.00001525878906 21.26644897460938 95.00001525878906 47.49993896484375 C 95.00001525878906 73.73342895507812 73.73353576660156 94.9998779296875 47.50001525878906 94.9998779296875 C 21.26649475097656 94.9998779296875 0 73.73342895507812 0 47.49993896484375 C 0 21.26644897460938 21.26649475097656 0 47.50001525878906 0 Z" stroke="none" fill="#899e78"/>
                                      </g>
                                    </g>
                                  </g>
                                </g>
                              </g>
                            </g>
                          </g>
                        </g>
                      </g>
                    </g>
                  </g>
                </g>
              </g>
            </g>
          </g>
        </g>
      </g>
    </g>
    <g id="g10701" transform="translate(1135.581 3936.876)">
      <g id="g10703" transform="translate(0 -682.665)">
        <g id="g10705" transform="translate(0 0)" clip-path="url(#clip-path)">
          <g id="g10711" transform="translate(0.95 39.965)">
            <path id="path10713" d="M-7.913-191.028a.83.83,0,0,1-.83-.83v-12.434a6.74,6.74,0,0,1,6.68-6.783H15.742a6.74,6.74,0,0,1,6.679,6.783v12.434a.83.83,0,0,1-.83.83Z" transform="translate(8.744 211.075)" fill="#b3dafe"/>
          </g>
          <g id="g10715" transform="translate(0.95 39.965)">
            <path id="path10717" d="M-42.234-183.115V-195.55a6.74,6.74,0,0,1,6.679-6.783h-4.432a6.74,6.74,0,0,0-6.679,6.783v12.434a.83.83,0,0,0,.83.83H-41.4a.83.83,0,0,1-.83-.83" transform="translate(46.667 202.333)" fill="#8ac9fe"/>
          </g>
          <g id="g10719" transform="translate(0.95 39.965)">
            <path id="path10721" d="M-7.913-191.028a.83.83,0,0,1-.83-.83v-12.434a6.74,6.74,0,0,1,6.68-6.783H15.742a6.74,6.74,0,0,1,6.679,6.783v12.434a.83.83,0,0,1-.83.83Z" transform="translate(8.744 211.075)" fill="none" stroke="#000" stroke-linecap="round" stroke-linejoin="round" stroke-miterlimit="10" stroke-width="1"/>
          </g>
          <g id="g10723" transform="translate(3.01 4.826)">
            <path id="path10725" d="M-128.852-262.861a2.733,2.733,0,0,1-2.163-1,2.632,2.632,0,0,1-.509-1.084,2.617,2.617,0,0,1-2.053,1.007,2.911,2.911,0,0,1-2.589-1.6,2.578,2.578,0,0,1-.177-1.732,2.629,2.629,0,0,1-1.166.278,2.864,2.864,0,0,1-2.693-2.232,2.617,2.617,0,0,1,.525-2.227h-.025a2.718,2.718,0,0,1-2.673-2.8,2.625,2.625,0,0,1,.764-1.889,2.665,2.665,0,0,1,.751-.518,2.684,2.684,0,0,1-.751-.518,2.625,2.625,0,0,1-.764-1.889,2.718,2.718,0,0,1,2.674-2.8h.025a2.617,2.617,0,0,1-.526-2.227,2.864,2.864,0,0,1,2.693-2.232,2.624,2.624,0,0,1,1.166.278,2.579,2.579,0,0,1,.177-1.733,2.912,2.912,0,0,1,2.589-1.6,2.618,2.618,0,0,1,2.053,1.007,2.628,2.628,0,0,1,.509-1.084,2.734,2.734,0,0,1,2.163-1h0a2.733,2.733,0,0,1,2.163,1,2.627,2.627,0,0,1,.509,1.084,2.618,2.618,0,0,1,2.053-1.007,2.912,2.912,0,0,1,2.589,1.6,2.578,2.578,0,0,1,.177,1.733,2.625,2.625,0,0,1,1.166-.278,2.864,2.864,0,0,1,2.693,2.232,2.617,2.617,0,0,1-.525,2.227H-118a2.718,2.718,0,0,1,2.674,2.8,2.625,2.625,0,0,1-.764,1.889,2.668,2.668,0,0,1-.751.518,2.572,2.572,0,0,1,1.161,1.05,2.889,2.889,0,0,1-.042,2.842,2.573,2.573,0,0,1-2.277,1.32h-.025a2.617,2.617,0,0,1,.526,2.227,2.864,2.864,0,0,1-2.693,2.232,2.629,2.629,0,0,1-1.166-.278,2.579,2.579,0,0,1-.177,1.733,2.912,2.912,0,0,1-2.589,1.6,2.617,2.617,0,0,1-2.053-1.007,2.63,2.63,0,0,1-.509,1.084,2.733,2.733,0,0,1-2.163,1" transform="translate(142.374 290.447)" fill="#fe9901"/>
          </g>
          <g id="g10727" transform="translate(3.01 4.826)">
            <path id="path10729" d="M-128.852-262.861a2.733,2.733,0,0,1-2.163-1,2.632,2.632,0,0,1-.509-1.084,2.617,2.617,0,0,1-2.053,1.007,2.911,2.911,0,0,1-2.589-1.6,2.578,2.578,0,0,1-.177-1.732,2.629,2.629,0,0,1-1.166.278,2.864,2.864,0,0,1-2.693-2.232,2.617,2.617,0,0,1,.525-2.227h-.025a2.718,2.718,0,0,1-2.673-2.8,2.625,2.625,0,0,1,.764-1.889,2.665,2.665,0,0,1,.751-.518,2.684,2.684,0,0,1-.751-.518,2.625,2.625,0,0,1-.764-1.889,2.718,2.718,0,0,1,2.674-2.8h.025a2.617,2.617,0,0,1-.526-2.227,2.864,2.864,0,0,1,2.693-2.232,2.624,2.624,0,0,1,1.166.278,2.579,2.579,0,0,1,.177-1.733,2.912,2.912,0,0,1,2.589-1.6,2.618,2.618,0,0,1,2.053,1.007,2.628,2.628,0,0,1,.509-1.084,2.734,2.734,0,0,1,2.163-1h0a2.733,2.733,0,0,1,2.163,1,2.627,2.627,0,0,1,.509,1.084,2.618,2.618,0,0,1,2.053-1.007,2.912,2.912,0,0,1,2.589,1.6,2.578,2.578,0,0,1,.177,1.733,2.625,2.625,0,0,1,1.166-.278,2.864,2.864,0,0,1,2.693,2.232,2.617,2.617,0,0,1-.525,2.227H-118a2.718,2.718,0,0,1,2.674,2.8,2.625,2.625,0,0,1-.764,1.889,2.668,2.668,0,0,1-.751.518,2.572,2.572,0,0,1,1.161,1.05,2.889,2.889,0,0,1-.042,2.842,2.573,2.573,0,0,1-2.277,1.32h-.025a2.617,2.617,0,0,1,.526,2.227,2.864,2.864,0,0,1-2.693,2.232,2.629,2.629,0,0,1-1.166-.278,2.579,2.579,0,0,1-.177,1.733,2.912,2.912,0,0,1-2.589,1.6,2.617,2.617,0,0,1-2.053-1.007,2.63,2.63,0,0,1-.509,1.084A2.733,2.733,0,0,1-128.852-262.861Z" transform="translate(142.374 290.447)" fill="none" stroke="#000" stroke-linecap="round" stroke-linejoin="round" stroke-miterlimit="10" stroke-width="1"/>
          </g>
          <g id="g10731" transform="translate(13.621 22.203)">
            <path id="path10733" d="M-22.7,0a2.408,2.408,0,0,0-2.382,2.419v17.23A2.408,2.408,0,0,0-22.7,22.069h1.059a2.408,2.408,0,0,0,2.382-2.419V2.419A2.408,2.408,0,0,0-21.64,0Z" transform="translate(25.081)" fill="#fed2a4"/>
          </g>
          <g id="g10735" transform="translate(13.621 22.203)">
            <path id="path10737" d="M-24.134-187.231v-17.23a2.424,2.424,0,0,1,1.645-2.3,2.329,2.329,0,0,0-.737-.121h-1.059a2.408,2.408,0,0,0-2.382,2.419v17.23a2.408,2.408,0,0,0,2.382,2.419h1.059a2.322,2.322,0,0,0,.737-.121,2.424,2.424,0,0,1-1.645-2.3" transform="translate(26.667 206.881)" fill="#ffbd86"/>
          </g>
          <g id="g10739" transform="translate(13.621 22.203)">
            <path id="path10741" d="M-22.7,0a2.408,2.408,0,0,0-2.382,2.419v17.23A2.408,2.408,0,0,0-22.7,22.069h1.059a2.408,2.408,0,0,0,2.382-2.419V2.419A2.408,2.408,0,0,0-21.64,0Z" transform="translate(25.081)" fill="none" stroke="#000" stroke-linecap="round" stroke-linejoin="round" stroke-miterlimit="10" stroke-width="1"/>
          </g>
          <g id="g10743" transform="translate(2.855 22.996)">
            <path id="path10745" d="M-237.946,0h-22.59a2.408,2.408,0,0,0-2.382,2.419V4.762a2.408,2.408,0,0,0,2.382,2.419h22.59a2.408,2.408,0,0,0,2.382-2.419V2.419A2.408,2.408,0,0,0-237.946,0" transform="translate(262.918)" fill="#fed2a4"/>
          </g>
          <g id="g10747" transform="translate(2.855 22.996)">
            <path id="path10749" d="M-237.946,0h-22.59a2.408,2.408,0,0,0-2.382,2.419V4.762a2.408,2.408,0,0,0,2.382,2.419h22.59a2.408,2.408,0,0,0,2.382-2.419V2.419A2.408,2.408,0,0,0-237.946,0Z" transform="translate(262.918)" fill="none" stroke="#000" stroke-linecap="round" stroke-linejoin="round" stroke-miterlimit="10" stroke-width="1"/>
          </g>
          <g id="g10751" transform="translate(7.314 17.897)">
            <path id="path10753" d="M-72.675-186.425a7.7,7.7,0,0,1-7.627-7.745v-9.07a1.077,1.077,0,0,1,1.068-1.085h6.118a6.226,6.226,0,0,0,3.95-1.421,1.057,1.057,0,0,1,.673-.243,1.058,1.058,0,0,1,.674.243,6.226,6.226,0,0,0,3.95,1.421h.936a1.077,1.077,0,0,1,1.068,1.085v9.07a7.7,7.7,0,0,1-7.627,7.745Z" transform="translate(80.302 205.99)" fill="#fed2a4"/>
          </g>
          <g id="g10755" transform="translate(7.314 19.561)">
            <path id="path10757" d="M-30.167-96.766v-9.07a1.077,1.077,0,0,1,1.068-1.085h-3.166a1.077,1.077,0,0,0-1.068,1.085v9.07a7.7,7.7,0,0,0,7.627,7.745h3.166a7.7,7.7,0,0,1-7.627-7.745" transform="translate(33.333 106.921)" fill="#ffbd86"/>
          </g>
          <g id="g10759" transform="translate(7.314 17.897)">
            <path id="path10761" d="M-72.675-186.425a7.7,7.7,0,0,1-7.627-7.745v-9.07a1.077,1.077,0,0,1,1.068-1.085h6.118a6.226,6.226,0,0,0,3.95-1.421,1.057,1.057,0,0,1,.673-.243,1.058,1.058,0,0,1,.674.243,6.226,6.226,0,0,0,3.95,1.421h.936a1.077,1.077,0,0,1,1.068,1.085v9.07a7.7,7.7,0,0,1-7.627,7.745Z" transform="translate(80.302 205.99)" fill="none" stroke="#000" stroke-linecap="round" stroke-linejoin="round" stroke-miterlimit="10" stroke-width="1"/>
          </g>
          <g id="g10763" transform="translate(12.599 23.888)">
            <path id="path10765" d="M0,0V1.321" fill="none" stroke="#000" stroke-linecap="round" stroke-linejoin="round" stroke-miterlimit="10" stroke-width="1"/>
          </g>
          <g id="g10767" transform="translate(20.466 23.888)">
            <path id="path10769" d="M0,0V1.321" fill="none" stroke="#000" stroke-linecap="round" stroke-linejoin="round" stroke-miterlimit="10" stroke-width="1"/>
          </g>
          <g id="g10771" transform="translate(13.521 30.797)">
            <path id="path10773" d="M-57.387,0A3.035,3.035,0,0,1-60.4,3.058,3.035,3.035,0,0,1-63.409,0" transform="translate(63.409)" fill="none" stroke="#000" stroke-linecap="round" stroke-linejoin="round" stroke-miterlimit="10" stroke-width="1"/>
          </g>
          <g id="g10775" transform="translate(16.03 25.883)">
            <path id="path10777" d="M0,0V1.731a.381.381,0,0,0,.38.38H1.3" fill="none" stroke="#000" stroke-linecap="round" stroke-linejoin="round" stroke-miterlimit="10" stroke-width="1"/>
          </g>
          <g id="g10779" transform="translate(32.724 39.965)">
            <path id="path10781" d="M-7.913-191.028a.83.83,0,0,1-.83-.83v-12.434a6.74,6.74,0,0,1,6.68-6.783H15.742a6.74,6.74,0,0,1,6.679,6.783v12.434a.83.83,0,0,1-.83.83Z" transform="translate(8.744 211.075)" fill="#d4f2f6"/>
          </g>
          <g id="g10783" transform="translate(32.724 39.965)">
            <path id="path10785" d="M-45.251-183.115V-195.55a6.74,6.74,0,0,1,6.68-6.783H-43.32A6.74,6.74,0,0,0-50-195.55v12.434a.83.83,0,0,0,.83.83h4.749a.83.83,0,0,1-.83-.83" transform="translate(50 202.333)" fill="#a6e7f0"/>
          </g>
          <g id="g10787" transform="translate(32.724 39.965)">
            <path id="path10789" d="M-7.913-191.028a.83.83,0,0,1-.83-.83v-12.434a6.74,6.74,0,0,1,6.68-6.783H15.742a6.74,6.74,0,0,1,6.679,6.783v12.434a.83.83,0,0,1-.83.83Z" transform="translate(8.744 211.075)" fill="none" stroke="#000" stroke-linecap="round" stroke-linejoin="round" stroke-miterlimit="10" stroke-width="1"/>
          </g>
          <path id="path10791" d="M281.443-107.451h-9.283V-113.4h9.283Z" transform="translate(-246.31 167.464)" fill="#b3dafe" stroke="#000" stroke-linecap="round" stroke-linejoin="round" stroke-miterlimit="10" stroke-width="1"/>
          <g id="g10793" transform="translate(35.543 7.683)">
            <path id="path10795" d="M-243.251-164.489v-10.688a6.544,6.544,0,0,0-6.473-6.574h-12.582a6.544,6.544,0,0,0-6.473,6.574v10.688Z" transform="translate(268.779 181.752)" fill="#5a5a5a"/>
          </g>
          <g id="g10797" transform="translate(35.542 7.683)">
            <path id="path10799" d="M-103.917,0h-4.432a6.544,6.544,0,0,0-6.473,6.574V17.263h4.432V6.574A6.544,6.544,0,0,1-103.917,0" transform="translate(114.822)" fill="#444"/>
          </g>
          <g id="g10801" transform="translate(35.543 7.683)">
            <path id="path10803" d="M-243.251-164.489v-10.688a6.544,6.544,0,0,0-6.473-6.574h-12.582a6.544,6.544,0,0,0-6.473,6.574v10.688Z" transform="translate(268.779 181.752)" fill="none" stroke="#000" stroke-linecap="round" stroke-linejoin="round" stroke-miterlimit="10" stroke-width="1"/>
          </g>
          <g id="g10805" transform="translate(45.395 22.334)">
            <path id="path10807" d="M-22.7,0a2.408,2.408,0,0,0-2.382,2.419v17.23A2.408,2.408,0,0,0-22.7,22.069h1.059a2.408,2.408,0,0,0,2.382-2.419V2.419A2.408,2.408,0,0,0-21.64,0Z" transform="translate(25.081)" fill="#d78878"/>
          </g>
          <g id="g10809" transform="translate(45.395 22.334)">
            <path id="path10811" d="M-24.134-187.231v-17.23a2.424,2.424,0,0,1,1.645-2.3,2.329,2.329,0,0,0-.737-.121h-1.059a2.408,2.408,0,0,0-2.382,2.419v17.23a2.408,2.408,0,0,0,2.382,2.419h1.059a2.322,2.322,0,0,0,.737-.121,2.424,2.424,0,0,1-1.645-2.3" transform="translate(26.667 206.881)" fill="#ca6e59"/>
          </g>
          <g id="g10813" transform="translate(45.395 22.334)">
            <path id="path10815" d="M-22.7,0a2.408,2.408,0,0,0-2.382,2.419v17.23A2.408,2.408,0,0,0-22.7,22.069h1.059a2.408,2.408,0,0,0,2.382-2.419V2.419A2.408,2.408,0,0,0-21.64,0Z" transform="translate(25.081)" fill="none" stroke="#000" stroke-linecap="round" stroke-linejoin="round" stroke-miterlimit="10" stroke-width="1"/>
          </g>
          <g id="g10817" transform="translate(34.63 23.128)">
            <path id="path10819" d="M-237.946,0h-22.59a2.408,2.408,0,0,0-2.382,2.419V4.762a2.408,2.408,0,0,0,2.382,2.419h22.59a2.408,2.408,0,0,0,2.382-2.419V2.419A2.408,2.408,0,0,0-237.946,0" transform="translate(262.918)" fill="#d78878"/>
          </g>
          <g id="g10821" transform="translate(34.63 23.128)">
            <path id="path10823" d="M-237.946,0h-22.59a2.408,2.408,0,0,0-2.382,2.419V4.762a2.408,2.408,0,0,0,2.382,2.419h22.59a2.408,2.408,0,0,0,2.382-2.419V2.419A2.408,2.408,0,0,0-237.946,0Z" transform="translate(262.918)" fill="none" stroke="#000" stroke-linecap="round" stroke-linejoin="round" stroke-miterlimit="10" stroke-width="1"/>
          </g>
          <g id="g10825" transform="translate(39.088 18.029)">
            <path id="path10827" d="M-72.675-186.427a7.7,7.7,0,0,1-7.627-7.745v-9.07a1.077,1.077,0,0,1,1.069-1.085h6.118a6.226,6.226,0,0,0,3.95-1.422,1.058,1.058,0,0,1,.673-.243,1.057,1.057,0,0,1,.674.243,6.227,6.227,0,0,0,3.95,1.422h.936a1.077,1.077,0,0,1,1.068,1.085v9.07a7.7,7.7,0,0,1-7.627,7.745Z" transform="translate(80.302 205.992)" fill="#d78878"/>
          </g>
          <g id="g10829" transform="translate(39.088 19.693)">
            <path id="path10831" d="M-30.167-96.767v-9.07a1.077,1.077,0,0,1,1.069-1.085h-3.166a1.077,1.077,0,0,0-1.069,1.085v9.07a7.7,7.7,0,0,0,7.627,7.745h3.166a7.7,7.7,0,0,1-7.627-7.745" transform="translate(33.333 106.922)" fill="#ca6e59"/>
          </g>
          <g id="g10833" transform="translate(39.088 18.029)">
            <path id="path10835" d="M-72.675-186.427a7.7,7.7,0,0,1-7.627-7.745v-9.07a1.077,1.077,0,0,1,1.069-1.085h6.118a6.226,6.226,0,0,0,3.95-1.422,1.058,1.058,0,0,1,.673-.243,1.057,1.057,0,0,1,.674.243,6.227,6.227,0,0,0,3.95,1.422h.936a1.077,1.077,0,0,1,1.068,1.085v9.07a7.7,7.7,0,0,1-7.627,7.745Z" transform="translate(80.302 205.992)" fill="none" stroke="#000" stroke-linecap="round" stroke-linejoin="round" stroke-miterlimit="10" stroke-width="1"/>
          </g>
          <g id="g10837" transform="translate(44.373 24.02)">
            <path id="path10839" d="M0,0V1.321" fill="none" stroke="#000" stroke-linecap="round" stroke-linejoin="round" stroke-miterlimit="10" stroke-width="1"/>
          </g>
          <g id="g10841" transform="translate(52.24 24.02)">
            <path id="path10843" d="M0,0V1.321" fill="none" stroke="#000" stroke-linecap="round" stroke-linejoin="round" stroke-miterlimit="10" stroke-width="1"/>
          </g>
          <g id="g10845" transform="translate(45.295 30.929)">
            <path id="path10847" d="M-57.388,0A3.035,3.035,0,0,1-60.4,3.058,3.035,3.035,0,0,1-63.411,0" transform="translate(63.411)" fill="none" stroke="#000" stroke-linecap="round" stroke-linejoin="round" stroke-miterlimit="10" stroke-width="1"/>
          </g>
          <g id="g10849" transform="translate(47.805 26.015)">
            <path id="path10851" d="M0,0V1.731a.381.381,0,0,0,.38.38H1.3" fill="none" stroke="#000" stroke-linecap="round" stroke-linejoin="round" stroke-miterlimit="10" stroke-width="1"/>
          </g>
          <g id="g10853" transform="translate(24.084 43.691)">
            <path id="path10855" d="M-107.957-78.1a6.666,6.666,0,0,0-1.809-6.33l-1.887-1.866-7.633,11.282a6.838,6.838,0,0,0,5.952,1.879l3.2,3.162h10.351Z" transform="translate(119.286 86.293)" fill="#d78878"/>
          </g>
          <g id="g10857" transform="translate(24.084 43.691)">
            <path id="path10859" d="M-107.957-78.1a6.666,6.666,0,0,0-1.809-6.33l-1.887-1.866-7.633,11.282a6.838,6.838,0,0,0,5.952,1.879l3.2,3.162h10.351Z" transform="translate(119.286 86.293)" fill="none" stroke="#000" stroke-linecap="round" stroke-linejoin="round" stroke-miterlimit="10" stroke-width="1"/>
          </g>
          <g id="g10861" transform="translate(16.189 40.317)">
            <path id="path10863" d="M-221.025-80.967a1.46,1.46,0,0,0-2.043,0l.409-.4a1.422,1.422,0,0,0,0-2.02l-.273-.269a1.46,1.46,0,0,0-2.043,0l.409-.4a1.421,1.421,0,0,0,0-2.02l-.272-.269a1.461,1.461,0,0,0-2.043,0l.409-.4a1.421,1.421,0,0,0,0-2.02l-.272-.269a1.46,1.46,0,0,0-2.043,0l-5.494,5.433a6.486,6.486,0,0,0-1.831,5.827l-8.109,8.019h10.4l2.91-2.878a6.653,6.653,0,0,0,5.893-1.81l4.268-4.221a1.421,1.421,0,0,0,0-2.02Z" transform="translate(244.221 89.464)" fill="#fed2a4"/>
          </g>
          <g id="g10865" transform="translate(16.189 40.317)">
            <path id="path10867" d="M-221.025-80.967a1.46,1.46,0,0,0-2.043,0l.409-.4a1.422,1.422,0,0,0,0-2.02l-.273-.269a1.46,1.46,0,0,0-2.043,0l.409-.4a1.421,1.421,0,0,0,0-2.02l-.272-.269a1.461,1.461,0,0,0-2.043,0l.409-.4a1.421,1.421,0,0,0,0-2.02l-.272-.269a1.46,1.46,0,0,0-2.043,0l-5.494,5.433a6.486,6.486,0,0,0-1.831,5.827l-8.109,8.019h10.4l2.91-2.878a6.653,6.653,0,0,0,5.893-1.81l4.268-4.221a1.421,1.421,0,0,0,0-2.02Z" transform="translate(244.221 89.464)" fill="none" stroke="#000" stroke-linecap="round" stroke-linejoin="round" stroke-miterlimit="10" stroke-width="1"/>
          </g>
          <g id="g10869" transform="translate(20.446 48.013)">
            <path id="path10871" d="M-44.909-23.521a1.236,1.236,0,0,1,0,1.757l-.441.436a1.27,1.27,0,0,1-1.777,0l-2.129-2.106a1.236,1.236,0,0,1,0-1.757l.441-.436a1.27,1.27,0,0,1,1.776,0Z" transform="translate(49.622 25.99)" fill="#d78878"/>
          </g>
          <g id="g10873" transform="translate(20.446 48.013)">
            <path id="path10875" d="M-44.909-23.521a1.236,1.236,0,0,1,0,1.757l-.441.436a1.27,1.27,0,0,1-1.777,0l-2.129-2.106a1.236,1.236,0,0,1,0-1.757l.441-.436a1.27,1.27,0,0,1,1.776,0Z" transform="translate(49.622 25.99)" fill="none" stroke="#000" stroke-linecap="round" stroke-linejoin="round" stroke-miterlimit="10" stroke-width="1"/>
          </g>
          <g id="g10877" transform="translate(22.663 45.821)">
            <path id="path10879" d="M-57.834-36.3a1.236,1.236,0,0,1,0,1.757l-.441.436a1.27,1.27,0,0,1-1.776,0l-3.486-3.448a1.236,1.236,0,0,1,0-1.757l.441-.436a1.27,1.27,0,0,1,1.776,0Z" transform="translate(63.904 40.113)" fill="#d78878"/>
          </g>
          <g id="g10881" transform="translate(22.663 45.821)">
            <path id="path10883" d="M-57.834-36.3a1.236,1.236,0,0,1,0,1.757l-.441.436a1.27,1.27,0,0,1-1.776,0l-3.486-3.448a1.236,1.236,0,0,1,0-1.757l.441-.436a1.27,1.27,0,0,1,1.776,0Z" transform="translate(63.904 40.113)" fill="none" stroke="#000" stroke-linecap="round" stroke-linejoin="round" stroke-miterlimit="10" stroke-width="1"/>
          </g>
          <g id="g10885" transform="translate(24.88 43.628)">
            <path id="path10887" d="M-54.582-33.088a1.236,1.236,0,0,1,0,1.757l-.44.436a1.27,1.27,0,0,1-1.776,0l-3.145-3.11a1.236,1.236,0,0,1,0-1.757l.441-.436a1.27,1.27,0,0,1,1.776,0Z" transform="translate(60.31 36.56)" fill="#d78878"/>
          </g>
          <g id="g10889" transform="translate(24.88 43.628)">
            <path id="path10891" d="M-54.582-33.088a1.236,1.236,0,0,1,0,1.757l-.44.436a1.27,1.27,0,0,1-1.776,0l-3.145-3.11a1.236,1.236,0,0,1,0-1.757l.441-.436a1.27,1.27,0,0,1,1.776,0Z" transform="translate(60.31 36.56)" fill="none" stroke="#000" stroke-linecap="round" stroke-linejoin="round" stroke-miterlimit="10" stroke-width="1"/>
          </g>
          <g id="g10893" transform="translate(27.097 41.436)">
            <path id="path10895" d="M-49.477-28.039a1.236,1.236,0,0,1,0,1.757l-.441.436a1.27,1.27,0,0,1-1.776,0l-2.609-2.58a1.236,1.236,0,0,1,0-1.757l.44-.436a1.27,1.27,0,0,1,1.776,0Z" transform="translate(54.669 30.982)" fill="#d78878"/>
          </g>
          <g id="g10897" transform="translate(27.097 41.436)">
            <path id="path10899" d="M-49.477-28.039a1.236,1.236,0,0,1,0,1.757l-.441.436a1.27,1.27,0,0,1-1.776,0l-2.609-2.58a1.236,1.236,0,0,1,0-1.757l.44-.436a1.27,1.27,0,0,1,1.776,0Z" transform="translate(54.669 30.982)" fill="none" stroke="#000" stroke-linecap="round" stroke-linejoin="round" stroke-miterlimit="10" stroke-width="1"/>
          </g>
        </g>
      </g>
    </g>
  </g>
</svg>
