<svg xmlns="http://www.w3.org/2000/svg" xmlns:xlink="http://www.w3.org/1999/xlink" width="108" height="108" viewBox="0 0 108 108">
  <defs>
    <filter id="Trazado_904820" x="0" y="0" width="108" height="108" filterUnits="userSpaceOnUse">
      <feOffset dy="3" input="SourceAlpha"/>
      <feGaussianBlur stdDeviation="3" result="blur"/>
      <feFlood flood-opacity="0.161"/>
      <feComposite operator="in" in2="blur"/>
      <feComposite in="SourceGraphic"/>
    </filter>
  </defs>
  <g id="Grupo_1222228" data-name="Grupo 1222228" transform="translate(9 6)">
    <g id="Grupo_1173585" data-name="Grupo 1173585" transform="translate(0 0)">
      <g id="Grupo_1173428" data-name="Grupo 1173428">
        <g id="Grupo_1171958" data-name="Grupo 1171958">
          <g id="Grupo_1167341" data-name="Grupo 1167341">
            <g id="Grupo_1166792" data-name="Grupo 1166792">
              <g transform="matrix(1, 0, 0, 1, -9, -6)" filter="url(#Trazado_904820)">
                <g id="Trazado_904820-2" data-name="Trazado 904820" transform="translate(9 6)" fill="#e7f2f8">
                  <path d="M 44.99999618530273 88.50002288818359 C 39.12687301635742 88.50002288818359 33.43022155761719 87.35009765625 28.06829643249512 85.08218383789062 C 22.88852119445801 82.89133453369141 18.23629570007324 79.75460815429688 14.24084663391113 75.75916290283203 C 10.24540901184082 71.76371002197266 7.108683586120605 67.11148834228516 4.917821407318115 61.93171310424805 C 2.649921178817749 56.56978607177734 1.499996185302734 50.87313461303711 1.499996185302734 45.0000114440918 C 1.499996185302734 39.12688827514648 2.649921178817749 33.43023681640625 4.917821407318115 28.06829833984375 C 7.108683586120605 22.88852310180664 10.24540901184082 18.2363109588623 14.24084663391113 14.2408618927002 C 18.23629570007324 10.24541187286377 22.88852119445801 7.108686447143555 28.06829643249512 4.917823791503906 C 33.43022155761719 2.649924039840698 39.12687301635742 1.499998927116394 44.99999618530273 1.499998927116394 C 50.87311935424805 1.499998927116394 56.56977081298828 2.649924039840698 61.93169784545898 4.917823791503906 C 67.11147308349609 7.108686447143555 71.76369476318359 10.24541187286377 75.75914764404297 14.2408618927002 C 79.75458526611328 18.2363109588623 82.89131164550781 22.88852310180664 85.08216857910156 28.06829833984375 C 87.35007476806641 33.43023681640625 88.5 39.12688827514648 88.5 45.0000114440918 C 88.5 50.87313461303711 87.35007476806641 56.56978607177734 85.08216857910156 61.93171310424805 C 82.89131164550781 67.11148834228516 79.75458526611328 71.76371002197266 75.75914764404297 75.75916290283203 C 71.76369476318359 79.75460815429688 67.11147308349609 82.89133453369141 61.93169784545898 85.08218383789062 C 56.56977081298828 87.35009765625 50.87311935424805 88.50002288818359 44.99999618530273 88.50002288818359 Z" stroke="none"/>
                  <path d="M 44.99999618530273 3 C 39.32870864868164 3 33.82865142822266 4.110054016113281 28.65262603759766 6.299339294433594 C 23.65165710449219 8.414566040039062 19.15968322753906 11.44333648681641 15.301513671875 15.30152893066406 C 11.44333648681641 19.15969848632812 8.414566040039062 23.65165710449219 6.299339294433594 28.65264129638672 C 4.110054016113281 33.82866668701172 2.999992370605469 39.3287239074707 2.999992370605469 45.0000114440918 C 2.999992370605469 50.67129898071289 4.110054016113281 56.17135620117188 6.299339294433594 61.34738159179688 C 8.414566040039062 66.34836578369141 11.44333648681641 70.84032440185547 15.301513671875 74.69849395751953 C 19.15968322753906 78.55668640136719 23.65165710449219 81.58545684814453 28.65262603759766 83.70068359375 C 33.82865142822266 85.88996887207031 39.32870864868164 87.00002288818359 44.99999618530273 87.00002288818359 C 50.67128372192383 87.00002288818359 56.17134094238281 85.88996887207031 61.34736633300781 83.70068359375 C 66.34834289550781 81.58545684814453 70.84030914306641 78.55668640136719 74.69847869873047 74.69849395751953 C 78.55665588378906 70.84032440185547 81.58542633056641 66.34836578369141 83.70065307617188 61.34738159179688 C 85.88993835449219 56.17135620117188 87 50.67129898071289 87 45.0000114440918 C 87 39.3287239074707 85.88993835449219 33.82866668701172 83.70065307617188 28.65264129638672 C 81.58542633056641 23.65165710449219 78.55665588378906 19.15969848632812 74.69847869873047 15.30152893066406 C 70.84030914306641 11.44333648681641 66.34834289550781 8.414566040039062 61.34736633300781 6.299339294433594 C 56.17134094238281 4.110054016113281 50.67128372192383 3 44.99999618530273 3 M 44.99999618530273 0 C 69.85281372070312 0 90 20.14719390869141 90 45.0000114440918 C 90 69.85282897949219 69.85281372070312 90.00002288818359 44.99999618530273 90.00002288818359 C 20.14717864990234 90.00002288818359 -7.62939453125e-06 69.85282897949219 -7.62939453125e-06 45.0000114440918 C -7.62939453125e-06 20.14719390869141 20.14717864990234 0 44.99999618530273 0 Z" stroke="none" fill="#248abf"/>
                </g>
              </g>
            </g>
          </g>
        </g>
      </g>
    </g>
    <g id="Filled_outline" data-name="Filled outline" transform="translate(-3.282 -1.345)">
      <path id="Trazado_1174742" data-name="Trazado 1174742" d="M207.14,240.461a1.008,1.008,0,0,1-.9-.558l-6.163-12.326L193.91,239.9a1.009,1.009,0,0,1-1.806-.9l7.066-14.131a1.051,1.051,0,0,1,1.806,0L208.042,239a1.009,1.009,0,0,1-.9,1.461Z" transform="translate(-153.791 -182.007)" fill="#95573a"/>
      <path id="Trazado_1174743" data-name="Trazado 1174743" d="M31.143,240.461a1.008,1.008,0,0,1-.9-.558l-6.163-12.326L17.913,239.9a1.009,1.009,0,0,1-1.806-.9l7.066-14.131a1.051,1.051,0,0,1,1.806,0L32.045,239a1.009,1.009,0,0,1-.9,1.461Z" transform="translate(-0.001 -182.007)" fill="#95573a"/>
      <path id="Trazado_1174744" data-name="Trazado 1174744" d="M104.15,428.038A4.038,4.038,0,0,0,100.113,424H96.075a4.038,4.038,0,0,0-4.038,4.038A4.038,4.038,0,0,0,88,432.075h20.188A4.038,4.038,0,0,0,104.15,428.038Z" transform="translate(-62.916 -356.462)" fill="#ffb531"/>
      <path id="Trazado_1174745" data-name="Trazado 1174745" d="M153.084,428.038A4.038,4.038,0,0,0,149.047,424h-4.038a4,4,0,0,0-1.009.143,4.028,4.028,0,0,1,3.028,3.895,4.038,4.038,0,0,1,4.038,4.038h6.056A4.038,4.038,0,0,0,153.084,428.038Z" transform="translate(-111.85 -356.462)" fill="#ffa912"/>
      <path id="Trazado_1174746" data-name="Trazado 1174746" d="M16,344H32.15a4.038,4.038,0,0,1-4.038,4.038H20.038A4.038,4.038,0,0,1,16,344Z" transform="translate(0 -286.556)" fill="#ffb531"/>
      <path id="Trazado_1174747" data-name="Trazado 1174747" d="M77.047,344c0,2.23-2.817,4.038-5.047,4.038h5.047A4.038,4.038,0,0,0,81.084,344Z" transform="translate(-48.934 -286.556)" fill="#ffa912"/>
      <path id="Trazado_1174748" data-name="Trazado 1174748" d="M68.1,212.02a6.537,6.537,0,0,1-2.7-.578L63.119,210.4a4.565,4.565,0,0,0-4.007.139,6.553,6.553,0,0,1-5.017.5l-.423-.128.587-1.932.422.128a4.517,4.517,0,0,0,3.463-.344,6.538,6.538,0,0,1,5.812-.205l2.277,1.037a4.553,4.553,0,0,0,3.729,0l2.275-1.037a6.536,6.536,0,0,1,5.813.205,4.519,4.519,0,0,0,3.464.344l.421-.128.587,1.932-.422.128a6.553,6.553,0,0,1-5.018-.5,4.566,4.566,0,0,0-4.008-.139L70.8,211.442a6.541,6.541,0,0,1-2.7.578Z" transform="translate(-32.919 -167.701)" fill="#f7a116"/>
      <path id="Trazado_1174749" data-name="Trazado 1174749" d="M150.056,186.924a3.028,3.028,0,1,0-5.047,2.242v25.011h4.038V189.166A3.009,3.009,0,0,0,150.056,186.924Z" transform="translate(-111.849 -146.639)" fill="#ffb531"/>
      <rect id="Rectángulo_421233" data-name="Rectángulo 421233" width="14.131" height="2.019" rx="1.009" transform="translate(28.113 70.566)" fill="#f7a116"/>
      <path id="Trazado_1174750" data-name="Trazado 1174750" d="M275.028,215.066V208h10.094v7.066l3.028,3.028-8.075,21.2L272,218.094Z" transform="translate(-223.7 -167.715)" fill="#fec9a3"/>
      <path id="Trazado_1174751" data-name="Trazado 1174751" d="M288.15,267.028l-8.075,21.2L272,267.028,275.028,264l5.047,5.047L285.122,264Z" transform="translate(-223.7 -216.65)" fill="#bfbfbd"/>
      <path id="Trazado_1174752" data-name="Trazado 1174752" d="M272,267.028l8.075,21.2,8.075-21.2L285.122,264l-5.047,5.047L275.028,264Z" transform="translate(-223.7 -216.65)" fill="#bfbfbd"/>
      <path id="Trazado_1174753" data-name="Trazado 1174753" d="M324.038,288v21.2H320V288l2.019,2.019Z" transform="translate(-265.643 -237.621)" fill="#95573a"/>
      <path id="Trazado_1174754" data-name="Trazado 1174754" d="M324.038,383.25v9.179H320v-5.6C321.377,385.708,322.723,384.522,324.038,383.25Z" transform="translate(-265.643 -320.853)" fill="#8f4d2e"/>
      <path id="Trazado_1174755" data-name="Trazado 1174755" d="M280.075,269.047l-5.058,5.9L272,267.028,275.028,264Z" transform="translate(-223.7 -216.65)" fill="#e0e0de"/>
      <path id="Trazado_1174756" data-name="Trazado 1174756" d="M344.075,267.028l-3.017,7.92-5.058-5.9L341.047,264Z" transform="translate(-279.624 -216.65)" fill="#e0e0de"/>
      <path id="Trazado_1174757" data-name="Trazado 1174757" d="M306.094,226.506V224H296v2.506A9.08,9.08,0,0,0,306.094,226.506Z" transform="translate(-244.671 -181.696)" fill="#feb784"/>
      <path id="Trazado_1174758" data-name="Trazado 1174758" d="M408,109.586h1.009a3.028,3.028,0,0,1,0,6.056H408Z" transform="translate(-342.54 -81.718)" fill="#feb784"/>
      <path id="Trazado_1174759" data-name="Trazado 1174759" d="M236.038,109.586h-1.009a3.028,3.028,0,1,0,0,6.056h1.07" transform="translate(-188.747 -81.718)" fill="#feb784"/>
      <path id="Trazado_1174760" data-name="Trazado 1174760" d="M282.169,41.084V49.16a9.084,9.084,0,1,1-18.169,0V41.084A9.085,9.085,0,0,1,273.084,32h.076A9.084,9.084,0,0,1,282.169,41.084Z" transform="translate(-216.709 -13.922)" fill="#fec9a3"/>
      <path id="Trazado_1174761" data-name="Trazado 1174761" d="M324.366,41.093v8.075a9.089,9.089,0,0,1-12.076,8.58,11.107,11.107,0,0,0,7.786-10.6V41.093a11.107,11.107,0,0,0-4.719-9.083A9.084,9.084,0,0,1,324.366,41.093Z" transform="translate(-258.906 -13.93)" fill="#fec093"/>
      <circle id="Elipse_14607" data-name="Elipse 14607" cx="1.514" cy="1.514" r="1.514" transform="translate(50.319 28.172)" fill="#7a432a"/>
      <circle id="Elipse_14608" data-name="Elipse 14608" cx="1.514" cy="1.514" r="1.514" transform="translate(59.404 28.172)" fill="#7a432a"/>
      <path id="Trazado_1174762" data-name="Trazado 1174762" d="M282.168,30.761V34.8a24.522,24.522,0,0,1-3.669-6.056h0a15.155,15.155,0,0,1-1.718.529,15.485,15.485,0,0,1-9.111-.529A24.564,24.564,0,0,1,264,34.8V30.761a6.909,6.909,0,0,1,.845-3.355,5.438,5.438,0,0,1,2.183-2.194,15.689,15.689,0,0,1,4.536-1.138,15.057,15.057,0,0,1,1.52-.074,15.724,15.724,0,0,1,6.058,1.213,6.192,6.192,0,0,1,3.026,5.548Z" transform="translate(-216.708 -6.931)" fill="#7a432a"/>
      <path id="Trazado_1174763" data-name="Trazado 1174763" d="M313.879,163.981H312v-2.019h1.879a7.516,7.516,0,0,0,3.669-.872l1.017,1.744A9.44,9.44,0,0,1,313.879,163.981Z" transform="translate(-258.653 -126.724)" fill="#f7a468"/>
      <path id="Trazado_1174764" data-name="Trazado 1174764" d="M222.357,294.969v19.276H184V294.969a5.046,5.046,0,0,1,3.823-4.9l4.252-1.064L195.1,288l8.075,21.2,8.075-21.2,3.028,1.009,4.252,1.064a5.046,5.046,0,0,1,3.823,4.9Z" transform="translate(-146.803 -237.621)" fill="#3d4d63"/>
      <path id="Trazado_1174765" data-name="Trazado 1174765" d="M299.157,345.82v18.949H271.89C281.139,362.088,292.343,356.68,299.157,345.82Z" transform="translate(-223.603 -288.146)" fill="#374559"/>
      <g id="Grupo_1222363" data-name="Grupo 1222363" transform="translate(43.253 67.538)">
        <path id="Trazado_1174766" data-name="Trazado 1174766" d="M328,456h2.019v5.047H328Z" transform="translate(-315.887 -451.962)" fill="#22303d"/>
        <path id="Trazado_1174767" data-name="Trazado 1174767" d="M296,464h2.019v2.019H296Z" transform="translate(-287.925 -458.953)" fill="#22303d"/>
        <path id="Trazado_1174768" data-name="Trazado 1174768" d="M232,424h2.019v9.085H232Z" transform="translate(-232 -424)" fill="#22303d"/>
        <path id="Trazado_1174769" data-name="Trazado 1174769" d="M424,424h2.019v9.085H424Z" transform="translate(-399.775 -424)" fill="#22303d"/>
      </g>
      <path id="Trazado_1174770" data-name="Trazado 1174770" d="M241.009,289.009,240,299.1h4.038l-1.009,4.038,9.084,6.056L244.038,288Z" transform="translate(-195.737 -237.621)" fill="#4c5d72"/>
      <path id="Trazado_1174771" data-name="Trazado 1174771" d="M347.1,289.009l1.009,10.094h-4.038l1.009,4.038L336,309.2l8.075-21.2Z" transform="translate(-279.624 -237.621)" fill="#4c5d72"/>
      <path id="Trazado_1174772" data-name="Trazado 1174772" d="M334.555,30.761V34.8a24.522,24.522,0,0,1-3.669-6.056h0a15.16,15.16,0,0,1-1.718.529,11.157,11.157,0,0,0-5.216-5.2A15.057,15.057,0,0,1,325.47,24a15.723,15.723,0,0,1,6.058,1.213A6.192,6.192,0,0,1,334.555,30.761Z" transform="translate(-269.095 -6.931)" fill="#743b20"/>
      <path id="Trazado_1174773" data-name="Trazado 1174773" d="M71.976,51.472,65,49.5l-2.564-2.564v-3.62a10.081,10.081,0,0,0,4.038-8.074v-.3a4.038,4.038,0,1,0,0-8.075V23.83A7.216,7.216,0,0,0,62.9,17.387q-.039-.021-.081-.038a16.849,16.849,0,0,0-12.89,0q-.041.017-.08.038a7.217,7.217,0,0,0-3.569,6.443v3.028a4.038,4.038,0,0,0,0,8.075v.3a10.077,10.077,0,0,0,2.146,6.223,4.511,4.511,0,0,1-3.3-.39,6.553,6.553,0,0,0-5.81-.2l-.16.073a3.957,3.957,0,0,0,.056-.654,4.038,4.038,0,0,0-8.075,0,3.956,3.956,0,0,0,.056.654l-.16-.073a6.532,6.532,0,0,0-5.811.2,4.556,4.556,0,0,1-3.465.343l-.423-.127-.583,1.933.42.126a6.539,6.539,0,0,0,1.616.276L16.107,56.993h0a1,1,0,0,0-.107.451,5.053,5.053,0,0,0,5.047,5.047H27.1a5.053,5.053,0,0,0,5.047-5.047,1,1,0,0,0-.107-.451h0L25.188,43.281a6.337,6.337,0,0,0,1.007-.439A4.565,4.565,0,0,1,30.2,42.7l1.95.888V66.63A5.049,5.049,0,0,0,28.2,70.652a5.046,5.046,0,0,0-4.123,4.962,1.009,1.009,0,0,0,1.009,1.009H38.207V57.347a4.032,4.032,0,0,1,3.058-3.917l2.86-.715-.867,8.666a1.009,1.009,0,0,0,1,1.11h2.745l-.7,2.783a1.009,1.009,0,0,0,.419,1.085l8.635,5.756v4.507h2.019V72.116l8.635-5.757a1.009,1.009,0,0,0,.419-1.085l-.7-2.783h2.745a1.009,1.009,0,0,0,1-1.11l-.867-8.666,2.86.715a4.032,4.032,0,0,1,3.058,3.917V76.623h2.019V57.347a6.048,6.048,0,0,0-4.587-5.876Zm-44.873,9H21.047a3.033,3.033,0,0,1-2.855-2.019H29.958A3.033,3.033,0,0,1,27.1,60.473Zm-8.461-4.038L24.075,45.57l5.433,10.865ZM43.7,50.742l2.586-5.172,1.8,3.6-.327.327Zm11.67,4.384,1.009-1.178,1.009,1.178V66.091l-1.009,2.65-1.009-2.65Zm-2.019,5.665L52.474,58.5l.873-1.018Zm6.056,0v-3.31l.873,1.018Zm-7.747-4.439-2.18-5.722,1.852-1.852L55,52.45Zm9.439,0-3.344-3.9,3.672-3.672,1.852,1.852Zm-.682-9.42L56.376,50.97l-4.038-4.038V44.49a10.108,10.108,0,0,0,8.075,0Zm-10.094-3.62v3.62l-.733.733-2.021-4.043a6.537,6.537,0,0,0,1.614-.276l.867-.247q.135.109.274.212ZM68.488,30.9a2.021,2.021,0,0,1-2.019,2.019V28.877A2.021,2.021,0,0,1,68.488,30.9ZM48.3,23.83a5.2,5.2,0,0,1,2.45-4.635,14.82,14.82,0,0,1,11.25,0,5.2,5.2,0,0,1,2.45,4.635v.917a24.623,24.623,0,0,1-1.732-3.333,1.009,1.009,0,0,0-1.281-.548,14.492,14.492,0,0,1-10.124,0,1.009,1.009,0,0,0-1.281.549A24.612,24.612,0,0,1,48.3,24.747ZM44.263,30.9a2.021,2.021,0,0,1,2.019-2.019v4.038A2.021,2.021,0,0,1,44.263,30.9ZM48.3,28.223a25.307,25.307,0,0,0,3.206-5.16,16.512,16.512,0,0,0,9.739,0,25.3,25.3,0,0,0,3.2,5.161v7.014a8.075,8.075,0,1,1-16.15,0ZM35.178,38.266A2.021,2.021,0,0,1,37.2,40.285a1.991,1.991,0,0,1-.676,1.492,1.009,1.009,0,0,0-.334.75v24H34.169v-24a1.009,1.009,0,0,0-.334-.75,1.991,1.991,0,0,1-.676-1.492,2.021,2.021,0,0,1,2.019-2.019Zm-4.16,31.168a3.009,3.009,0,0,1,2.142-.887h3.028v2.019H30.3A3.017,3.017,0,0,1,31.018,69.434ZM26.265,74.6a3.033,3.033,0,0,1,2.857-2.019h7.066V74.6ZM38.207,52.832v-9.24l1.95-.888a4.53,4.53,0,0,1,1.864-.4,4.476,4.476,0,0,1,2.141.539,6.347,6.347,0,0,0,1.007.439l-4.052,8.1-.341.085a6.047,6.047,0,0,0-2.569,1.36ZM48.443,65.074l.837-3.347a1.009,1.009,0,0,0-.979-1.254H45.378l.833-8.334,1.49-.5,6.607,17.342Zm16.008-4.6a1.009,1.009,0,0,0-.979,1.254l.837,3.347-5.865,3.91,6.607-17.342,1.49.5.833,8.334Z" transform="translate(0 0)"/>
      <path id="Trazado_1174774" data-name="Trazado 1174774" d="M289.514,115.028A1.514,1.514,0,1,0,288,113.514a1.514,1.514,0,0,0,1.514,1.514Z" transform="translate(-237.681 -83.828)"/>
      <path id="Trazado_1174775" data-name="Trazado 1174775" d="M361.514,115.028A1.514,1.514,0,1,0,360,113.514,1.514,1.514,0,0,0,361.514,115.028Z" transform="translate(-300.596 -83.828)"/>
      <path id="Trazado_1174776" data-name="Trazado 1174776" d="M312,163.981h1.879a9.441,9.441,0,0,0,4.686-1.147l-1.017-1.744a7.516,7.516,0,0,1-3.669.872H312Z" transform="translate(-258.653 -126.724)"/>
      <path id="Trazado_1174777" data-name="Trazado 1174777" d="M296,464h2.019v2.019H296Z" transform="translate(-244.671 -391.415)"/>
      <path id="Trazado_1174778" data-name="Trazado 1174778" d="M232,424h2.019v9.085H232Z" transform="translate(-188.747 -356.462)"/>
      <path id="Trazado_1174779" data-name="Trazado 1174779" d="M424,424h2.019v9.085H424Z" transform="translate(-356.521 -356.462)"/>
    </g>
  </g>
</svg>
