<svg xmlns="http://www.w3.org/2000/svg" xmlns:xlink="http://www.w3.org/1999/xlink" width="108" height="108" viewBox="0 0 108 108">
  <defs>
    <filter id="Trazado_904820" x="0" y="0" width="108" height="108" filterUnits="userSpaceOnUse">
      <feOffset dy="3" input="SourceAlpha"/>
      <feGaussianBlur stdDeviation="3" result="blur"/>
      <feFlood flood-opacity="0.161"/>
      <feComposite operator="in" in2="blur"/>
      <feComposite in="SourceGraphic"/>
    </filter>
  </defs>
  <g id="Grupo_1222383" data-name="Grupo 1222383" transform="translate(-200 -550)">
    <g id="Grupo_1222228" data-name="Grupo 1222228" transform="translate(209 556)">
      <g id="Grupo_1173585" data-name="Grupo 1173585" transform="translate(0 0)">
        <g id="Grupo_1173428" data-name="Grupo 1173428">
          <g id="Grupo_1171958" data-name="Grupo 1171958">
            <g id="Grupo_1167341" data-name="Grupo 1167341">
              <g id="Grupo_1166792" data-name="Grupo 1166792">
                <g transform="matrix(1, 0, 0, 1, -9, -6)" filter="url(#Trazado_904820)">
                  <g id="Trazado_904820-2" data-name="Trazado 904820" transform="translate(9 6)" fill="#e7f2f8">
                    <path d="M 44.99999618530273 88.50002288818359 C 39.12687301635742 88.50002288818359 33.43022155761719 87.35009765625 28.06829643249512 85.08218383789062 C 22.88852119445801 82.89133453369141 18.23629570007324 79.75460815429688 14.24084663391113 75.75916290283203 C 10.24540901184082 71.76371002197266 7.108683586120605 67.11148834228516 4.917821407318115 61.93171310424805 C 2.649921178817749 56.56978607177734 1.499996185302734 50.87313461303711 1.499996185302734 45.0000114440918 C 1.499996185302734 39.12688827514648 2.649921178817749 33.43023681640625 4.917821407318115 28.06829833984375 C 7.108683586120605 22.88852310180664 10.24540901184082 18.2363109588623 14.24084663391113 14.2408618927002 C 18.23629570007324 10.24541187286377 22.88852119445801 7.108686447143555 28.06829643249512 4.917823791503906 C 33.43022155761719 2.649924039840698 39.12687301635742 1.499998927116394 44.99999618530273 1.499998927116394 C 50.87311935424805 1.499998927116394 56.56977081298828 2.649924039840698 61.93169784545898 4.917823791503906 C 67.11147308349609 7.108686447143555 71.76369476318359 10.24541187286377 75.75914764404297 14.2408618927002 C 79.75458526611328 18.2363109588623 82.89131164550781 22.88852310180664 85.08216857910156 28.06829833984375 C 87.35007476806641 33.43023681640625 88.5 39.12688827514648 88.5 45.0000114440918 C 88.5 50.87313461303711 87.35007476806641 56.56978607177734 85.08216857910156 61.93171310424805 C 82.89131164550781 67.11148834228516 79.75458526611328 71.76371002197266 75.75914764404297 75.75916290283203 C 71.76369476318359 79.75460815429688 67.11147308349609 82.89133453369141 61.93169784545898 85.08218383789062 C 56.56977081298828 87.35009765625 50.87311935424805 88.50002288818359 44.99999618530273 88.50002288818359 Z" stroke="none"/>
                    <path d="M 44.99999618530273 3 C 39.32870864868164 3 33.82865142822266 4.110054016113281 28.65262603759766 6.299339294433594 C 23.65165710449219 8.414566040039062 19.15968322753906 11.44333648681641 15.301513671875 15.30152893066406 C 11.44333648681641 19.15969848632812 8.414566040039062 23.65165710449219 6.299339294433594 28.65264129638672 C 4.110054016113281 33.82866668701172 2.999992370605469 39.3287239074707 2.999992370605469 45.0000114440918 C 2.999992370605469 50.67129898071289 4.110054016113281 56.17135620117188 6.299339294433594 61.34738159179688 C 8.414566040039062 66.34836578369141 11.44333648681641 70.84032440185547 15.301513671875 74.69849395751953 C 19.15968322753906 78.55668640136719 23.65165710449219 81.58545684814453 28.65262603759766 83.70068359375 C 33.82865142822266 85.88996887207031 39.32870864868164 87.00002288818359 44.99999618530273 87.00002288818359 C 50.67128372192383 87.00002288818359 56.17134094238281 85.88996887207031 61.34736633300781 83.70068359375 C 66.34834289550781 81.58545684814453 70.84030914306641 78.55668640136719 74.69847869873047 74.69849395751953 C 78.55665588378906 70.84032440185547 81.58542633056641 66.34836578369141 83.70065307617188 61.34738159179688 C 85.88993835449219 56.17135620117188 87 50.67129898071289 87 45.0000114440918 C 87 39.3287239074707 85.88993835449219 33.82866668701172 83.70065307617188 28.65264129638672 C 81.58542633056641 23.65165710449219 78.55665588378906 19.15969848632812 74.69847869873047 15.30152893066406 C 70.84030914306641 11.44333648681641 66.34834289550781 8.414566040039062 61.34736633300781 6.299339294433594 C 56.17134094238281 4.110054016113281 50.67128372192383 3 44.99999618530273 3 M 44.99999618530273 0 C 69.85281372070312 0 90 20.14719390869141 90 45.0000114440918 C 90 69.85282897949219 69.85281372070312 90.00002288818359 44.99999618530273 90.00002288818359 C 20.14717864990234 90.00002288818359 -7.62939453125e-06 69.85282897949219 -7.62939453125e-06 45.0000114440918 C -7.62939453125e-06 20.14719390869141 20.14717864990234 0 44.99999618530273 0 Z" stroke="none" fill="#248abf"/>
                  </g>
                </g>
              </g>
            </g>
          </g>
        </g>
      </g>
    </g>
    <g id="mental-health_8048387_1_" data-name="mental-health_8048387 (1)" transform="translate(215.712 561.712)">
      <g id="Grupo_1222294" data-name="Grupo 1222294" transform="translate(7.5 7.5)">
        <rect id="Rectángulo_421228" data-name="Rectángulo 421228" width="4.172" height="41.194" transform="translate(29.202 9.649)" fill="#df8369"/>
        <path id="Trazado_1174505" data-name="Trazado 1174505" d="M233.3,57.2h-5.286a1.007,1.007,0,0,0-1.007,1.007v2.157a1.007,1.007,0,0,0,1.007,1.007H233.3a1.007,1.007,0,0,0,1.007-1.007V58.207A1.007,1.007,0,0,0,233.3,57.2Z" transform="translate(-199.371 -50.942)" fill="#ffe751"/>
        <circle id="Elipse_14602" data-name="Elipse 14602" cx="3.129" cy="3.129" r="3.129" transform="translate(28.159 0)" fill="#ffe751"/>
        <path id="Trazado_1174506" data-name="Trazado 1174506" d="M106.254,127.639H58.207a1.007,1.007,0,0,1-1.007-1.007v-2.157a1.007,1.007,0,0,1,1.007-1.007h48.047a1.007,1.007,0,0,1,1.007,1.007v2.157A1.007,1.007,0,0,1,106.254,127.639Z" transform="translate(-50.942 -108.866)" fill="#ffe751"/>
        <path id="Trazado_1174507" data-name="Trazado 1174507" d="M233.3,405.1h-5.286a1.007,1.007,0,0,0-1.007,1.007v3.92h7.3v-3.92A1.007,1.007,0,0,0,233.3,405.1Z" transform="translate(-199.371 -355.039)" fill="#ffe751"/>
        <path id="Trazado_1174508" data-name="Trazado 1174508" d="M256.888,57.2h-2.9A1.007,1.007,0,0,1,255,58.207v2.157a1.007,1.007,0,0,1-1.007,1.007h2.9a1.007,1.007,0,0,0,1.007-1.007V58.207A1.007,1.007,0,0,0,256.888,57.2Z" transform="translate(-222.957 -50.942)" fill="#ffc738"/>
        <path id="Trazado_1174509" data-name="Trazado 1174509" d="M245.948,7.5a3.113,3.113,0,0,0-1.448.355,3.128,3.128,0,0,1,0,5.547,3.129,3.129,0,1,0,1.448-5.9Z" transform="translate(-214.66 -7.5)" fill="#ffc738"/>
        <path id="Trazado_1174510" data-name="Trazado 1174510" d="M426.7,123.467h-2.9a1.007,1.007,0,0,1,1.007,1.007v2.157a1.007,1.007,0,0,1-1.007,1.007h2.9a1.007,1.007,0,0,0,1.007-1.007v-2.157A1.007,1.007,0,0,0,426.7,123.467Z" transform="translate(-371.384 -108.866)" fill="#ffc738"/>
        <path id="Trazado_1174511" data-name="Trazado 1174511" d="M256.888,405.1h-2.9A1.007,1.007,0,0,1,255,406.107v3.92h2.9v-3.92A1.007,1.007,0,0,0,256.888,405.1Z" transform="translate(-222.957 -355.039)" fill="#ffc738"/>
        <path id="Trazado_1174512" data-name="Trazado 1174512" d="M177.831,438.233h11.53a4.172,4.172,0,0,1,3.731,2.306l.933,1.866v.881H173.167V442.4l.933-1.866A4.172,4.172,0,0,1,177.831,438.233Z" transform="translate(-152.308 -384)" fill="#df8369"/>
        <path id="Trazado_1174513" data-name="Trazado 1174513" d="M285.417,440.54a4.172,4.172,0,0,0-3.731-2.306h-2.9a4.172,4.172,0,0,1,3.731,2.306l.933,1.866v.881h2.9v-.881Z" transform="translate(-244.632 -384.001)" fill="#cc6d58"/>
        <path id="Trazado_1174514" data-name="Trazado 1174514" d="M157.607,471.367h23.016a1.007,1.007,0,0,1,1.007,1.007v2.157a1.007,1.007,0,0,1-1.007,1.007H157.607a1.007,1.007,0,0,1-1.007-1.007v-2.157A1.007,1.007,0,0,1,157.607,471.367Z" transform="translate(-137.827 -412.962)" fill="#ffe751"/>
        <path id="Trazado_1174515" data-name="Trazado 1174515" d="M327.3,471.367h-2.9a1.007,1.007,0,0,1,1.007,1.007v2.157a1.007,1.007,0,0,1-1.007,1.007h2.9a1.007,1.007,0,0,0,1.007-1.007v-2.157A1.007,1.007,0,0,0,327.3,471.367Z" transform="translate(-284.5 -412.962)" fill="#ffc738"/>
        <path id="Trazado_1174516" data-name="Trazado 1174516" d="M331.247,211.78l1.932-.2,4.983-2.957,4.115-8.39-4.04-4.941H336a7.416,7.416,0,0,0-3.138,1.738.25.25,0,0,1-.343,0,6.626,6.626,0,0,0-6.175-1.7,5.387,5.387,0,0,0-4.064,5.922c.164,2.169,1.808,7.451,8.963,10.534Z" transform="translate(-282.634 -171.484)" fill="#f75574"/>
        <path id="Trazado_1174517" data-name="Trazado 1174517" d="M401.394,195.327a5.859,5.859,0,0,0-3.037-.036c.047.012.094.022.141.036a5.387,5.387,0,0,1,4.064,5.922c-.164,2.168-1.808,7.451-8.963,10.534.141.061.283.121.428.18a2.707,2.707,0,0,0,2.039,0c7.518-3.054,9.224-8.5,9.391-10.714A5.387,5.387,0,0,0,401.394,195.327Z" transform="translate(-344.987 -171.487)" fill="#f3395e"/>
        <g id="Grupo_1222293" data-name="Grupo 1222293" transform="translate(0 25.031)">
          <path id="Trazado_1174518" data-name="Trazado 1174518" d="M29.848,214.713h0a.271.271,0,0,1-.038-.222,3.61,3.61,0,0,0,.113-.891,3.65,3.65,0,0,0-3.65-3.65c-.071,0-.142,0-.212.008a.3.3,0,0,1-.229-.085.306.306,0,0,1-.092-.2,3.649,3.649,0,0,0-5.464-2.885.518.518,0,0,1-.522,0,3.649,3.649,0,0,0-5.467,2.941.243.243,0,0,1-.265.231c-.087-.007-.175-.011-.264-.011a3.65,3.65,0,0,0-3.466,4.8A3.651,3.651,0,0,0,7.5,218.389a3.7,3.7,0,0,0,3.718,3.554l8.8,2.086,8.789-2.086a3.7,3.7,0,0,0,3.722-3.46,3.651,3.651,0,0,0-2.537-3.668A.269.269,0,0,1,29.848,214.713Z" transform="translate(-7.5 -206.299)" fill="#fea9d7"/>
          <g id="Grupo_1222292" data-name="Grupo 1222292" transform="translate(13.156 0)">
            <path id="Trazado_1174519" data-name="Trazado 1174519" d="M121.318,214.815a.266.266,0,0,1-.179-.324,3.61,3.61,0,0,0,.113-.891,3.65,3.65,0,0,0-3.65-3.65c-.071,0-.142,0-.212.008a.3.3,0,0,1-.229-.085.306.306,0,0,1-.092-.2,3.646,3.646,0,0,0-5.085-3.074,3.652,3.652,0,0,1,2.189,3.074.308.308,0,0,0,.092.2.3.3,0,0,0,.229.085c.07,0,.141-.008.212-.008a3.65,3.65,0,0,1,3.65,3.65,3.61,3.61,0,0,1-.113.891.266.266,0,0,0,.179.324,3.651,3.651,0,0,1,2.539,3.631,3.7,3.7,0,0,1-3.724,3.5h2.9a3.7,3.7,0,0,0,3.724-3.5A3.651,3.651,0,0,0,121.318,214.815Z" transform="translate(-111.985 -206.299)" fill="#fe93cd"/>
          </g>
        </g>
        <path id="Trazado_1174520" data-name="Trazado 1174520" d="M40.262,363.484H28.731A4.172,4.172,0,0,1,25,361.178l-.933-1.866v-.63H44.926v.63l-.933,1.866A4.172,4.172,0,0,1,40.262,363.484Z" transform="translate(-21.981 -314.466)" fill="#df8369"/>
        <path id="Trazado_1174521" data-name="Trazado 1174521" d="M134.353,358.683v.63l-.933,1.866a4.172,4.172,0,0,1-3.731,2.306h2.9a4.172,4.172,0,0,0,3.731-2.306l.933-1.866v-.63Z" transform="translate(-114.304 -314.466)" fill="#cc6d58"/>
        <path id="Trazado_1174522" data-name="Trazado 1174522" d="M31.523,334.722H8.507A1.007,1.007,0,0,1,7.5,333.714v-2.157a1.007,1.007,0,0,1,1.007-1.007H31.523a1.007,1.007,0,0,1,1.007,1.007v2.157A1.007,1.007,0,0,1,31.523,334.722Z" transform="translate(-7.5 -289.875)" fill="#ffe751"/>
        <path id="Trazado_1174523" data-name="Trazado 1174523" d="M178.2,330.55h-2.9a1.007,1.007,0,0,1,1.007,1.007v2.157a1.007,1.007,0,0,1-1.007,1.007h2.9a1.007,1.007,0,0,0,1.007-1.007v-2.157A1.007,1.007,0,0,0,178.2,330.55Z" transform="translate(-154.173 -289.875)" fill="#ffc738"/>
        <path id="Trazado_1174524" data-name="Trazado 1174524" d="M338.462,363.484h-11.53a4.172,4.172,0,0,1-3.731-2.306l-.933-1.866v-.63h20.859v.63l-.933,1.866A4.172,4.172,0,0,1,338.462,363.484Z" transform="translate(-282.635 -314.466)" fill="#df8369"/>
        <path id="Trazado_1174525" data-name="Trazado 1174525" d="M432.553,358.683v.63l-.933,1.866a4.172,4.172,0,0,1-3.731,2.306h2.9a4.172,4.172,0,0,0,3.731-2.306l.933-1.866v-.63Z" transform="translate(-374.958 -314.466)" fill="#cc6d58"/>
        <path id="Trazado_1174526" data-name="Trazado 1174526" d="M329.723,334.722H306.707a1.007,1.007,0,0,1-1.007-1.007v-2.157a1.007,1.007,0,0,1,1.007-1.007h23.016a1.007,1.007,0,0,1,1.007,1.007v2.157A1.007,1.007,0,0,1,329.723,334.722Z" transform="translate(-268.154 -289.875)" fill="#ffe751"/>
        <path id="Trazado_1174527" data-name="Trazado 1174527" d="M476.4,330.55h-2.9a1.007,1.007,0,0,1,1.007,1.007v2.157a1.007,1.007,0,0,1-1.007,1.007h2.9a1.007,1.007,0,0,0,1.007-1.007v-2.157A1.007,1.007,0,0,0,476.4,330.55Z" transform="translate(-414.827 -289.875)" fill="#ffc738"/>
      </g>
      <g id="Grupo_1222302" data-name="Grupo 1222302" transform="translate(7.5 7.5)">
        <g id="Grupo_1222297" data-name="Grupo 1222297" transform="translate(0 25.031)">
          <g id="Grupo_1222295" data-name="Grupo 1222295">
            <path id="Trazado_1174528" data-name="Trazado 1174528" d="M29.739,214.745a3.65,3.65,0,0,0-3.466-4.8,3.683,3.683,0,0,0-.522.038c0-.013,0-.025,0-.038a3.65,3.65,0,0,0-5.736-2.995,3.65,3.65,0,0,0-5.736,2.995c0,.013,0,.025,0,.038a3.649,3.649,0,0,0-4.173,3.613,3.644,3.644,0,0,0,.184,1.146,3.65,3.65,0,0,0,.859,7.2H28.88a3.65,3.65,0,0,0,.858-7.2Z" transform="translate(-7.5 -206.299)" fill="none" stroke="#000" stroke-linecap="round" stroke-linejoin="round" stroke-miterlimit="10" stroke-width="1"/>
            <path id="Trazado_1174529" data-name="Trazado 1174529" d="M35.509,264.283a3.65,3.65,0,0,1-7.3,0" transform="translate(-25.601 -256.982)" fill="none" stroke="#000" stroke-linecap="round" stroke-linejoin="round" stroke-miterlimit="10" stroke-width="1"/>
            <path id="Trazado_1174530" data-name="Trazado 1174530" d="M90.333,206.3a3.65,3.65,0,0,1,3.65,3.65" transform="translate(-79.904 -206.3)" fill="none" stroke="#000" stroke-linecap="round" stroke-linejoin="round" stroke-miterlimit="10" stroke-width="1"/>
            <path id="Trazado_1174531" data-name="Trazado 1174531" d="M151.966,305.208a3.65,3.65,0,0,1-3.65-3.65" transform="translate(-130.586 -289.564)" fill="none" stroke="#000" stroke-linecap="round" stroke-linejoin="round" stroke-miterlimit="10" stroke-width="1"/>
          </g>
          <g id="Grupo_1222296" data-name="Grupo 1222296" transform="translate(0 15.644)">
            <path id="Trazado_1174532" data-name="Trazado 1174532" d="M31.523,334.722H8.507A1.007,1.007,0,0,1,7.5,333.714v-2.157a1.007,1.007,0,0,1,1.007-1.007H31.523a1.007,1.007,0,0,1,1.007,1.007v2.157A1.007,1.007,0,0,1,31.523,334.722Z" transform="translate(-7.5 -330.55)" fill="none" stroke="#000" stroke-linecap="round" stroke-linejoin="round" stroke-miterlimit="10" stroke-width="1"/>
            <path id="Trazado_1174533" data-name="Trazado 1174533" d="M30.73,367.855h-2A4.172,4.172,0,0,1,25,365.549l-.933-1.866H44.926l-.933,1.866a4.172,4.172,0,0,1-3.731,2.306H35.137" transform="translate(-21.981 -359.511)" fill="none" stroke="#000" stroke-linecap="round" stroke-linejoin="round" stroke-miterlimit="10" stroke-width="1"/>
          </g>
        </g>
        <g id="Grupo_1222299" data-name="Grupo 1222299" transform="translate(37.546 23.622)">
          <path id="Trazado_1174534" data-name="Trazado 1174534" d="M331.676,211.963a2.714,2.714,0,0,0,2.039,0c7.518-3.054,9.224-8.5,9.391-10.714a5.387,5.387,0,0,0-4.064-5.922A6.723,6.723,0,0,0,332.7,197.2a6.723,6.723,0,0,0-6.346-1.872,5.387,5.387,0,0,0-4.064,5.922C322.452,203.46,324.158,208.909,331.676,211.963Z" transform="translate(-320.181 -195.108)" fill="none" stroke="#000" stroke-linecap="round" stroke-linejoin="round" stroke-miterlimit="10" stroke-width="1"/>
          <g id="Grupo_1222298" data-name="Grupo 1222298" transform="translate(0 17.053)">
            <path id="Trazado_1174535" data-name="Trazado 1174535" d="M329.723,334.722H306.707a1.007,1.007,0,0,1-1.007-1.007v-2.157a1.007,1.007,0,0,1,1.007-1.007h23.016a1.007,1.007,0,0,1,1.007,1.007v2.157A1.007,1.007,0,0,1,329.723,334.722Z" transform="translate(-305.7 -330.55)" fill="none" stroke="#000" stroke-linecap="round" stroke-linejoin="round" stroke-miterlimit="10" stroke-width="1"/>
            <path id="Trazado_1174536" data-name="Trazado 1174536" d="M338.462,367.855h-11.53a4.172,4.172,0,0,1-3.731-2.306l-.933-1.866h20.859l-.933,1.866A4.172,4.172,0,0,1,338.462,367.855Z" transform="translate(-320.181 -359.511)" fill="none" stroke="#000" stroke-linecap="round" stroke-linejoin="round" stroke-miterlimit="10" stroke-width="1"/>
          </g>
        </g>
        <g id="Grupo_1222300" data-name="Grupo 1222300" transform="translate(18.773 54.233)">
          <path id="Trazado_1174537" data-name="Trazado 1174537" d="M160.654,475.539h-3.047a1.007,1.007,0,0,1-1.007-1.007v-2.157a1.007,1.007,0,0,1,1.007-1.007h23.016a1.007,1.007,0,0,1,1.007,1.007v2.157a1.007,1.007,0,0,1-1.007,1.007H165.061" transform="translate(-156.6 -467.195)" fill="none" stroke="#000" stroke-linecap="round" stroke-linejoin="round" stroke-miterlimit="10" stroke-width="1"/>
          <path id="Trazado_1174538" data-name="Trazado 1174538" d="M177.831,438.233h11.53a4.172,4.172,0,0,1,3.731,2.306l.933,1.866H173.167l.933-1.866A4.172,4.172,0,0,1,177.831,438.233Z" transform="translate(-171.081 -438.233)" fill="none" stroke="#000" stroke-linecap="round" stroke-linejoin="round" stroke-miterlimit="10" stroke-width="1"/>
        </g>
        <path id="Trazado_1174539" data-name="Trazado 1174539" d="M233.3,405.1h-5.286a1.007,1.007,0,0,0-1.007,1.007v3.164h7.3v-3.164A1.007,1.007,0,0,0,233.3,405.1Z" transform="translate(-199.371 -355.039)" fill="none" stroke="#000" stroke-linecap="round" stroke-linejoin="round" stroke-miterlimit="10" stroke-width="1"/>
        <path id="Trazado_1174540" data-name="Trazado 1174540" d="M233.3,57.2h-5.286a1.007,1.007,0,0,0-1.007,1.007v2.157a1.007,1.007,0,0,0,1.007,1.007H233.3a1.007,1.007,0,0,0,1.007-1.007V58.207A1.007,1.007,0,0,0,233.3,57.2Z" transform="translate(-199.371 -50.942)" fill="none" stroke="#000" stroke-linecap="round" stroke-linejoin="round" stroke-miterlimit="10" stroke-width="1"/>
        <circle id="Elipse_14603" data-name="Elipse 14603" cx="3.129" cy="3.129" r="3.129" transform="translate(28.159 0)" fill="none" stroke="#000" stroke-linecap="round" stroke-linejoin="round" stroke-miterlimit="10" stroke-width="1"/>
        <path id="Trazado_1174541" data-name="Trazado 1174541" d="M106.254,127.639H58.207a1.007,1.007,0,0,1-1.007-1.007v-2.157a1.007,1.007,0,0,1,1.007-1.007h48.047a1.007,1.007,0,0,1,1.007,1.007v2.157A1.007,1.007,0,0,1,106.254,127.639Z" transform="translate(-50.942 -108.866)" fill="none" stroke="#000" stroke-linecap="round" stroke-linejoin="round" stroke-miterlimit="10" stroke-width="1"/>
        <g id="Grupo_1222301" data-name="Grupo 1222301" transform="translate(29.202 10.429)">
          <path id="Trazado_1174542" data-name="Trazado 1174542" d="M239.433,156.6v31.288H243.6V156.6" transform="translate(-239.433 -148.256)" fill="none" stroke="#000" stroke-linecap="round" stroke-linejoin="round" stroke-miterlimit="10" stroke-width="1"/>
          <path id="Trazado_1174543" data-name="Trazado 1174543" d="M243.6,94.5V90.333h-4.172V94.5" transform="translate(-239.433 -90.333)" fill="none" stroke="#000" stroke-linecap="round" stroke-linejoin="round" stroke-miterlimit="10" stroke-width="1"/>
        </g>
        <line id="Línea_3632" data-name="Línea 3632" x2="3.239" y2="6.941" transform="translate(13.489 18.773)" fill="none" stroke="#000" stroke-linecap="round" stroke-linejoin="round" stroke-miterlimit="10" stroke-width="1"/>
        <line id="Línea_3633" data-name="Línea 3633" y1="6.941" x2="3.239" transform="translate(8.303 18.773)" fill="none" stroke="#000" stroke-linecap="round" stroke-linejoin="round" stroke-miterlimit="10" stroke-width="1"/>
        <line id="Línea_3634" data-name="Línea 3634" x2="2.346" y2="5.028" transform="translate(51.035 18.773)" fill="none" stroke="#000" stroke-linecap="round" stroke-linejoin="round" stroke-miterlimit="10" stroke-width="1"/>
        <line id="Línea_3635" data-name="Línea 3635" y1="5.028" x2="2.346" transform="translate(46.741 18.773)" fill="none" stroke="#000" stroke-linecap="round" stroke-linejoin="round" stroke-miterlimit="10" stroke-width="1"/>
      </g>
    </g>
  </g>
</svg>
