<svg xmlns="http://www.w3.org/2000/svg" xmlns:xlink="http://www.w3.org/1999/xlink" width="113" height="113" viewBox="0 0 113 113">
  <defs>
    <filter id="Trazado_982547" x="0" y="0" width="113" height="113" filterUnits="userSpaceOnUse">
      <feOffset dy="3" input="SourceAlpha"/>
      <feGaussianBlur stdDeviation="3" result="blur"/>
      <feFlood flood-opacity="0.161"/>
      <feComposite operator="in" in2="blur"/>
      <feComposite in="SourceGraphic"/>
    </filter>
  </defs>
  <g id="Grupo_1222313" data-name="Grupo 1222313" transform="translate(-3133.5 -3233.131)">
    <g id="Grupo_1222267" data-name="Grupo 1222267" transform="translate(2337.5 1986.241)">
      <g id="Grupo_1202142" data-name="Grupo 1202142" transform="translate(805 1252.89)">
        <g id="Grupo_1201923" data-name="Grupo 1201923" transform="translate(0 0)">
          <g id="Grupo_1176928" data-name="Grupo 1176928" transform="translate(0 0)">
            <g id="Grupo_1172322" data-name="Grupo 1172322">
              <g id="Grupo_1164700" data-name="Grupo 1164700">
                <g id="Grupo_1160931" data-name="Grupo 1160931">
                  <g id="Grupo_1160749" data-name="Grupo 1160749">
                    <g id="Grupo_1158891" data-name="Grupo 1158891">
                      <g id="Grupo_1157406" data-name="Grupo 1157406">
                        <g id="Grupo_1155793" data-name="Grupo 1155793">
                          <g id="Grupo_1154704" data-name="Grupo 1154704">
                            <g id="Grupo_1150790" data-name="Grupo 1150790">
                              <g id="Grupo_1154214" data-name="Grupo 1154214" transform="translate(0)">
                                <g id="Grupo_1152583" data-name="Grupo 1152583">
                                  <g id="Grupo_1146973" data-name="Grupo 1146973">
                                    <g id="Grupo_1146954" data-name="Grupo 1146954">
                                      <g transform="matrix(1, 0, 0, 1, -9, -6)" filter="url(#Trazado_982547)">
                                        <g id="Trazado_982547-2" data-name="Trazado 982547" transform="translate(9 6)" fill="#f2f4f0">
                                          <path d="M 47.50000762939453 93.49986267089844 C 41.28937911987305 93.49986267089844 35.26534271240234 92.28383636474609 29.59519386291504 89.88558197021484 C 24.11772727966309 87.56880950927734 19.19814109802246 84.25183868408203 14.97310066223145 80.02679443359375 C 10.74804782867432 75.8017578125 7.431074142456055 70.88218688964844 5.114300727844238 65.40471649169922 C 2.716034412384033 59.73458480834961 1.500007629394531 53.71054458618164 1.500007629394531 47.49993133544922 C 1.500007629394531 41.2893180847168 2.716034412384033 35.26527786254883 5.114300727844238 29.59514427185059 C 7.431074142456055 24.11767768859863 10.74804782867432 19.19810485839844 14.97310066223145 14.97306442260742 C 19.19814109802246 10.74802494049072 24.11772727966309 7.431051254272461 29.59519386291504 5.114277839660645 C 35.26534271240234 2.71602463722229 41.28937911987305 1.499997973442078 47.50000762939453 1.499997973442078 C 53.71063613891602 1.499997973442078 59.73467254638672 2.71602463722229 65.40482330322266 5.114277839660645 C 70.88228607177734 7.431051254272461 75.80187225341797 10.74802494049072 80.02691650390625 14.97306442260742 C 84.25196838378906 19.19810485839844 87.56893920898438 24.11767768859863 89.88571166992188 29.59514427185059 C 92.28398132324219 35.26527786254883 93.50000762939453 41.2893180847168 93.50000762939453 47.49993133544922 C 93.50000762939453 53.71054458618164 92.28398132324219 59.73458480834961 89.88571166992188 65.40471649169922 C 87.56893920898438 70.88218688964844 84.25196838378906 75.8017578125 80.02691650390625 80.02679443359375 C 75.80187225341797 84.25183868408203 70.88228607177734 87.56880950927734 65.40482330322266 89.88558197021484 C 59.73467254638672 92.28383636474609 53.71063613891602 93.49986267089844 47.50000762939453 93.49986267089844 Z" stroke="none"/>
                                          <path d="M 47.50000762939453 2.999992370605469 C 41.4912223815918 2.999992370605469 35.66377639770508 4.1761474609375 30.17951202392578 6.495796203613281 C 24.88085174560547 8.736930847167969 20.12152862548828 11.94596099853516 16.03376007080078 16.03372955322266 C 11.94597625732422 20.12148284912109 8.736961364746094 24.88080596923828 6.495803833007812 30.17946624755859 C 4.176162719726562 35.66371536254883 3.000007629394531 41.49116134643555 3.000007629394531 47.49993133544922 C 3.000007629394531 53.50870132446289 4.176162719726562 59.33614730834961 6.495803833007812 64.82038879394531 C 8.736961364746094 70.11905670166016 11.94597625732422 74.87836456298828 16.03376007080078 78.96613311767578 C 20.12152862548828 83.05390167236328 24.88085174560547 86.26291656494141 30.17951202392578 88.50406646728516 C 35.66377639770508 90.82369995117188 41.4912223815918 91.99985504150391 47.50000762939453 91.99985504150391 C 53.50879287719727 91.99985504150391 59.33623886108398 90.82369995117188 64.82049560546875 88.50406646728516 C 70.11916351318359 86.26291656494141 74.87848663330078 83.05390167236328 78.96625518798828 78.96613311767578 C 83.05403900146484 74.87836456298828 86.26305389404297 70.11905670166016 88.50421142578125 64.82038879394531 C 90.8238525390625 59.33614730834961 92.00000762939453 53.50870132446289 92.00000762939453 47.49993133544922 C 92.00000762939453 41.49116134643555 90.8238525390625 35.66371536254883 88.50421142578125 30.17946624755859 C 86.26305389404297 24.88080596923828 83.05403900146484 20.12148284912109 78.96625518798828 16.03372955322266 C 74.87848663330078 11.94596099853516 70.11916351318359 8.736930847167969 64.82049560546875 6.495796203613281 C 59.33623886108398 4.1761474609375 53.50879287719727 2.999992370605469 47.50000762939453 2.999992370605469 M 47.50000762939453 -7.62939453125e-06 C 73.73352813720703 -7.62939453125e-06 95.00000762939453 21.26644134521484 95.00000762939453 47.49993133544922 C 95.00000762939453 73.73342132568359 73.73352813720703 94.99985504150391 47.50000762939453 94.99985504150391 C 21.26648712158203 94.99985504150391 7.62939453125e-06 73.73342132568359 7.62939453125e-06 47.49993133544922 C 7.62939453125e-06 21.26644134521484 21.26648712158203 -7.62939453125e-06 47.50000762939453 -7.62939453125e-06 Z" stroke="none" fill="#899e78"/>
                                        </g>
                                      </g>
                                    </g>
                                  </g>
                                </g>
                              </g>
                            </g>
                          </g>
                        </g>
                      </g>
                    </g>
                  </g>
                </g>
              </g>
            </g>
          </g>
        </g>
      </g>
    </g>
    <g id="friends_6799843" transform="translate(3149.917 3211.009)">
      <g id="Grupo_1222310" data-name="Grupo 1222310" transform="translate(7.5 47.92)">
        <rect id="Rectángulo_421230" data-name="Rectángulo 421230" width="7.296" height="9.657" transform="translate(44.82 24.158)" fill="#ffcdbe"/>
        <path id="Trazado_1174595" data-name="Trazado 1174595" d="M344.164,229.381h0v9.657h1.9v-3.326a1.486,1.486,0,0,1,1.486-1.486h2.091a8.958,8.958,0,0,0,1.814-.185v-4.66Z" transform="translate(-299.344 -205.223)" fill="#ebae9d"/>
        <path id="Trazado_1174596" data-name="Trazado 1174596" d="M274.023,300.141V286.925a3.712,3.712,0,0,0-2.191-3.386l-11.859-5.327-1.636,1.415a3.075,3.075,0,0,1-4.024,0l-1.636-1.415-12.074,2.2-1.976,22.542h32.581A2.814,2.814,0,0,0,274.023,300.141Z" transform="translate(-207.857 -247.552)" fill="#95d6a4"/>
        <path id="Trazado_1174597" data-name="Trazado 1174597" d="M228.692,301.267a6.384,6.384,0,0,0-3.763-5.815l-1.55-.7-4.621.843,2.645,21.7h7.288V301.267Z" transform="translate(-190.634 -261.895)" fill="#78c2a4"/>
        <path id="Trazado_1174598" data-name="Trazado 1174598" d="M281.8,178.83H273l-1.95,2.9a3.623,3.623,0,0,0,3.005,5.647H281.8Z" transform="translate(-235.427 -161.402)" fill="#766d78"/>
        <path id="Trazado_1174599" data-name="Trazado 1174599" d="M399.968,181.726l-1.95-2.9h-8.507v8.543h7.451a3.623,3.623,0,0,0,3.005-5.647Z" transform="translate(-338.654 -161.402)" fill="#8e868e"/>
        <path id="Trazado_1174600" data-name="Trazado 1174600" d="M275.293,150.517h-2.477a2.385,2.385,0,0,1-2.385-2.385v-.746A2.385,2.385,0,0,1,272.816,145h2.477Z" transform="translate(-235.427 -132.077)" fill="#ebae9d"/>
        <path id="Trazado_1174601" data-name="Trazado 1174601" d="M436.174,145h2.477a2.385,2.385,0,0,1,2.385,2.385v.746a2.385,2.385,0,0,1-2.385,2.385h-2.477Z" transform="translate(-379.105 -132.077)" fill="#ebae9d"/>
        <path id="Trazado_1174602" data-name="Trazado 1174602" d="M311.934,99.044H310.5a8.552,8.552,0,0,1-8.552-8.553V84.157A8.552,8.552,0,0,1,310.5,75.6h1.43a8.553,8.553,0,0,1,8.553,8.553v6.335A8.553,8.553,0,0,1,311.934,99.044Z" transform="translate(-262.752 -71.918)" fill="#ffcdbe"/>
        <path id="Trazado_1174603" data-name="Trazado 1174603" d="M304.377,90.492V84.157a8.552,8.552,0,0,1,8.055-8.537c-.165-.009-.33-.015-.5-.015H310.5a8.552,8.552,0,0,0-8.552,8.553v6.335a8.552,8.552,0,0,0,8.552,8.553h1.43c.167,0,.333-.006.5-.015A8.552,8.552,0,0,1,304.377,90.492Z" transform="translate(-262.752 -71.918)" fill="#ebae9d"/>
        <path id="Trazado_1174604" data-name="Trazado 1174604" d="M310.059,56.924v3.921h-4.566a4.71,4.71,0,0,1-3.119-1.18l-1.869-1.651a2.426,2.426,0,0,0-3.212,0l-1.869,1.651a4.711,4.711,0,0,1-3.119,1.18H287.74V56.924a9,9,0,0,1,9-9h4.312A9,9,0,0,1,310.059,56.924Z" transform="translate(-250.432 -47.92)" fill="#8e868e"/>
        <path id="Trazado_1174605" data-name="Trazado 1174605" d="M299.617,47.921h-2.872a9,9,0,0,0-9,9v3.921h2.872V56.925A9,9,0,0,1,299.617,47.921Z" transform="translate(-250.433 -47.921)" fill="#766d78"/>
        <path id="Trazado_1174606" data-name="Trazado 1174606" d="M44.165,150.517H41.688a2.385,2.385,0,0,1-2.385-2.385v-.746A2.385,2.385,0,0,1,41.688,145h2.477v5.516Z" transform="translate(-35.069 -132.077)" fill="#ba7e5d"/>
        <path id="Trazado_1174607" data-name="Trazado 1174607" d="M205.047,145h2.477a2.385,2.385,0,0,1,2.385,2.385v.746a2.385,2.385,0,0,1-2.385,2.385h-2.477Z" transform="translate(-178.748 -132.077)" fill="#ba7e5d"/>
        <rect id="Rectángulo_421231" data-name="Rectángulo 421231" width="7.296" height="9.657" transform="translate(14.05 24.158)" fill="#d29771"/>
        <path id="Trazado_1174608" data-name="Trazado 1174608" d="M113.037,229.381h0v9.657h1.9v-3.326a1.486,1.486,0,0,1,1.486-1.486h2.091a8.956,8.956,0,0,0,1.814-.185v-4.66Z" transform="translate(-98.987 -205.223)" fill="#ba7e5d"/>
        <path id="Trazado_1174609" data-name="Trazado 1174609" d="M80.807,99.044h-1.43a8.552,8.552,0,0,1-8.553-8.553V84.157A8.552,8.552,0,0,1,79.378,75.6h1.43a8.552,8.552,0,0,1,8.553,8.553v6.335A8.553,8.553,0,0,1,80.807,99.044Z" transform="translate(-62.395 -71.918)" fill="#d29771"/>
        <path id="Trazado_1174610" data-name="Trazado 1174610" d="M73.25,90.492V84.157A8.552,8.552,0,0,1,81.3,75.619c-.165-.009-.33-.015-.5-.015h-1.43a8.552,8.552,0,0,0-8.553,8.553v6.335a8.552,8.552,0,0,0,8.553,8.553h1.43c.167,0,.333-.006.5-.015A8.552,8.552,0,0,1,73.25,90.492Z" transform="translate(-62.395 -71.918)" fill="#ba7e5d"/>
        <path id="Trazado_1174611" data-name="Trazado 1174611" d="M42.9,302.955V286.924a3.712,3.712,0,0,0-2.191-3.386L28.845,278.21l-1.636,1.415a3.075,3.075,0,0,1-4.024,0L21.55,278.21l-11.358,5.532A3.712,3.712,0,0,0,8,287.129L7.5,300.14a2.814,2.814,0,0,0,2.814,2.814H42.9Z" transform="translate(-7.5 -247.552)" fill="#ffc269"/>
        <path id="Trazado_1174612" data-name="Trazado 1174612" d="M10.446,300.142V287.9a3.712,3.712,0,0,1,2.191-3.386l10.671-4.794c-.041-.032-.082-.062-.122-.1l-1.636-1.415L9.691,283.539A3.712,3.712,0,0,0,7.5,286.926v13.216a2.814,2.814,0,0,0,2.814,2.814H13.26A2.814,2.814,0,0,1,10.446,300.142Z" transform="translate(-7.5 -247.553)" fill="#ffa95f"/>
        <path id="Trazado_1174613" data-name="Trazado 1174613" d="M78.932,56.924v3.921H74.366a4.711,4.711,0,0,1-3.119-1.18l-1.869-1.651a2.426,2.426,0,0,0-3.212,0L64.3,59.664a4.711,4.711,0,0,1-3.119,1.18H56.613V56.924a9,9,0,0,1,9-9h4.312A9,9,0,0,1,78.932,56.924Z" transform="translate(-50.075 -47.92)" fill="sienna"/>
        <path id="Trazado_1174614" data-name="Trazado 1174614" d="M68.49,47.921H65.618a9,9,0,0,0-9,9v3.921h2.872V56.925A9,9,0,0,1,68.49,47.921Z" transform="translate(-50.075 -47.921)" fill="#783e22"/>
        <path id="Trazado_1174615" data-name="Trazado 1174615" d="M36.115,274.66h3.851a1.574,1.574,0,0,1,1.574,1.574V278.3a2.588,2.588,0,0,1-2.588,2.588H37.129a2.588,2.588,0,0,1-2.588-2.588v-2.063A1.574,1.574,0,0,1,36.115,274.66Z" transform="translate(-30.941 -244.474)" fill="#ffcdbe"/>
        <path id="Trazado_1174616" data-name="Trazado 1174616" d="M37.056,278.3v-2.063a1.574,1.574,0,0,1,1.574-1.574H36.115a1.574,1.574,0,0,0-1.574,1.574V278.3a2.588,2.588,0,0,0,2.588,2.588h1.823a2.6,2.6,0,0,0,.346-.026A2.587,2.587,0,0,1,37.056,278.3Z" transform="translate(-30.941 -244.474)" fill="#ebae9d"/>
      </g>
      <g id="Grupo_1222312" data-name="Grupo 1222312" transform="translate(7.5 47.92)">
        <path id="Trazado_1174617" data-name="Trazado 1174617" d="M411.745,194.676h4.491a3.623,3.623,0,0,0,3.006-5.647l-1.195-1.775" transform="translate(-357.928 -168.706)" fill="none" stroke="#000" stroke-linecap="round" stroke-linejoin="round" stroke-miterlimit="10" stroke-width="1"/>
        <path id="Trazado_1174618" data-name="Trazado 1174618" d="M272.243,187.255l-1.195,1.775a3.623,3.623,0,0,0,3.005,5.647H278.5" transform="translate(-235.426 -168.706)" fill="none" stroke="#000" stroke-linecap="round" stroke-linejoin="round" stroke-miterlimit="10" stroke-width="1"/>
        <path id="Trazado_1174619" data-name="Trazado 1174619" d="M274.459,150.517h-1.737a2.29,2.29,0,0,1-2.29-2.29v-.936a2.29,2.29,0,0,1,2.29-2.29h1.786" transform="translate(-235.427 -132.077)" fill="none" stroke="#000" stroke-linecap="round" stroke-linejoin="round" stroke-miterlimit="10" stroke-width="1"/>
        <path id="Trazado_1174620" data-name="Trazado 1174620" d="M441.175,145h1.906a2.29,2.29,0,0,1,2.29,2.29v.936a2.29,2.29,0,0,1-2.29,2.29h-1.743" transform="translate(-383.44 -132.077)" fill="none" stroke="#000" stroke-linecap="round" stroke-linejoin="round" stroke-miterlimit="10" stroke-width="1"/>
        <line id="Línea_3636" data-name="Línea 3636" y2="3.684" transform="translate(52.115 26.974)" fill="none" stroke="#000" stroke-linecap="round" stroke-linejoin="round" stroke-miterlimit="10" stroke-width="1"/>
        <line id="Línea_3637" data-name="Línea 3637" y1="3.684" transform="translate(44.82 26.974)" fill="none" stroke="#000" stroke-linecap="round" stroke-linejoin="round" stroke-miterlimit="10" stroke-width="1"/>
        <line id="Línea_3638" data-name="Línea 3638" x2="0.444" transform="translate(44.152 15.701)" fill="none" stroke="#000" stroke-linecap="round" stroke-linejoin="round" stroke-miterlimit="10" stroke-width="1"/>
        <line id="Línea_3639" data-name="Línea 3639" x2="0.444" transform="translate(52.339 15.701)" fill="none" stroke="#000" stroke-linecap="round" stroke-linejoin="round" stroke-miterlimit="10" stroke-width="1"/>
        <path id="Trazado_1174621" data-name="Trazado 1174621" d="M353.911,211.2l.219.118a4.207,4.207,0,0,0,4.193-.118h0" transform="translate(-307.793 -189.464)" fill="none" stroke="#000" stroke-linecap="round" stroke-linejoin="round" stroke-miterlimit="10" stroke-width="1"/>
        <path id="Trazado_1174622" data-name="Trazado 1174622" d="M294.567,290v-3.073a3.712,3.712,0,0,0-2.191-3.386l-11.859-5.327-1.636,1.415a3.075,3.075,0,0,1-4.024,0l-1.636-1.415-10.9,1.987" transform="translate(-228.401 -247.553)" fill="none" stroke="#000" stroke-linecap="round" stroke-linejoin="round" stroke-miterlimit="10" stroke-width="1"/>
        <path id="Trazado_1174623" data-name="Trazado 1174623" d="M273.373,407.147h27.955a2.814,2.814,0,0,0,2.814-2.814V398.4" transform="translate(-237.977 -351.744)" fill="none" stroke="#000" stroke-linecap="round" stroke-linejoin="round" stroke-miterlimit="10" stroke-width="1"/>
        <path id="Trazado_1174624" data-name="Trazado 1174624" d="M308.021,51.219a8.966,8.966,0,0,1,2.038,5.706v3.921h-4.566a4.71,4.71,0,0,1-3.119-1.18l-1.869-1.651a2.426,2.426,0,0,0-3.212,0l-1.869,1.651a4.711,4.711,0,0,1-3.119,1.18H287.74V56.925a9,9,0,0,1,9-9h4.312a8.966,8.966,0,0,1,4.211,1.043" transform="translate(-250.432 -47.921)" fill="none" stroke="#000" stroke-linecap="round" stroke-linejoin="round" stroke-miterlimit="10" stroke-width="1"/>
        <path id="Trazado_1174625" data-name="Trazado 1174625" d="M43.332,150.517H41.594a2.29,2.29,0,0,1-2.29-2.29v-.936a2.29,2.29,0,0,1,2.29-2.29h1.786" transform="translate(-35.07 -132.077)" fill="none" stroke="#000" stroke-linecap="round" stroke-linejoin="round" stroke-miterlimit="10" stroke-width="1"/>
        <path id="Trazado_1174626" data-name="Trazado 1174626" d="M210.048,145h1.906a2.29,2.29,0,0,1,2.29,2.29v.936a2.29,2.29,0,0,1-2.29,2.29h-1.743" transform="translate(-183.083 -132.077)" fill="none" stroke="#000" stroke-linecap="round" stroke-linejoin="round" stroke-miterlimit="10" stroke-width="1"/>
        <line id="Línea_3640" data-name="Línea 3640" y2="3.684" transform="translate(21.345 26.974)" fill="none" stroke="#000" stroke-linecap="round" stroke-linejoin="round" stroke-miterlimit="10" stroke-width="1"/>
        <line id="Línea_3641" data-name="Línea 3641" y1="3.684" transform="translate(14.05 26.974)" fill="none" stroke="#000" stroke-linecap="round" stroke-linejoin="round" stroke-miterlimit="10" stroke-width="1"/>
        <path id="Trazado_1174627" data-name="Trazado 1174627" d="M320.487,147.3v5.343a8.552,8.552,0,0,1-8.553,8.553H310.5a8.552,8.552,0,0,1-8.552-8.553V147.3" transform="translate(-262.752 -134.068)" fill="none" stroke="#000" stroke-linecap="round" stroke-linejoin="round" stroke-miterlimit="10" stroke-width="1"/>
        <path id="Trazado_1174628" data-name="Trazado 1174628" d="M89.36,147.085v5.372a8.552,8.552,0,0,1-8.553,8.553h-1.43a8.552,8.552,0,0,1-8.553-8.553v-5.372" transform="translate(-62.395 -133.883)" fill="none" stroke="#000" stroke-linecap="round" stroke-linejoin="round" stroke-miterlimit="10" stroke-width="1"/>
        <line id="Línea_3642" data-name="Línea 3642" x2="0.444" transform="translate(13.382 15.701)" fill="none" stroke="#000" stroke-linecap="round" stroke-linejoin="round" stroke-miterlimit="10" stroke-width="1"/>
        <line id="Línea_3643" data-name="Línea 3643" x2="0.444" transform="translate(21.569 15.701)" fill="none" stroke="#000" stroke-linecap="round" stroke-linejoin="round" stroke-miterlimit="10" stroke-width="1"/>
        <path id="Trazado_1174629" data-name="Trazado 1174629" d="M122.784,211.2l.219.118a4.207,4.207,0,0,0,4.193-.118h0" transform="translate(-107.436 -189.464)" fill="none" stroke="#000" stroke-linecap="round" stroke-linejoin="round" stroke-miterlimit="10" stroke-width="1"/>
        <path id="Trazado_1174630" data-name="Trazado 1174630" d="M76.894,51.219a8.966,8.966,0,0,1,2.038,5.706v3.921H74.366a4.711,4.711,0,0,1-3.119-1.18l-1.869-1.651a2.426,2.426,0,0,0-3.212,0L64.3,59.665a4.711,4.711,0,0,1-3.119,1.18H56.613V56.925a9,9,0,0,1,9-9h4.312a8.966,8.966,0,0,1,4.211,1.043" transform="translate(-50.075 -47.921)" fill="none" stroke="#000" stroke-linecap="round" stroke-linejoin="round" stroke-miterlimit="10" stroke-width="1"/>
        <path id="Trazado_1174631" data-name="Trazado 1174631" d="M8.8,322.456a3.713,3.713,0,0,0-1.3,2.824V338.5a2.814,2.814,0,0,0,2.814,2.815H20.3" transform="translate(-7.5 -285.907)" fill="none" stroke="#000" stroke-linecap="round" stroke-linejoin="round" stroke-miterlimit="10" stroke-width="1"/>
        <path id="Trazado_1174632" data-name="Trazado 1174632" d="M94.8,302.955h18.88V286.924a3.712,3.712,0,0,0-2.191-3.386L99.629,278.21l-1.636,1.415a3.075,3.075,0,0,1-4.024,0l-1.636-1.415-3.18,1.428" transform="translate(-78.283 -247.552)" fill="none" stroke="#000" stroke-linecap="round" stroke-linejoin="round" stroke-miterlimit="10" stroke-width="1"/>
        <g id="Grupo_1222311" data-name="Grupo 1222311" transform="translate(8.43 48.155)">
          <line id="Línea_3644" data-name="Línea 3644" y2="7.248" fill="none" stroke="#000" stroke-linecap="round" stroke-linejoin="round" stroke-miterlimit="10" stroke-width="1"/>
          <line id="Línea_3645" data-name="Línea 3645" y2="7.248" transform="translate(18.535)" fill="none" stroke="#000" stroke-linecap="round" stroke-linejoin="round" stroke-miterlimit="10" stroke-width="1"/>
        </g>
        <line id="Línea_3646" data-name="Línea 3646" y2="7.248" transform="translate(57.735 48.155)" fill="none" stroke="#000" stroke-linecap="round" stroke-linejoin="round" stroke-miterlimit="10" stroke-width="1"/>
        <path id="Trazado_1174633" data-name="Trazado 1174633" d="M36.115,274.66h3.851a1.574,1.574,0,0,1,1.574,1.574V278.3a2.588,2.588,0,0,1-2.588,2.588H37.129a2.588,2.588,0,0,1-2.588-2.588v-2.063A1.574,1.574,0,0,1,36.115,274.66Z" transform="translate(-30.941 -244.474)" fill="none" stroke="#000" stroke-linecap="round" stroke-linejoin="round" stroke-miterlimit="10" stroke-width="1"/>
      </g>
    </g>
  </g>
</svg>
