<svg xmlns="http://www.w3.org/2000/svg" xmlns:xlink="http://www.w3.org/1999/xlink" width="113" height="113" viewBox="0 0 113 113">
  <defs>
    <filter id="Trazado_982547" x="0" y="0" width="113" height="113" filterUnits="userSpaceOnUse">
      <feOffset dy="3" input="SourceAlpha"/>
      <feGaussianBlur stdDeviation="3" result="blur"/>
      <feFlood flood-opacity="0.161"/>
      <feComposite operator="in" in2="blur"/>
      <feComposite in="SourceGraphic"/>
    </filter>
  </defs>
  <g id="Grupo_1222316" data-name="Grupo 1222316" transform="translate(-2818.5 -3651.131)">
    <g id="Grupo_1222268" data-name="Grupo 1222268" transform="translate(2022.5 2404.241)">
      <g id="Grupo_1202142" data-name="Grupo 1202142" transform="translate(805 1252.89)">
        <g id="Grupo_1201923" data-name="Grupo 1201923" transform="translate(0 0)">
          <g id="Grupo_1176928" data-name="Grupo 1176928" transform="translate(0 0)">
            <g id="Grupo_1172322" data-name="Grupo 1172322">
              <g id="Grupo_1164700" data-name="Grupo 1164700">
                <g id="Grupo_1160931" data-name="Grupo 1160931">
                  <g id="Grupo_1160749" data-name="Grupo 1160749">
                    <g id="Grupo_1158891" data-name="Grupo 1158891">
                      <g id="Grupo_1157406" data-name="Grupo 1157406">
                        <g id="Grupo_1155793" data-name="Grupo 1155793">
                          <g id="Grupo_1154704" data-name="Grupo 1154704">
                            <g id="Grupo_1150790" data-name="Grupo 1150790">
                              <g id="Grupo_1154214" data-name="Grupo 1154214" transform="translate(0)">
                                <g id="Grupo_1152583" data-name="Grupo 1152583">
                                  <g id="Grupo_1146973" data-name="Grupo 1146973">
                                    <g id="Grupo_1146954" data-name="Grupo 1146954">
                                      <g transform="matrix(1, 0, 0, 1, -9, -6)" filter="url(#Trazado_982547)">
                                        <g id="Trazado_982547-2" data-name="Trazado 982547" transform="translate(9 6)" fill="#f2f4f0">
                                          <path d="M 47.50000762939453 93.49986267089844 C 41.28937911987305 93.49986267089844 35.26534271240234 92.28383636474609 29.59519386291504 89.88558197021484 C 24.11772727966309 87.56880950927734 19.19814109802246 84.25183868408203 14.97310066223145 80.02679443359375 C 10.74804782867432 75.8017578125 7.431074142456055 70.88218688964844 5.114300727844238 65.40471649169922 C 2.716034412384033 59.73458480834961 1.500007629394531 53.71054458618164 1.500007629394531 47.49993133544922 C 1.500007629394531 41.2893180847168 2.716034412384033 35.26527786254883 5.114300727844238 29.59514427185059 C 7.431074142456055 24.11767768859863 10.74804782867432 19.19810485839844 14.97310066223145 14.97306442260742 C 19.19814109802246 10.74802494049072 24.11772727966309 7.431051254272461 29.59519386291504 5.114277839660645 C 35.26534271240234 2.71602463722229 41.28937911987305 1.499997973442078 47.50000762939453 1.499997973442078 C 53.71063613891602 1.499997973442078 59.73467254638672 2.71602463722229 65.40482330322266 5.114277839660645 C 70.88228607177734 7.431051254272461 75.80187225341797 10.74802494049072 80.02691650390625 14.97306442260742 C 84.25196838378906 19.19810485839844 87.56893920898438 24.11767768859863 89.88571166992188 29.59514427185059 C 92.28398132324219 35.26527786254883 93.50000762939453 41.2893180847168 93.50000762939453 47.49993133544922 C 93.50000762939453 53.71054458618164 92.28398132324219 59.73458480834961 89.88571166992188 65.40471649169922 C 87.56893920898438 70.88218688964844 84.25196838378906 75.8017578125 80.02691650390625 80.02679443359375 C 75.80187225341797 84.25183868408203 70.88228607177734 87.56880950927734 65.40482330322266 89.88558197021484 C 59.73467254638672 92.28383636474609 53.71063613891602 93.49986267089844 47.50000762939453 93.49986267089844 Z" stroke="none"/>
                                          <path d="M 47.50000762939453 2.999992370605469 C 41.4912223815918 2.999992370605469 35.66377639770508 4.1761474609375 30.17951202392578 6.495796203613281 C 24.88085174560547 8.736930847167969 20.12152862548828 11.94596099853516 16.03376007080078 16.03372955322266 C 11.94597625732422 20.12148284912109 8.736961364746094 24.88080596923828 6.495803833007812 30.17946624755859 C 4.176162719726562 35.66371536254883 3.000007629394531 41.49116134643555 3.000007629394531 47.49993133544922 C 3.000007629394531 53.50870132446289 4.176162719726562 59.33614730834961 6.495803833007812 64.82038879394531 C 8.736961364746094 70.11905670166016 11.94597625732422 74.87836456298828 16.03376007080078 78.96613311767578 C 20.12152862548828 83.05390167236328 24.88085174560547 86.26291656494141 30.17951202392578 88.50406646728516 C 35.66377639770508 90.82369995117188 41.4912223815918 91.99985504150391 47.50000762939453 91.99985504150391 C 53.50879287719727 91.99985504150391 59.33623886108398 90.82369995117188 64.82049560546875 88.50406646728516 C 70.11916351318359 86.26291656494141 74.87848663330078 83.05390167236328 78.96625518798828 78.96613311767578 C 83.05403900146484 74.87836456298828 86.26305389404297 70.11905670166016 88.50421142578125 64.82038879394531 C 90.8238525390625 59.33614730834961 92.00000762939453 53.50870132446289 92.00000762939453 47.49993133544922 C 92.00000762939453 41.49116134643555 90.8238525390625 35.66371536254883 88.50421142578125 30.17946624755859 C 86.26305389404297 24.88080596923828 83.05403900146484 20.12148284912109 78.96625518798828 16.03372955322266 C 74.87848663330078 11.94596099853516 70.11916351318359 8.736930847167969 64.82049560546875 6.495796203613281 C 59.33623886108398 4.1761474609375 53.50879287719727 2.999992370605469 47.50000762939453 2.999992370605469 M 47.50000762939453 -7.62939453125e-06 C 73.73352813720703 -7.62939453125e-06 95.00000762939453 21.26644134521484 95.00000762939453 47.49993133544922 C 95.00000762939453 73.73342132568359 73.73352813720703 94.99985504150391 47.50000762939453 94.99985504150391 C 21.26648712158203 94.99985504150391 7.62939453125e-06 73.73342132568359 7.62939453125e-06 47.49993133544922 C 7.62939453125e-06 21.26644134521484 21.26648712158203 -7.62939453125e-06 47.50000762939453 -7.62939453125e-06 Z" stroke="none" fill="#899e78"/>
                                        </g>
                                      </g>
                                    </g>
                                  </g>
                                </g>
                              </g>
                            </g>
                          </g>
                        </g>
                      </g>
                    </g>
                  </g>
                </g>
              </g>
            </g>
          </g>
        </g>
      </g>
    </g>
    <g id="blindfold_6333063" transform="translate(2842.086 3670.623)">
      <g id="Grupo_1222314" data-name="Grupo 1222314" transform="translate(0.978 1.664)">
        <path id="Trazado_1174634" data-name="Trazado 1174634" d="M239.253,191.939a4.214,4.214,0,1,0-7.463,1.241,4.214,4.214,0,1,0,7.463-1.241Z" transform="translate(-201.828 -163.242)" fill="#a65d4e"/>
        <path id="Trazado_1174635" data-name="Trazado 1174635" d="M111.023,143.756c-1.635-.743-3.381-2.131-3.381-4.1a3.161,3.161,0,0,1,3.381-3.033h18.6a3.05,3.05,0,0,1,3.25,3.033c0,1.966-1.615,3.353-3.25,4.1Z" transform="translate(-94.568 -119.862)" fill="#d09180"/>
        <path id="Trazado_1174636" data-name="Trazado 1174636" d="M387.4,8.26a5.446,5.446,0,0,0-4.419,1.074,3.916,3.916,0,0,0-.569,4.816c4.995,2.343,7.256-3.622,4.988-5.889Z" transform="translate(-332.975 -8.187)" fill="#ebae9d"/>
        <path id="Trazado_1174637" data-name="Trazado 1174637" d="M80.307,135.661H76.391a36.289,36.289,0,0,1-3.3,7.25,5.415,5.415,0,0,1-1.265,1.179s-.442,2.849-4.47,2.849c-1.344.783-2.737,1.557-3.959,2.223l-4.665,4.115H46.988l-5.921,1.709a15.4,15.4,0,0,0-5.183,2.639c-2.373,1.845-5.242,6.128-7.33,9.9l18.317,7.831,17.607-16.422c2.085-1.667,11.3-8.867,13.191-12.744A38.81,38.81,0,0,0,80.307,135.661Z" transform="translate(-25.804 -119.023)" fill="#ebae9d"/>
        <path id="Trazado_1174638" data-name="Trazado 1174638" d="M82.656,9.822a4.349,4.349,0,0,0-2.424-1.074,4.275,4.275,0,0,1-4.988,5.889,3.914,3.914,0,0,0,3.338,1.869,54.985,54.985,0,0,1-2.191,8.807L78.936,26.7a48.366,48.366,0,0,1-1.957,7.044h-5.15a50.951,50.951,0,0,1-4.47,2.849,8.128,8.128,0,0,0,6.107,2.1,93.112,93.112,0,0,1-8.987,8.073l-1.826-5.622a7.049,7.049,0,0,0,.747-2.327c-2.09,1.137-3.683,1.956-3.683,1.956l-4.234-2.38-7.847.436v3.916l-.647.187c.2.21.409.4.613.574a10.915,10.915,0,0,0,6.569,2.883,7.574,7.574,0,0,0,2.472-.464V57.839L38.584,54.955a14.381,14.381,0,0,1,.874-1.683.979.979,0,0,0-1.677-1.01,12.151,12.151,0,0,0-2.142,6.926l-7.083-2.007v7.831H61.23l4.146-15.6s11.4-8.647,13.861-13.565C81.53,31.26,84.9,12.065,82.656,9.822Z" transform="translate(-25.804 -8.675)" fill="#d09180"/>
        <path id="Trazado_1174639" data-name="Trazado 1174639" d="M110.532,368.229v-5.47H99.578a9.422,9.422,0,0,0-.825,4.835l2.24,1.94Z" transform="translate(-86.798 -316.479)" fill="#bed9fd"/>
        <path id="Trazado_1174640" data-name="Trazado 1174640" d="M99.071,399.8a10.534,10.534,0,0,0,.935,3.245l1.7.529,9.146-2.083v-1.057h-7.21A16.757,16.757,0,0,1,99.071,399.8Z" transform="translate(-87.116 -348.686)" fill="#9ec8fc"/>
        <path id="Trazado_1174641" data-name="Trazado 1174641" d="M164.413,285.163l-.941-8.119-4.383,2.614c-1.352,3.975-4.24,8.854-10.12,14.043l11.3,1.305A29.728,29.728,0,0,0,164.413,285.163Z" transform="translate(-130.5 -241.952)" fill="#faf8f8"/>
        <path id="Trazado_1174642" data-name="Trazado 1174642" d="M230.39,249.058l1.437,4.424V242.366a2.685,2.685,0,0,0-2.52-1.759,2.6,2.6,0,0,0-1.608.811l-.106.309a19.425,19.425,0,0,1-1.091,6.25,7.222,7.222,0,0,0,1.583-.253A1.889,1.889,0,0,1,230.39,249.058Z" transform="translate(-197.914 -210.271)" fill="#e1dee2"/>
        <path id="Trazado_1174643" data-name="Trazado 1174643" d="M134.421,404.665h-11.3q-1.466,1.294-3.187,2.611l-.694.529,9.622,3,5.56-4.834Z" transform="translate(-104.652 -352.915)" fill="#e1dee2"/>
        <path id="Trazado_1174644" data-name="Trazado 1174644" d="M235.082,329.786l-5.02-12.742a38.684,38.684,0,0,1-4.507,11.437Z" transform="translate(-197.091 -276.731)" fill="#bed9fd"/>
        <path id="Trazado_1174645" data-name="Trazado 1174645" d="M19.226,388.892a9.607,9.607,0,0,0,7.018,2.61,2.12,2.12,0,0,0,2.263-2.263L27.2,385.7c-.3-.023-.626-.032-.958-.032H20.37l-10.139-5.854a41.076,41.076,0,0,0-2.52,5.269A3.786,3.786,0,0,0,7.53,387a4.5,4.5,0,0,0,3.759,1.892Z" transform="translate(-7.48 -331.31)" fill="#ebae9d"/>
        <path id="Trazado_1174646" data-name="Trazado 1174646" d="M27.533,424.909v3.536c0,.578-.181.958-.958.958a9.607,9.607,0,0,1-7.018-2.61H11.621a11.919,11.919,0,0,1-3.759-.587,3.807,3.807,0,0,0,3.759,3.2h7.937a8.569,8.569,0,0,0,7.018,3.916c2.169,0,3.568-.292,3.568-2.263V427.14C30.144,425.5,29.039,425.024,27.533,424.909Z" transform="translate(-7.812 -370.517)" fill="#d09180"/>
        <path id="Trazado_1174647" data-name="Trazado 1174647" d="M326.894,192.389a1.031,1.031,0,0,0,0-1.179h-6.653a1.113,1.113,0,0,0-.635,1.968C322.307,194.815,324.593,194.391,326.894,192.389Z" transform="translate(-278.523 -167.321)" fill="#ffd064"/>
        <path id="Trazado_1174648" data-name="Trazado 1174648" d="M330.6,191.21h-1.076a1.132,1.132,0,0,1-.377.663c-2.3,2-4.6,2.391-6.91,1.305,2.985,2.6,6.014,2.6,9,0A1.113,1.113,0,0,0,330.6,191.21Z" transform="translate(-281.157 -167.321)" fill="#ebb044"/>
        <path id="Trazado_1174649" data-name="Trazado 1174649" d="M437.136,252.389a1.031,1.031,0,0,0,0-1.179h-6.653a1.113,1.113,0,0,0-.635,1.968C432.549,254.815,434.835,254.391,437.136,252.389Z" transform="translate(-374.376 -219.49)" fill="#ffd064"/>
        <path id="Trazado_1174650" data-name="Trazado 1174650" d="M440.847,251.21H439.77a1.132,1.132,0,0,1-.378.663c-2.3,2-4.6,2.391-6.91,1.305,2.985,2.6,6.014,2.6,9,0A1.113,1.113,0,0,0,440.847,251.21Z" transform="translate(-377.01 -219.49)" fill="#ebb044"/>
        <path id="Trazado_1174651" data-name="Trazado 1174651" d="M150.838,78.6V72.235c0-4.311-1.665-8.239-4.516-10.248a19.779,19.779,0,0,0-3.48-.3c-6.363,0-9.3,2.726-9.3,2.726v7.819l.71.3s-.71,1.211-.71,4.852V78.6a7.4,7.4,0,0,0,2.732,5.713,10.915,10.915,0,0,0,6.569,2.883,10.5,10.5,0,0,0,5.554-2.883A7.742,7.742,0,0,0,150.838,78.6Z" transform="translate(-117.088 -54.707)" fill="#ebae9d"/>
        <path id="Trazado_1174652" data-name="Trazado 1174652" d="M214.1,66.4a12.123,12.123,0,0,0-5.821-2.429,19.378,19.378,0,0,1,3.21,10.248v6.366a7.743,7.743,0,0,1-2.441,5.713,14.708,14.708,0,0,1-4.249,2.883,10.915,10.915,0,0,0,6.569-2.883,7.4,7.4,0,0,0,2.732-5.713V79.369c0-3.641-.71-4.852-.71-4.852l.71-.3Z" transform="translate(-179.043 -56.687)" fill="#d09180"/>
        <path id="Trazado_1174653" data-name="Trazado 1174653" d="M142.843,112.75a35.568,35.568,0,0,1,8,.763s0-3.519-1.692-4.893a16.794,16.794,0,0,0-6.3-1c-6.264,0-9.3,2.017-9.3,4.55v1.546C135.186,112.973,137.59,112.75,142.843,112.75Z" transform="translate(-117.089 -94.642)" fill="#bed9fd"/>
        <path id="Trazado_1174654" data-name="Trazado 1174654" d="M152.143,118.832c0-1.444-.988-2.719-3-3.55a17.031,17.031,0,0,1,.333,2.237.979.979,0,0,1-1.155,1.041,30.47,30.47,0,0,0-5.482-.453c-5.254,0-8.319.947-9.3,2.271v3.608c0-1.82,3.037-3.269,9.3-3.269s9.3,1.449,9.3,3.269Z" transform="translate(-117.088 -101.304)" fill="#9ec8fc"/>
        <path id="Trazado_1174655" data-name="Trazado 1174655" d="M235.05,45.012a3.672,3.672,0,0,0-2-3.436c.449,1.317.307,2.7-.523,3.2s-2.491-.092-3.928-1.348l-.134,2.25c1.318,1.83,4.456,2.072,4.456,2.072,1.246,1.313,1.756,5.076,1.756,7C234.672,54.746,239.39,49.005,235.05,45.012Z" transform="translate(-199.617 -37.218)" fill="#a65d4e"/>
        <path id="Trazado_1174656" data-name="Trazado 1174656" d="M233.417,40.792c.83-.494.971-1.879.523-3.2a5.453,5.453,0,0,0-4.324-.274l-.127,2.122C230.926,40.7,232.585,41.288,233.417,40.792Z" transform="translate(-200.512 -33.239)" fill="#b46e5a"/>
        <path id="Trazado_1174657" data-name="Trazado 1174657" d="M124.822,35.473c1.629,1.288,4.986,1.23,5.97,0a3.79,3.79,0,0,0,.655-3.223,4.345,4.345,0,0,0-3.35-1.085c-2.212,0-5.027,1.726-8.486,1.726a3.8,3.8,0,0,0-1.192,3.069c-4.34,3.993.378,9.734.378,9.734,0-1.925.51-5.688,1.756-7C120.553,38.693,123.682,37.759,124.822,35.473Z" transform="translate(-102.343 -28.166)" fill="#b46e5a"/>
        <path id="Trazado_1174658" data-name="Trazado 1174658" d="M148.982,39.479a3.927,3.927,0,0,1-1.306,2.253,4.444,4.444,0,0,1-4.753-.081.978.978,0,0,0-1.369.266c-1.22,1.779-2.67,1.775-3.846,1.9-1.376.145-1.285,2.2.38,2.106,0,0,3.138-.241,4.456-2.072,1.178,1.178,5.017,1.16,6.177,0A3.611,3.611,0,0,0,148.982,39.479Z" transform="translate(-119.877 -35.395)" fill="#a65d4e"/>
        <path id="Trazado_1174659" data-name="Trazado 1174659" d="M210.639,278.64l-7.976-24.557a38.608,38.608,0,0,1-.941,8.218l3.3,10.156a.979.979,0,0,1-.931,1.281h-6.875c-.522.874-1.089,1.747-1.712,2.611l-2.543,3.529,3.2,1Z" transform="translate(-168.75 -221.988)" fill="#9ec8fc"/>
        <path id="Trazado_1174660" data-name="Trazado 1174660" d="M215.344,432.549c-2.83-2.238-5.951-3.208-10.358-3.208H179.792a29.869,29.869,0,0,0-.246,3.916l25.44,1.958,10.729-1.958A.905.905,0,0,0,215.344,432.549Z" transform="translate(-157.087 -374.37)" fill="#faf8f8"/>
        <path id="Trazado_1174661" data-name="Trazado 1174661" d="M212.855,459.341H179.546c0,.658.02,1.315.059,1.958,0,0,21.133,1.305,25.381,1.305A10.958,10.958,0,0,0,212.855,459.341Z" transform="translate(-157.087 -400.455)" fill="#e1dee2"/>
        <path id="Trazado_1174662" data-name="Trazado 1174662" d="M213.247,459.341a14.159,14.159,0,0,1-7.869,1.958H180c.041.675.1,1.334.187,1.958h25.194c4.408,0,7.529-.97,10.358-3.208a.905.905,0,0,0,.371-.708Z" transform="translate(-157.479 -400.455)" fill="#c5bec6"/>
      </g>
      <g id="Grupo_1222315" data-name="Grupo 1222315" transform="translate(0.002 0.685)">
        <path id="Trazado_1174663" data-name="Trazado 1174663" d="M66.686,33.725a2.02,2.02,0,0,0-1.074-1.151L61.9,18.632a.979.979,0,0,0-.478-.608l-2.847-1.549q.113-.689.218-1.384a62.679,62.679,0,0,0,.754-7.9c.031-1.857-.058-4.113-1.021-5.076A5.822,5.822,0,0,0,54.408.685a5.822,5.822,0,0,0-4.114,1.434,4.9,4.9,0,0,0,2.482,8.258v2.944l-5.748-3.128a.979.979,0,0,0-1.414.608L41.9,24.742a2.02,2.02,0,0,0-1.074,1.151,2.123,2.123,0,0,0,.594,2.367c.2.173.4.335.6.488-.85.495-1.721.987-2.557,1.451l-.007-.012a5.187,5.187,0,0,0-1.4-4.686,5.053,5.053,0,0,0,2.21-4.039A3.826,3.826,0,0,0,38.02,17.9a11.708,11.708,0,0,0,.759-1.773,6.615,6.615,0,0,0-1.4-7.1,4.556,4.556,0,0,0-2.064-3.61,6.448,6.448,0,0,0-4.988-.781,6.161,6.161,0,0,0-3.59-.956,8.591,8.591,0,0,0-2.28.371.979.979,0,1,0,.517,1.888,6.8,6.8,0,0,1,1.763-.3,3.577,3.577,0,0,1,2.58.712,2.637,2.637,0,0,1-.184,3.074c-.784.784-4.009.784-4.793,0a.979.979,0,0,0-1.487.12c-.856,1.189-2.989,1.607-3.737,1.668a.979.979,0,0,0-.635.3,9.231,9.231,0,0,0-1.737,4.532c-.069-.172-.135-.35-.2-.533a4.71,4.71,0,0,1,1.172-5.338.979.979,0,0,0,.316-.72,3.038,3.038,0,0,1,.623-2.1,13.5,13.5,0,0,0,2.263-.283.979.979,0,1,0-.4-1.917,11.191,11.191,0,0,1-2.277.25.978.978,0,0,0-.643.241,4.571,4.571,0,0,0-1.517,3.382,6.615,6.615,0,0,0-1.4,7.1,11.679,11.679,0,0,0,.749,1.753,4.347,4.347,0,0,0-.924.563,3.8,3.8,0,0,0-1.438,3.017c0,1.861,1.216,3.546,3.36,4.694a4.925,4.925,0,0,1-.8,2.449,4.609,4.609,0,0,0-.789,2.524,4.032,4.032,0,0,0,1.682,3.057.979.979,0,0,0,1.26-1.5,2.355,2.355,0,0,1-.984-1.558,2.744,2.744,0,0,1,.524-1.541l.094-.163a8.906,8.906,0,0,0,2.11,2.593,15.6,15.6,0,0,0,2.3,1.627v1.351l-5.86,1.692a16.457,16.457,0,0,0-2.124.775.979.979,0,1,0,.8,1.788,14.476,14.476,0,0,1,1.87-.683l6.568-1.9a.979.979,0,0,0,.707-.941V34.563a8.665,8.665,0,0,0,2.945.569,8.618,8.618,0,0,0,2.881-.546c-.4,4.638-2.639,8.851-5.4,12.379H15.354c.039-.066.076-.132.116-.2a.979.979,0,0,0-1.677-1.01,15.154,15.154,0,0,0-.91,1.751.955.955,0,0,0-.052.125,10.244,10.244,0,0,0-.706,6.255l-7.067-4.08c.333-.581.677-1.161,1.025-1.726a28.5,28.5,0,0,1,5.578-7.043.979.979,0,0,0-1.2-1.546C6.568,42.517,1.663,51.32.289,55.1a4.787,4.787,0,0,0,4.5,6.424h7.419a9.421,9.421,0,0,0,7.536,3.916,6.905,6.905,0,0,0,3.02-.495c.088.58.194,1.13.32,1.636a.979.979,0,1,0,1.9-.471c-.053-.214-.1-.439-.148-.671H35.9a.979.979,0,1,0,0-1.958H24.552c-.063-.632-.1-1.291-.125-1.958H53.183a.979.979,0,0,0,0-1.958H24.427c.02-.667.062-1.326.125-1.958H48.877c4.139,0,7.039.879,9.675,2.937-2.635,2.058-5.536,2.937-9.675,2.937H39.813a.979.979,0,0,0,0,1.958h9.063c4.594,0,7.976-1.055,10.965-3.419a1.838,1.838,0,0,0,0-2.951c-2.99-2.365-6.371-3.419-10.965-3.419H43.032L40.286,47.2l1.124-4.228c.789-.609,3.2-2.5,5.794-4.777,4.286-3.768,7.005-6.771,8.082-8.924.935-1.87,2.056-6.043,2.93-10.765l1.59.865-3.517,13.2a2.02,2.02,0,0,0-1.074,1.151,2.123,2.123,0,0,0,.594,2.367,7.855,7.855,0,0,0,5.142,2.194,7.855,7.855,0,0,0,5.142-2.194,2.122,2.122,0,0,0,.594-2.366ZM54.734,9.5a.979.979,0,0,0-.979-.979A2.937,2.937,0,0,1,51.679,3.5a4.76,4.76,0,0,1,5.458,0c.341.354.952,3.08-.289,11.33q-.049.325-.1.649l-2.014-1.1Zm-8.174,5.358,2.591,9.721H43.97Zm3.915,11.791a.159.159,0,0,1-.059.138c-2.631,2.289-5.082,2.289-7.713,0a.159.159,0,0,1-.059-.138.131.131,0,0,1,.051-.113h7.738a.174.174,0,0,1,.042.113Zm-15.2,5.811a3.688,3.688,0,0,0-.9-.834A8.431,8.431,0,0,0,36.864,27.1a3.227,3.227,0,0,1,.6,2.978.979.979,0,0,0,.142.85c.048.067.093.137.136.208-1.007.545-1.875,1-2.468,1.316ZM26.733,20.1c-4.331,0-6.857.647-8.322,1.467V19.194h0c0-2.169,3.266-3.571,8.322-3.571s8.322,1.4,8.322,3.571v2.373c-1.464-.82-3.991-1.467-8.322-1.467Zm10.279,3.724V19.578A1.989,1.989,0,0,1,38.3,21.462,3.082,3.082,0,0,1,37.012,23.822ZM34.225,7.05a2.711,2.711,0,0,1,1.206,2.408.979.979,0,0,0,.316.72c2,1.839,1.685,4.16.981,5.9a9.268,9.268,0,0,0-1.741-4.557.983.983,0,0,0-.633-.3A6.769,6.769,0,0,1,31.1,10.048a4.773,4.773,0,0,0,.389-3.629,4.42,4.42,0,0,1,2.74.632ZM19.7,13.116A8.233,8.233,0,0,0,23.8,11.4a7.648,7.648,0,0,0,5.859,0,8.234,8.234,0,0,0,4.1,1.722,7.091,7.091,0,0,1,.829,2.22c-.13-.08-.263-.158-.4-.232a16.11,16.11,0,0,0-7.459-1.44,16.109,16.109,0,0,0-7.459,1.44c-.14.074-.273.152-.4.232a7.091,7.091,0,0,1,.829-2.22Zm-4.67,8.346a1.948,1.948,0,0,1,1.423-1.883v4.263A3.141,3.141,0,0,1,15.03,21.462ZM20.8,30.525a6.42,6.42,0,0,1-2.386-4.967V24.346c0-.478.625-1,1.672-1.4a17.468,17.468,0,0,1,5.671-.875v.821a.979.979,0,1,0,1.958,0v-.82c5.327.143,7.343,1.44,7.343,2.276v1.212a6.42,6.42,0,0,1-2.387,4.967,9.983,9.983,0,0,1-5.935,2.651A9.983,9.983,0,0,1,20.8,30.525Zm1.773,18.4a50.214,50.214,0,0,1-6.644,6.122H14.515a8.054,8.054,0,0,1-.1-6.122ZM22.331,62.2c0,.844-.115,1.284-2.589,1.284a7.519,7.519,0,0,1-6.175-3.434.979.979,0,0,0-.843-.482H4.787a2.829,2.829,0,0,1-2.657-3.8A36.291,36.291,0,0,1,4.11,51.522l9.268,5.351a.979.979,0,0,0,.489.131h5.874c2.409,0,2.589.508,2.589,1.284V62.2Zm2.5-6.547c.046-.232.095-.456.148-.671a.979.979,0,0,0-1.9-.471c-.087.351-.164.724-.233,1.112a6.589,6.589,0,0,0-3.106-.581h-.693a46.377,46.377,0,0,0,6.416-6.477l0,0a32.4,32.4,0,0,0,3.5-5.331,22.38,22.38,0,0,0,2.655-9.585q.514-.3,1.022-.646a1.714,1.714,0,0,1,1.262.949,38.654,38.654,0,0,1-4.982,18.406.979.979,0,1,0,1.7.973A40.38,40.38,0,0,0,35.5,38.818l5.469,16.838H24.834ZM53.535,28.4c-.949,1.9-3.581,4.774-7.614,8.321-3.1,2.723-5.935,4.88-5.963,4.9a.979.979,0,0,0-.355.528l-.431,1.623-3.095-9.528c1.482-.776,4.929-2.607,7.859-4.355a6.58,6.58,0,0,0,2.624.565A7.855,7.855,0,0,0,51.7,28.26a2.123,2.123,0,0,0,.594-2.367,2.02,2.02,0,0,0-1.074-1.151l-.47-1.763a42.962,42.962,0,0,0,1.739-4.362.979.979,0,0,0-1.854-.63q-.337.992-.7,1.925L48.093,13l5.192,2.826.007,0L56.4,17.524c-.851,4.763-1.981,9.1-2.87,10.875Zm10.006,4.006H58.36l2.591-9.721Zm1.266,2.209c-2.631,2.289-5.082,2.289-7.713,0a.159.159,0,0,1-.059-.138.132.132,0,0,1,.051-.113h7.738a.172.172,0,0,1,.042.113.159.159,0,0,1-.059.138Z" transform="translate(-0.002 -0.685)"/>
        <path id="Trazado_1174664" data-name="Trazado 1174664" d="M180.952,193.223a11.6,11.6,0,0,1-7.4,0,.979.979,0,1,1,.764-1.8,9.791,9.791,0,0,0,5.876,0,.979.979,0,1,1,.764,1.8Z" transform="translate(-150.376 -166.457)"/>
      </g>
    </g>
  </g>
</svg>
