<svg xmlns="http://www.w3.org/2000/svg" xmlns:xlink="http://www.w3.org/1999/xlink" width="113" height="113" viewBox="0 0 113 113">
  <defs>
    <filter id="Trazado_982547" x="0" y="0" width="113" height="113" filterUnits="userSpaceOnUse">
      <feOffset dy="3" input="SourceAlpha"/>
      <feGaussianBlur stdDeviation="3" result="blur"/>
      <feFlood flood-opacity="0.161"/>
      <feComposite operator="in" in2="blur"/>
      <feComposite in="SourceGraphic"/>
    </filter>
  </defs>
  <g id="Grupo_1222286" data-name="Grupo 1222286" transform="translate(-323.75 -7155.015)">
    <g id="Grupo_1207753" data-name="Grupo 1207753" transform="translate(332.75 7161.015)">
      <g id="Grupo_1202185" data-name="Grupo 1202185">
        <g id="Grupo_1174813" data-name="Grupo 1174813">
          <g id="Grupo_1201680" data-name="Grupo 1201680">
            <g id="Grupo_1201330" data-name="Grupo 1201330">
              <g id="Grupo_1172010" data-name="Grupo 1172010">
                <g id="Grupo_1171046" data-name="Grupo 1171046">
                  <g id="Grupo_1148525" data-name="Grupo 1148525">
                    <g transform="matrix(1, 0, 0, 1, -9, -6)" filter="url(#Trazado_982547)">
                      <g id="Trazado_982547-2" data-name="Trazado 982547" transform="translate(9 6)" fill="#fcf5f0">
                        <path d="M 47.5 93.5 C 41.28937149047852 93.5 35.26533508300781 92.28397369384766 29.59518623352051 89.88570404052734 C 24.11771965026855 87.56893157958984 19.19813346862793 84.25196075439453 14.97309303283691 80.02691650390625 C 10.74804019927979 75.80186462402344 7.431066513061523 70.88229370117188 5.114293098449707 65.40481567382812 C 2.716026782989502 59.73468017578125 1.5 53.71062850952148 1.5 47.5 C 1.5 41.28937149047852 2.716026782989502 35.26533508300781 5.114293098449707 29.59518623352051 C 7.431066513061523 24.11771965026855 10.74804019927979 19.19813346862793 14.97309303283691 14.97309303283691 C 19.19813346862793 10.74804019927979 24.11771965026855 7.431066513061523 29.59518623352051 5.114293098449707 C 35.26533508300781 2.716026782989502 41.28937149047852 1.5 47.5 1.5 C 53.71062850952148 1.5 59.73468017578125 2.716026782989502 65.40481567382812 5.114293098449707 C 70.88229370117188 7.431066513061523 75.80186462402344 10.74804019927979 80.02691650390625 14.97309303283691 C 84.25196075439453 19.19813346862793 87.56893157958984 24.11771965026855 89.88570404052734 29.59518623352051 C 92.28397369384766 35.26533508300781 93.5 41.28937149047852 93.5 47.5 C 93.5 53.71062850952148 92.28397369384766 59.73468017578125 89.88570404052734 65.40481567382812 C 87.56893157958984 70.88229370117188 84.25196075439453 75.80186462402344 80.02691650390625 80.02691650390625 C 75.80186462402344 84.25196075439453 70.88229370117188 87.56893157958984 65.40481567382812 89.88570404052734 C 59.73468017578125 92.28397369384766 53.71062850952148 93.5 47.5 93.5 Z" stroke="none"/>
                        <path d="M 47.5 3 C 41.49121475219727 3 35.66376876831055 4.176155090332031 30.17950439453125 6.495796203613281 C 24.88084411621094 8.736953735351562 20.12152099609375 11.94598388671875 16.03375244140625 16.03375244140625 C 11.94598388671875 20.12152099609375 8.736953735351562 24.88084411621094 6.495796203613281 30.17950439453125 C 4.176155090332031 35.66376876831055 3 41.49121475219727 3 47.5 C 3 53.50878524780273 4.176155090332031 59.33623123168945 6.495796203613281 64.82049560546875 C 8.736953735351562 70.11915588378906 11.94598388671875 74.87847900390625 16.03375244140625 78.96624755859375 C 20.12152099609375 83.05401611328125 24.88084411621094 86.26304626464844 30.17950439453125 88.50419616699219 C 35.66376876831055 90.82384490966797 41.49121475219727 92 47.5 92 C 53.50878524780273 92 59.33623123168945 90.82384490966797 64.82049560546875 88.50419616699219 C 70.11915588378906 86.26304626464844 74.87847900390625 83.05401611328125 78.96624755859375 78.96624755859375 C 83.05401611328125 74.87847900390625 86.26304626464844 70.11915588378906 88.50419616699219 64.82049560546875 C 90.82384490966797 59.33623123168945 92 53.50878524780273 92 47.5 C 92 41.49121475219727 90.82384490966797 35.66376876831055 88.50419616699219 30.17950439453125 C 86.26304626464844 24.88084411621094 83.05401611328125 20.12152099609375 78.96624755859375 16.03375244140625 C 74.87847900390625 11.94598388671875 70.11915588378906 8.736953735351562 64.82049560546875 6.495796203613281 C 59.33623123168945 4.176155090332031 53.50878524780273 3 47.5 3 M 47.5 0 C 73.7335205078125 0 95 21.2664794921875 95 47.5 C 95 73.7335205078125 73.7335205078125 95 47.5 95 C 21.2664794921875 95 0 73.7335205078125 0 47.5 C 0 21.2664794921875 21.2664794921875 0 47.5 0 Z" stroke="none" fill="#eca675"/>
                      </g>
                    </g>
                  </g>
                </g>
              </g>
            </g>
          </g>
        </g>
      </g>
    </g>
    <g id="business-ethics_17027066" transform="translate(306.996 7176.991)">
      <g id="Grupo_1222285" data-name="Grupo 1222285" transform="translate(49.644 1.958)">
        <g id="Grupo_1222282" data-name="Grupo 1222282" transform="translate(0)">
          <path id="Trazado_1174367" data-name="Trazado 1174367" d="M104.393,43.124c-.9-5.308-5.157-6.711-5.157-10.483C100.348,19.213,93.63,9,78.178,9,55.205,9,49.871,37.91,65.9,49.378c.575,9.178-3.261,15.676-3.69,18.756L88.4,68.082c0-5.434-4.374-9.47-.8-11.036,2.157-.944,9.187,2.7,10.917.551,1.262-5.4,2.465-4.485,2.465-6.443-2.7-2.056-2.545-2.331.17-3.208l.025-4.216Z" transform="translate(-56.673 -9)" fill="#ffd6bd" fill-rule="evenodd"/>
          <path id="Trazado_1174368" data-name="Trazado 1174368" d="M145.121,43.124c-.9-5.308-5.157-6.711-5.157-10.483C141.076,19.213,134.357,9,118.905,9c-.381,0-.756.009-1.127.025,14.551.547,20.872,10.561,19.791,23.616,0,3.772,4.258,5.174,5.157,10.483l-3.213.606-.025,4.216c-2.715.877-2.87,1.152-.17,3.208,0,1.958-1.2,1.042-2.465,6.443a1.751,1.751,0,0,1-.941.573c1.471.223,2.729.182,3.335-.573,1.262-5.4,2.465-4.485,2.465-6.443-2.7-2.056-2.545-2.331.17-3.208l.025-4.216Zm-42.181,25,23.792-.046c0-5.434-4.374-9.47-.8-11.036a4.582,4.582,0,0,1,2.4,0l-.009,0c-3.579,1.566.8,5.6.8,11.036l-26.187.051Z" transform="translate(-97.401 -9)" fill="#f9c6aa" fill-rule="evenodd"/>
        </g>
        <path id="Trazado_1174369" data-name="Trazado 1174369" d="M113.757,111.863a4.843,4.843,0,0,1-9.686,0,.892.892,0,0,1,.892-.892h7.9A.892.892,0,0,1,113.757,111.863Z" transform="translate(-98.397 -98.765)" fill="#64b5f6" fill-rule="evenodd"/>
        <path id="Trazado_1174370" data-name="Trazado 1174370" d="M145.8,111.863a4.843,4.843,0,0,1-4.843,4.843q-.246,0-.487-.024a4.844,4.844,0,0,0,4.356-4.819.892.892,0,0,0-.892-.892h.973A.892.892,0,0,1,145.8,111.863Z" transform="translate(-130.436 -98.765)" fill="#42a5f5" fill-rule="evenodd"/>
        <path id="Trazado_1174371" data-name="Trazado 1174371" d="M297.675,111.863a4.843,4.843,0,0,1-9.686,0,.892.892,0,0,1,.892-.892h7.9A.892.892,0,0,1,297.675,111.863Z" transform="translate(-260.3 -98.765)" fill="#64b5f6" fill-rule="evenodd"/>
        <path id="Trazado_1174372" data-name="Trazado 1174372" d="M329.714,111.863a4.843,4.843,0,0,1-4.843,4.843q-.246,0-.487-.024a4.844,4.844,0,0,0,4.357-4.819.892.892,0,0,0-.892-.892h.973A.891.891,0,0,1,329.714,111.863Z" transform="translate(-292.338 -98.765)" fill="#42a5f5" fill-rule="evenodd"/>
        <g id="Grupo_1222283" data-name="Grupo 1222283" transform="translate(16.064 15.163)">
          <circle id="Elipse_14600" data-name="Elipse 14600" cx="5.46" cy="5.46" r="5.46" fill="#fdb800"/>
          <path id="Trazado_1174373" data-name="Trazado 1174373" d="M214.789,138.5a5.461,5.461,0,1,1-5.1,9.54,5.461,5.461,0,0,0,5.1-9.54Z" transform="translate(-207.434 -138.161)" fill="#f4a40e" fill-rule="evenodd"/>
        </g>
        <g id="Grupo_1222284" data-name="Grupo 1222284" transform="translate(4.764 20.623)">
          <path id="Trazado_1174374" data-name="Trazado 1174374" d="M129.992,181.285v2.249a.549.549,0,0,1-.548.548h-2.259a14.149,14.149,0,0,1-2.11,5.091l1.6,1.6a.549.549,0,0,1,0,.775l-3.18,3.18a.549.549,0,0,1-.775,0l-1.6-1.6a14.149,14.149,0,0,1-5.091,2.11V197.5a.549.549,0,0,1-.548.548h-4.5a.549.549,0,0,1-.548-.548v-2.258a14.147,14.147,0,0,1-5.091-2.11l-1.6,1.6a.549.549,0,0,1-.775,0l-3.18-3.18a.549.549,0,0,1,0-.775l1.6-1.6a14.145,14.145,0,0,1-2.11-5.091H97.021a.549.549,0,0,1-.548-.548v-2.249h6.05a10.71,10.71,0,0,0,21.419,0h6.05Z" transform="translate(-96.473 -181.285)" fill="#465759" fill-rule="evenodd"/>
          <path id="Trazado_1174375" data-name="Trazado 1174375" d="M109.511,193.655a9.9,9.9,0,0,1-5.658-1.964l-1.6,1.6a.549.549,0,0,1-.6.116l1.321,1.321a.549.549,0,0,0,.775,0l1.6-1.6a14.161,14.161,0,0,0,5.091,2.11v-1.629Q109.979,193.655,109.511,193.655Zm20.481-12.37v2.249a.549.549,0,0,1-.548.548h-2.259a14.149,14.149,0,0,1-2.11,5.091l1.6,1.6a.549.549,0,0,1,0,.775l-3.18,3.18a.549.549,0,0,1-.775,0l-1.321-1.321a.549.549,0,0,0,.6-.116l3.18-3.18a.549.549,0,0,0,0-.775l-1.6-1.6a14.15,14.15,0,0,0,2.11-5.091h2.259a.549.549,0,0,0,.548-.548v-.812h1.492Zm-8.905,11.865a14.147,14.147,0,0,1-5.058,2.088V197.5a.549.549,0,0,1-.548.548h-4.5a.549.549,0,0,1-.548-.548v-.889h3.553a.549.549,0,0,0,.548-.548V193.8a14.148,14.148,0,0,0,5.091-2.11Zm-21.808-9.068H97.021a.549.549,0,0,1-.548-.548v-.889h2.441A14.1,14.1,0,0,0,99.279,184.082Z" transform="translate(-96.473 -181.285)" fill="#3a484a" fill-rule="evenodd"/>
        </g>
      </g>
      <path id="Trazado_1174376" data-name="Trazado 1174376" d="M71.167,18.377a.959.959,0,0,1,.96.958v.146a2.068,2.068,0,0,1,.965.739.955.955,0,1,1-1.547,1.122.189.189,0,0,0-.147-.077h-.361a.18.18,0,0,0,0,.359h.254a2.1,2.1,0,0,1,.836,4.017v.186a.96.96,0,0,1-1.92,0V25.68a2.11,2.11,0,0,1-.971-.738.958.958,0,1,1,1.553-1.122.189.189,0,0,0,.147.076h.356a.179.179,0,1,0,0-.358h-.254a2.095,2.095,0,0,1-.83-4.018v-.186A.959.959,0,0,1,71.167,18.377ZM60.158,11.036l1.632,2.916H58.532Zm0,7.159a3.294,3.294,0,0,1-3.145-2.328H63.3A3.288,3.288,0,0,1,60.158,18.2Zm20.387-4.243,1.626-2.916L83.8,13.952ZM82.17,18.2a3.294,3.294,0,0,1-3.145-2.328h6.289A3.288,3.288,0,0,1,82.17,18.2Zm-6.5,4.386a4.505,4.505,0,1,0-4.505,4.5A4.51,4.51,0,0,0,75.672,22.581ZM60.158,20.111a5.21,5.21,0,0,0,5.205-5.2.958.958,0,0,0-.96-.958h-.418L61.8,10.031h8.412v6.2a6.419,6.419,0,1,0,1.92,0v-6.2h8.412l-2.191,3.921H77.93a.958.958,0,0,0-.96.958,5.2,5.2,0,0,0,10.405,0,.958.958,0,0,0-.96-.958H86l-2.2-3.927a.958.958,0,0,0-.107-1.909H72.127v-2.1a.96.96,0,0,0-1.92,0v2.1H58.633a.958.958,0,0,0-.1,1.909l-2.2,3.927h-.423a.957.957,0,0,0-.954.958,5.206,5.206,0,0,0,5.2,5.2ZM86.969,24.42v-.881H82.8a11.67,11.67,0,0,1-23.26,0H55.365v.881h1.852a.96.96,0,0,1,.937.77,13.124,13.124,0,0,0,1.965,4.747A.959.959,0,0,1,60,31.146l-1.31,1.308,2.6,2.6,1.31-1.308a.956.956,0,0,1,1.208-.12,13.138,13.138,0,0,0,4.748,1.967.958.958,0,0,1,.768.94v1.848h3.681V36.534a.958.958,0,0,1,.768-.94,13.139,13.139,0,0,0,4.748-1.967.956.956,0,0,1,1.208.12l1.31,1.307,2.6-2.6-1.3-1.308a.959.959,0,0,1-.124-1.209,13.06,13.06,0,0,0,1.97-4.746.955.955,0,0,1,.937-.771h1.852Zm.954-2.8H81.877a.958.958,0,0,0-.96.958,9.75,9.75,0,1,1-19.5,0,.958.958,0,0,0-.96-.958H54.4a.957.957,0,0,0-.954.958v2.248a1.5,1.5,0,0,0,1.5,1.506h1.5a15.1,15.1,0,0,0,1.654,4l-1.056,1.057a1.507,1.507,0,0,0,0,2.13L60.231,36.7a1.49,1.49,0,0,0,1.061.44,1.512,1.512,0,0,0,1.067-.44l1.056-1.057a15.018,15.018,0,0,0,4,1.657v1.494a1.509,1.509,0,0,0,1.507,1.5h4.494a1.509,1.509,0,0,0,1.507-1.5V37.3a15.094,15.094,0,0,0,4-1.657L79.974,36.7a1.506,1.506,0,0,0,2.128,0l3.178-3.181a1.494,1.494,0,0,0,0-2.13l-1.056-1.057a14.947,14.947,0,0,0,1.66-4h1.49a1.509,1.509,0,0,0,1.507-1.506V22.581a.958.958,0,0,0-.96-.958Zm6.052,14.122,2.241-.423a12.329,12.329,0,0,0-2.608-4.577c-1.214-1.53-2.36-2.976-2.36-5.147V25.52c.587-7.053-1.039-12.88-4.692-16.85-3.517-3.819-8.7-5.754-15.413-5.754-9.4,0-16.672,5.173-19.455,13.84-2.958,9.226.226,19.425,7.74,24.8a.958.958,0,0,1,.4.718,38.07,38.07,0,0,1-2.682,15.569c-.3.849-.57,1.626-.762,2.287l23.983-.047a18.944,18.944,0,0,0-1.248-4.616,11.169,11.169,0,0,1-.909-3.447,2.951,2.951,0,0,1,1.982-2.894c1.225-.536,3.111-.079,5.29.45,1.75.425,4.347,1.055,5.143.492A12.525,12.525,0,0,1,92.6,45.21a1.856,1.856,0,0,0,.356-.656c-1.3-1.01-2.049-1.749-1.891-2.681.153-.876,1.016-1.289,2.106-1.664l.017-3.526a.964.964,0,0,1,.785-.936Zm4.33.176a13.406,13.406,0,0,0-3.2-6.366c-1.078-1.359-1.931-2.435-1.948-3.92.621-7.582-1.174-13.9-5.2-18.263a18.49,18.49,0,0,0-7-4.7A27.125,27.125,0,0,0,71.144,1,22.49,22.49,0,0,0,57.273,5.439a21.771,21.771,0,0,0-7.4,10.731,25.256,25.256,0,0,0-.209,14.584,22.775,22.775,0,0,0,8.277,12.087,36.271,36.271,0,0,1-2.608,14.372,21.534,21.534,0,0,0-1.1,3.747.939.939,0,0,0,.226.761.956.956,0,0,0,.717.328h.006L81.369,62a.955.955,0,0,0,.954-.958,17.913,17.913,0,0,0-1.411-6.234c-1.067-2.892-1.061-3.441.045-3.926.632-.277,2.541.187,4.07.558,2.874.7,5.843,1.417,7.21-.284a.976.976,0,0,0,.186-.382,11.2,11.2,0,0,1,1.756-4.47,3.3,3.3,0,0,0,.734-2.191.96.96,0,0,0-.378-.762,16.642,16.642,0,0,1-1.338-1.1c.4-.169.982-.358,1.225-.436a.958.958,0,0,0,.661-.906l.023-3.427,2.433-.46a.956.956,0,0,0,.768-1.1Z" fill-rule="evenodd"/>
    </g>
  </g>
</svg>
