<svg xmlns="http://www.w3.org/2000/svg" xmlns:xlink="http://www.w3.org/1999/xlink" width="113" height="113" viewBox="0 0 113 113">
  <defs>
    <filter id="Trazado_982547" x="0" y="0" width="113" height="113" filterUnits="userSpaceOnUse">
      <feOffset dy="3" input="SourceAlpha"/>
      <feGaussianBlur stdDeviation="3" result="blur"/>
      <feFlood flood-opacity="0.161"/>
      <feComposite operator="in" in2="blur"/>
      <feComposite in="SourceGraphic"/>
    </filter>
  </defs>
  <g id="Grupo_1222342" data-name="Grupo 1222342" transform="translate(-3134 -3651.131)">
    <g id="Grupo_1222269" data-name="Grupo 1222269" transform="translate(2338 2404.241)">
      <g id="Grupo_1202142" data-name="Grupo 1202142" transform="translate(805 1252.89)">
        <g id="Grupo_1201923" data-name="Grupo 1201923" transform="translate(0 0)">
          <g id="Grupo_1176928" data-name="Grupo 1176928" transform="translate(0 0)">
            <g id="Grupo_1172322" data-name="Grupo 1172322">
              <g id="Grupo_1164700" data-name="Grupo 1164700">
                <g id="Grupo_1160931" data-name="Grupo 1160931">
                  <g id="Grupo_1160749" data-name="Grupo 1160749">
                    <g id="Grupo_1158891" data-name="Grupo 1158891">
                      <g id="Grupo_1157406" data-name="Grupo 1157406">
                        <g id="Grupo_1155793" data-name="Grupo 1155793">
                          <g id="Grupo_1154704" data-name="Grupo 1154704">
                            <g id="Grupo_1150790" data-name="Grupo 1150790">
                              <g id="Grupo_1154214" data-name="Grupo 1154214" transform="translate(0)">
                                <g id="Grupo_1152583" data-name="Grupo 1152583">
                                  <g id="Grupo_1146973" data-name="Grupo 1146973">
                                    <g id="Grupo_1146954" data-name="Grupo 1146954">
                                      <g transform="matrix(1, 0, 0, 1, -9, -6)" filter="url(#Trazado_982547)">
                                        <g id="Trazado_982547-2" data-name="Trazado 982547" transform="translate(9 6)" fill="#f2f4f0">
                                          <path d="M 47.50000762939453 93.49986267089844 C 41.28937911987305 93.49986267089844 35.26534271240234 92.28383636474609 29.59519386291504 89.88558197021484 C 24.11772727966309 87.56880950927734 19.19814109802246 84.25183868408203 14.97310066223145 80.02679443359375 C 10.74804782867432 75.8017578125 7.431074142456055 70.88218688964844 5.114300727844238 65.40471649169922 C 2.716034412384033 59.73458480834961 1.500007629394531 53.71054458618164 1.500007629394531 47.49993133544922 C 1.500007629394531 41.2893180847168 2.716034412384033 35.26527786254883 5.114300727844238 29.59514427185059 C 7.431074142456055 24.11767768859863 10.74804782867432 19.19810485839844 14.97310066223145 14.97306442260742 C 19.19814109802246 10.74802494049072 24.11772727966309 7.431051254272461 29.59519386291504 5.114277839660645 C 35.26534271240234 2.71602463722229 41.28937911987305 1.499997973442078 47.50000762939453 1.499997973442078 C 53.71063613891602 1.499997973442078 59.73467254638672 2.71602463722229 65.40482330322266 5.114277839660645 C 70.88228607177734 7.431051254272461 75.80187225341797 10.74802494049072 80.02691650390625 14.97306442260742 C 84.25196838378906 19.19810485839844 87.56893920898438 24.11767768859863 89.88571166992188 29.59514427185059 C 92.28398132324219 35.26527786254883 93.50000762939453 41.2893180847168 93.50000762939453 47.49993133544922 C 93.50000762939453 53.71054458618164 92.28398132324219 59.73458480834961 89.88571166992188 65.40471649169922 C 87.56893920898438 70.88218688964844 84.25196838378906 75.8017578125 80.02691650390625 80.02679443359375 C 75.80187225341797 84.25183868408203 70.88228607177734 87.56880950927734 65.40482330322266 89.88558197021484 C 59.73467254638672 92.28383636474609 53.71063613891602 93.49986267089844 47.50000762939453 93.49986267089844 Z" stroke="none"/>
                                          <path d="M 47.50000762939453 2.999992370605469 C 41.4912223815918 2.999992370605469 35.66377639770508 4.1761474609375 30.17951202392578 6.495796203613281 C 24.88085174560547 8.736930847167969 20.12152862548828 11.94596099853516 16.03376007080078 16.03372955322266 C 11.94597625732422 20.12148284912109 8.736961364746094 24.88080596923828 6.495803833007812 30.17946624755859 C 4.176162719726562 35.66371536254883 3.000007629394531 41.49116134643555 3.000007629394531 47.49993133544922 C 3.000007629394531 53.50870132446289 4.176162719726562 59.33614730834961 6.495803833007812 64.82038879394531 C 8.736961364746094 70.11905670166016 11.94597625732422 74.87836456298828 16.03376007080078 78.96613311767578 C 20.12152862548828 83.05390167236328 24.88085174560547 86.26291656494141 30.17951202392578 88.50406646728516 C 35.66377639770508 90.82369995117188 41.4912223815918 91.99985504150391 47.50000762939453 91.99985504150391 C 53.50879287719727 91.99985504150391 59.33623886108398 90.82369995117188 64.82049560546875 88.50406646728516 C 70.11916351318359 86.26291656494141 74.87848663330078 83.05390167236328 78.96625518798828 78.96613311767578 C 83.05403900146484 74.87836456298828 86.26305389404297 70.11905670166016 88.50421142578125 64.82038879394531 C 90.8238525390625 59.33614730834961 92.00000762939453 53.50870132446289 92.00000762939453 47.49993133544922 C 92.00000762939453 41.49116134643555 90.8238525390625 35.66371536254883 88.50421142578125 30.17946624755859 C 86.26305389404297 24.88080596923828 83.05403900146484 20.12148284912109 78.96625518798828 16.03372955322266 C 74.87848663330078 11.94596099853516 70.11916351318359 8.736930847167969 64.82049560546875 6.495796203613281 C 59.33623886108398 4.1761474609375 53.50879287719727 2.999992370605469 47.50000762939453 2.999992370605469 M 47.50000762939453 -7.62939453125e-06 C 73.73352813720703 -7.62939453125e-06 95.00000762939453 21.26644134521484 95.00000762939453 47.49993133544922 C 95.00000762939453 73.73342132568359 73.73352813720703 94.99985504150391 47.50000762939453 94.99985504150391 C 21.26648712158203 94.99985504150391 7.62939453125e-06 73.73342132568359 7.62939453125e-06 47.49993133544922 C 7.62939453125e-06 21.26644134521484 21.26648712158203 -7.62939453125e-06 47.50000762939453 -7.62939453125e-06 Z" stroke="none" fill="#899e78"/>
                                        </g>
                                      </g>
                                    </g>
                                  </g>
                                </g>
                              </g>
                            </g>
                          </g>
                        </g>
                      </g>
                    </g>
                  </g>
                </g>
              </g>
            </g>
          </g>
        </g>
      </g>
    </g>
    <g id="cooperation_5122292" transform="translate(3160 3674)">
      <g id="Grupo_1222340" data-name="Grupo 1222340">
        <g id="Grupo_1222317" data-name="Grupo 1222317">
          <path id="Trazado_1174665" data-name="Trazado 1174665" d="M46,61H41V44H53V61Z" fill="#d3a06c"/>
        </g>
        <g id="Grupo_1222318" data-name="Grupo 1222318">
          <path id="Trazado_1174666" data-name="Trazado 1174666" d="M16,61H9V44H21V61Z" fill="#d3a06c"/>
        </g>
        <g id="Grupo_1222319" data-name="Grupo 1222319">
          <path id="Trazado_1174667" data-name="Trazado 1174667" d="M31,61H25V44H37V61Z" fill="#969faa"/>
        </g>
        <g id="Grupo_1222320" data-name="Grupo 1222320">
          <path id="Trazado_1174668" data-name="Trazado 1174668" d="M31,34.5A3.5,3.5,0,0,0,34.5,38H37v6H25V38h2.5A3.5,3.5,0,0,0,31,34.5Z" fill="#e6e9ed"/>
        </g>
        <g id="Grupo_1222321" data-name="Grupo 1222321">
          <path id="Trazado_1174669" data-name="Trazado 1174669" d="M24.971,32.03,24,33V30.93a7,7,0,0,0-3.55-6.09L28,24l3,3,3-3,7.55.84A7,7,0,0,0,38,30.93V33l-.97-.97A3.5,3.5,0,0,0,34.551,31H34.5A3.517,3.517,0,0,0,31,34.5,3.517,3.517,0,0,0,27.5,31h-.05a3.5,3.5,0,0,0-2.48,1.03Z" fill="#e6e9ed"/>
        </g>
        <g id="Grupo_1222322" data-name="Grupo 1222322">
          <path id="Trazado_1174670" data-name="Trazado 1174670" d="M53,37.83V44H41V38h10.86A3.932,3.932,0,0,0,53,37.83Z" fill="#ef7385"/>
        </g>
        <g id="Grupo_1222323" data-name="Grupo 1222323">
          <path id="Trazado_1174671" data-name="Trazado 1174671" d="M44,24a3,3,0,0,0,6,0l2.83.35a5.89,5.89,0,0,1,4.42,2.99A.985.985,0,0,0,57,28v4a1,1,0,0,0,.4.8,4.7,4.7,0,0,1-.39.69l-1.82,2.73a2.972,2.972,0,0,1-.27.35l-.98-.4A6.779,6.779,0,0,1,50,32L38,33V30.93a7,7,0,0,1,3.55-6.09,7.156,7.156,0,0,1,2.3-.81Z" fill="#ef7385"/>
        </g>
        <g id="Grupo_1222324" data-name="Grupo 1222324">
          <path id="Trazado_1174672" data-name="Trazado 1174672" d="M21,38v6H9V37.83a3.932,3.932,0,0,0,1.14.17H21Z" fill="#fcd770"/>
        </g>
        <g id="Grupo_1222325" data-name="Grupo 1222325">
          <path id="Trazado_1174673" data-name="Trazado 1174673" d="M20.451,24.84A7,7,0,0,1,24,30.93V33l-9-.75V38h-4.86a4.043,4.043,0,0,1-3.33-1.78l-1.82-2.73a4.7,4.7,0,0,1-.39-.69A1,1,0,0,0,5,32V28a.985.985,0,0,0-.25-.66,5.89,5.89,0,0,1,4.42-2.99L12,24a3,3,0,0,0,6,0l.15.03a7.156,7.156,0,0,1,2.3.81Z" fill="#fcd770"/>
        </g>
        <g id="Grupo_1222326" data-name="Grupo 1222326">
          <path id="Trazado_1174674" data-name="Trazado 1174674" d="M46.5,8.48A5.275,5.275,0,0,1,42,11a1,1,0,0,0-1,1v1a2,2,0,0,0-1.04-1.76A6.657,6.657,0,0,0,39,2.91,6.642,6.642,0,0,1,43.671,1h3.5A6.835,6.835,0,0,1,52,3a5,5,0,0,1,5,5v.5a5.071,5.071,0,0,1-.88,2.84A1.974,1.974,0,0,0,55,11H53A9.627,9.627,0,0,1,46.5,8.48Z" fill="#656d78"/>
        </g>
        <g id="Grupo_1222327" data-name="Grupo 1222327">
          <path id="Trazado_1174675" data-name="Trazado 1174675" d="M7,11a1.982,1.982,0,0,0-1.88,1.33h-.01a2.987,2.987,0,0,1,.91-5.15A1.1,1.1,0,0,1,6,7,3,3,0,0,1,9,4a1.1,1.1,0,0,1,.18.02A3,3,0,0,1,12,2a2.942,2.942,0,0,1,1.47.4,2.986,2.986,0,0,1,5.06,0A2.942,2.942,0,0,1,20,2a2.979,2.979,0,0,1,2.53,1.41,6.674,6.674,0,0,0-.49,7.83,1.9,1.9,0,0,0-.45.34A1.961,1.961,0,0,0,21,13V11.91a.913.913,0,0,0-.91-.91,2.9,2.9,0,0,1-2.75-1.98,1.49,1.49,0,0,0-2.75-.19,2.125,2.125,0,0,1-1.9,1.17H12l-.38.38a2.119,2.119,0,0,1-1.5.62H7Z" fill="#656d78"/>
        </g>
        <g id="Grupo_1222328" data-name="Grupo 1222328">
          <path id="Trazado_1174676" data-name="Trazado 1174676" d="M25,11H23a2.038,2.038,0,0,0-.96.24,6.674,6.674,0,0,1,.49-7.83,6.016,6.016,0,0,1,.42-.46A6.633,6.633,0,0,1,27.671,1h6.66A6.674,6.674,0,0,1,41,7.67a6.646,6.646,0,0,1-1.04,3.57A2.038,2.038,0,0,0,39,11H37a9.676,9.676,0,0,1-6.55-2.56l-.01-.01A7.035,7.035,0,0,1,25,11Z" fill="#b27946"/>
        </g>
        <g id="Grupo_1222329" data-name="Grupo 1222329">
          <path id="Trazado_1174677" data-name="Trazado 1174677" d="M53,37.83a3.932,3.932,0,0,1-1.14.17H34.5A3.5,3.5,0,0,1,31,34.5,3.517,3.517,0,0,1,34.5,31h.05a3.5,3.5,0,0,1,2.48,1.03L38,33l12-1a6.779,6.779,0,0,0,3.94,4.17l.98.4A3.95,3.95,0,0,1,53,37.83Z" fill="#f0d0b4"/>
        </g>
        <g id="Grupo_1222330" data-name="Grupo 1222330">
          <path id="Trazado_1174678" data-name="Trazado 1174678" d="M59,27a2.006,2.006,0,0,1,2,2v2a2.006,2.006,0,0,1-2,2H58a1.053,1.053,0,0,1-.6-.2A1,1,0,0,1,57,32V28a1,1,0,0,1,1-1Z" fill="#f0d0b4"/>
        </g>
        <g id="Grupo_1222331" data-name="Grupo 1222331">
          <path id="Trazado_1174679" data-name="Trazado 1174679" d="M56.121,11.34A2.005,2.005,0,0,1,57,13a2.015,2.015,0,0,1-2,2H53V11h2A1.974,1.974,0,0,1,56.121,11.34Z" fill="#f0d0b4"/>
        </g>
        <g id="Grupo_1222332" data-name="Grupo 1222332">
          <path id="Trazado_1174680" data-name="Trazado 1174680" d="M53,15v.93a5.734,5.734,0,0,1-2.55,4.77h-.01a1.029,1.029,0,0,0-.44.84V24a3,3,0,0,1-6,0V21.54a1.012,1.012,0,0,0-.45-.84A5.733,5.733,0,0,1,41,15.93V12a1,1,0,0,1,1-1,5.275,5.275,0,0,0,4.5-2.52A9.627,9.627,0,0,0,53,11Z" fill="#f0d0b4"/>
        </g>
        <g id="Grupo_1222333" data-name="Grupo 1222333">
          <path id="Trazado_1174681" data-name="Trazado 1174681" d="M39.961,11.24A2,2,0,0,1,41,13a2.015,2.015,0,0,1-2,2H37V11h2A2.038,2.038,0,0,1,39.961,11.24Z" fill="#f0d0b4"/>
        </g>
        <g id="Grupo_1222334" data-name="Grupo 1222334">
          <path id="Trazado_1174682" data-name="Trazado 1174682" d="M37,15v.93a5.734,5.734,0,0,1-2.55,4.77,1.013,1.013,0,0,0-.45.84V24l-3,3-3-3V21.54a1.013,1.013,0,0,0-.45-.84A5.733,5.733,0,0,1,25,15.93V11a7.035,7.035,0,0,0,5.44-2.57l.01.01A9.676,9.676,0,0,0,37,11Z" fill="#f0d0b4"/>
        </g>
        <g id="Grupo_1222335" data-name="Grupo 1222335">
          <path id="Trazado_1174683" data-name="Trazado 1174683" d="M25,11v4H23a2.006,2.006,0,0,1-2-2,1.961,1.961,0,0,1,.59-1.42,1.9,1.9,0,0,1,.45-.34A2.038,2.038,0,0,1,23,11Z" fill="#f0d0b4"/>
        </g>
        <g id="Grupo_1222336" data-name="Grupo 1222336">
          <path id="Trazado_1174684" data-name="Trazado 1174684" d="M29.971,32.03A3.46,3.46,0,0,1,31,34.5,3.5,3.5,0,0,1,27.5,38H15V32.25L24,33l.97-.97A3.5,3.5,0,0,1,27.451,31h.05a3.46,3.46,0,0,1,2.47,1.03Z" fill="#f0d0b4"/>
        </g>
        <g id="Grupo_1222337" data-name="Grupo 1222337">
          <path id="Trazado_1174685" data-name="Trazado 1174685" d="M4.751,27.34A.985.985,0,0,1,5,28v4a1,1,0,0,1-.4.8A1.053,1.053,0,0,1,4,33H3a2,2,0,0,1-2-2V29a2,2,0,0,1,2-2H4A.983.983,0,0,1,4.751,27.34Z" fill="#f0d0b4"/>
        </g>
        <g id="Grupo_1222338" data-name="Grupo 1222338">
          <path id="Trazado_1174686" data-name="Trazado 1174686" d="M10.121,11a2.119,2.119,0,0,0,1.5-.62L12,10h.69a2.125,2.125,0,0,0,1.9-1.17,1.49,1.49,0,0,1,2.75.19A2.9,2.9,0,0,0,20.091,11a.913.913,0,0,1,.91.91v4.02a5.733,5.733,0,0,1-2.55,4.77,1.013,1.013,0,0,0-.45.84V24a3,3,0,0,1-6,0V21.54a1.013,1.013,0,0,0-.45-.84A5.734,5.734,0,0,1,9,15.93V11Z" fill="#f0d0b4"/>
        </g>
        <g id="Grupo_1222339" data-name="Grupo 1222339">
          <path id="Trazado_1174687" data-name="Trazado 1174687" d="M9,11v4H7a2.015,2.015,0,0,1-2-2,1.853,1.853,0,0,1,.12-.67A1.982,1.982,0,0,1,7,11Z" fill="#f0d0b4"/>
        </g>
      </g>
      <g id="Grupo_1222341" data-name="Grupo 1222341">
        <path id="Trazado_1174688" data-name="Trazado 1174688" d="M59,26H58a2,2,0,0,0-.412.044,6.926,6.926,0,0,0-4.637-2.682L51,23.117V21.534A6.717,6.717,0,0,0,54,16h1a3,3,0,0,0,3-3,2.969,2.969,0,0,0-.633-1.821A5.966,5.966,0,0,0,58,8.5V8a6.009,6.009,0,0,0-5.587-5.986A7.879,7.879,0,0,0,47.173,0H43.668A7.613,7.613,0,0,0,39,1.594,7.622,7.622,0,0,0,34.334,0H27.668a7.625,7.625,0,0,0-5.095,1.954A3.944,3.944,0,0,0,20,1a3.832,3.832,0,0,0-1.169.182,3.981,3.981,0,0,0-5.662,0A3.832,3.832,0,0,0,12,1,3.994,3.994,0,0,0,8.534,3.027,4.008,4.008,0,0,0,5.028,6.533a3.955,3.955,0,0,0-.992,6.121A2.978,2.978,0,0,0,4,13a3,3,0,0,0,3,3H8a6.719,6.719,0,0,0,3,5.539v1.582l-1.952.244a6.93,6.93,0,0,0-4.637,2.682A2.071,2.071,0,0,0,4,26H3a3,3,0,0,0-3,3v2a3,3,0,0,0,3,3H4c.044,0,.085-.01.129-.013.012.018.02.037.031.055l1.82,2.731A4.992,4.992,0,0,0,8,38.51V62H22V39h2V62H38V39h2V62H54V38.51a4.989,4.989,0,0,0,2.02-1.737l1.819-2.73c.012-.018.02-.038.032-.056.043,0,.085.013.129.013h1a3,3,0,0,0,3-3V29a3,3,0,0,0-3-3Zm-9.11-6.129A2,2,0,0,0,49,21.535V24a2,2,0,1,1-4,0V21.535a2,2,0,0,0-.891-1.664A4.725,4.725,0,0,1,42,15.932V13S42,13,42,13s0-.005,0-.007V12a6.321,6.321,0,0,0,4.669-2.093A10.6,10.6,0,0,0,52,11.953v3.976a4.729,4.729,0,0,1-2.11,3.942Zm-.546,13.187A7.8,7.8,0,0,0,52.9,36.792,2.958,2.958,0,0,1,51.86,37H34.5a2.5,2.5,0,1,1,1.819-4.268l1.3,1.3ZM37.009,30.734A4.542,4.542,0,0,0,34.5,30,4.476,4.476,0,0,0,31,31.71,4.529,4.529,0,0,0,27.45,30a4.46,4.46,0,0,0-2.458.734,7.975,7.975,0,0,0-2.047-5.166l4.689-.521L31,28.414l3.367-3.367,4.689.521A7.974,7.974,0,0,0,37.009,30.734Zm-12.63,3.3,1.3-1.3A2.515,2.515,0,1,1,27.5,37H16V33.337ZM24,12v2H23a1,1,0,0,1,0-2Zm6.521-2.2A10.6,10.6,0,0,0,36,11.953v3.976a4.727,4.727,0,0,1-2.11,3.942A2,2,0,0,0,33,21.535v2.051l-2,2-2-2V21.535a2,2,0,0,0-.891-1.664A4.725,4.725,0,0,1,26,15.932v-4A8.128,8.128,0,0,0,30.522,9.8ZM22,15.932v-.12A2.973,2.973,0,0,0,23,16h1a6.717,6.717,0,0,0,3,5.539v1.569l-6.355.706A7.977,7.977,0,0,0,19,23.184V21.536a6.724,6.724,0,0,0,3-5.6Zm19.356,7.879L35,23.106V21.535A6.717,6.717,0,0,0,38,16h1a2.966,2.966,0,0,0,1-.184v.12a6.722,6.722,0,0,0,3,5.6v1.648a7.862,7.862,0,0,0-1.645.626ZM38,12h1a1,1,0,0,1,1,1V13a1,1,0,0,1-1,1H38Zm17,2H54V12h1a1,1,0,1,1,0,2ZM47.173,2a5.868,5.868,0,0,1,4.121,1.707L51.587,4H52a4,4,0,0,1,4,4v.5a3.972,3.972,0,0,1-.334,1.577A2.992,2.992,0,0,0,55,10H53v0a8.627,8.627,0,0,1-5.194-1.734l1.051-1.751L47.142,5.486,45.685,7.914A4.32,4.32,0,0,1,42,10a2,2,0,0,0-.389.039,7.546,7.546,0,0,0-1.183-7.006A5.619,5.619,0,0,1,43.668,2Zm-19.5,0h6.666a5.661,5.661,0,0,1,5.141,8.044A2.974,2.974,0,0,0,39,10H37v0a8.629,8.629,0,0,1-5.2-1.742c.038-.059.084-.112.12-.173l.942-1.57L31.143,5.486,30.2,7.056A6.093,6.093,0,0,1,26.011,9.9,2,2,0,0,1,28,8V6a4,4,0,0,0-4,4H23a2.963,2.963,0,0,0-.474.048A5.661,5.661,0,0,1,27.668,2ZM6,13a1,1,0,0,1,1-1H8v2H7A1,1,0,0,1,6,13Zm3-3v0H7a2.966,2.966,0,0,0-1.872.675A1.974,1.974,0,0,1,5,10,2,2,0,0,1,6.348,8.122l.706-.246-.036-.747A.6.6,0,0,0,7,7,1.994,1.994,0,0,1,8.963,5l.914.053.246-.706A1.992,1.992,0,0,1,12.977,3.27l.829.472.51-.807a1.986,1.986,0,0,1,3.37,0l.51.807.829-.472a1.958,1.958,0,0,1,2.237.2,7.552,7.552,0,0,0-.873,6.563,1.9,1.9,0,0,0-.3-.031,1.893,1.893,0,0,1-1.8-1.3,2.493,2.493,0,0,0-4.6-.324A1.118,1.118,0,0,1,12.688,9h-1.1l-.671.671a1.114,1.114,0,0,1-.794.329Zm1,5.929V12h.12a3.1,3.1,0,0,0,2.209-.915L12.415,11h.273a3.105,3.105,0,0,0,2.794-1.728.514.514,0,0,1,.91.065A3.89,3.89,0,0,0,20,12v3.934a4.723,4.723,0,0,1-2.108,3.939A2,2,0,0,0,17,21.535V24a2,2,0,1,1-4,0V21.535a2,2,0,0,0-.892-1.665A4.725,4.725,0,0,1,10,15.929ZM2,31V29a1,1,0,0,1,1-1H4v4H3A1,1,0,0,1,2,31Zm3.825,1.934c-.013-.019-.022-.041-.035-.06A1.983,1.983,0,0,0,6,32V28a1.966,1.966,0,0,0-.1-.606,4.924,4.924,0,0,1,3.4-2.049l1.88-.235a3.974,3.974,0,0,0,7.613.11A5.966,5.966,0,0,1,23,30.93v.983l-10.47-.872L9.8,27.4,8.2,28.6l2.629,3.5L10.1,33.553l1.789.9.7-1.4L14,33.17V37H10.14a3,3,0,0,1-2.5-1.336ZM17,60V49.618l1.447-.724-.9-1.789L15,48.381V60H10V45H20V60Zm3-17H10V38.991c.047,0,.093.009.14.009H20ZM32,60V51.236a2.6,2.6,0,0,1,1.447-2.342l-.9-1.789A4.641,4.641,0,0,0,31,48.368,4.607,4.607,0,0,0,29.447,47.1l-.9,1.789A2.6,2.6,0,0,1,30,51.236V60H26V45H36V60Zm4-17H26V39h1.5A4.474,4.474,0,0,0,31,37.293,4.477,4.477,0,0,0,34.5,39H36ZM47,60V48.382l-2.553-1.276-.9,1.789L45,49.619V60H42V45H52V60Zm5-17H42V39H51.86c.047,0,.093-.007.141-.009Zm2.565-7.651-.258-.1a5.8,5.8,0,0,1-3.173-3.093L53.8,28.6l-1.6-1.2-2.73,3.641L39,31.913V30.93a5.964,5.964,0,0,1,4.21-5.709,3.971,3.971,0,0,0,7.615-.11l1.879.235A4.92,4.92,0,0,1,56.1,27.4,1.961,1.961,0,0,0,56,28v4a1.976,1.976,0,0,0,.21.874c-.012.019-.021.04-.034.059ZM60,31a1,1,0,0,1-1,1H58V28h1a1,1,0,0,1,1,1Z"/>
        <path id="Trazado_1174689" data-name="Trazado 1174689" d="M47,17a1,1,0,0,1-1-1H44a3,3,0,0,0,6,0H48A1,1,0,0,1,47,17Z"/>
        <path id="Trazado_1174690" data-name="Trazado 1174690" d="M15,19a3,3,0,0,0,3-3H16a1,1,0,0,1-2,0H12A3,3,0,0,0,15,19Z"/>
        <path id="Trazado_1174691" data-name="Trazado 1174691" d="M31,19a3,3,0,0,0,3-3H32a1,1,0,1,1-2,0H28A3,3,0,0,0,31,19Z"/>
      </g>
    </g>
  </g>
</svg>
