<svg xmlns="http://www.w3.org/2000/svg" xmlns:xlink="http://www.w3.org/1999/xlink" width="113" height="113" viewBox="0 0 113 113">
  <defs>
    <filter id="Trazado_982547" x="0" y="0" width="113" height="113" filterUnits="userSpaceOnUse">
      <feOffset dy="3" input="SourceAlpha"/>
      <feGaussianBlur stdDeviation="3" result="blur"/>
      <feFlood flood-opacity="0.161"/>
      <feComposite operator="in" in2="blur"/>
      <feComposite in="SourceGraphic"/>
    </filter>
  </defs>
  <g id="Grupo_1222289" data-name="Grupo 1222289" transform="translate(-1163.75 -7155.015)">
    <g id="Grupo_1222224" data-name="Grupo 1222224" transform="translate(1172.75 7161.015)">
      <g id="Grupo_1202185" data-name="Grupo 1202185">
        <g id="Grupo_1174813" data-name="Grupo 1174813">
          <g id="Grupo_1201680" data-name="Grupo 1201680">
            <g id="Grupo_1201330" data-name="Grupo 1201330">
              <g id="Grupo_1172010" data-name="Grupo 1172010">
                <g id="Grupo_1171046" data-name="Grupo 1171046">
                  <g id="Grupo_1148525" data-name="Grupo 1148525">
                    <g transform="matrix(1, 0, 0, 1, -9, -6)" filter="url(#Trazado_982547)">
                      <g id="Trazado_982547-2" data-name="Trazado 982547" transform="translate(9 6)" fill="#fcf5f0">
                        <path d="M 47.5 93.5 C 41.28937149047852 93.5 35.26533508300781 92.28397369384766 29.59518623352051 89.88570404052734 C 24.11771965026855 87.56893157958984 19.19813346862793 84.25196075439453 14.97309303283691 80.02691650390625 C 10.74804019927979 75.80186462402344 7.431066513061523 70.88229370117188 5.114293098449707 65.40481567382812 C 2.716026782989502 59.73468017578125 1.5 53.71062850952148 1.5 47.5 C 1.5 41.28937149047852 2.716026782989502 35.26533508300781 5.114293098449707 29.59518623352051 C 7.431066513061523 24.11771965026855 10.74804019927979 19.19813346862793 14.97309303283691 14.97309303283691 C 19.19813346862793 10.74804019927979 24.11771965026855 7.431066513061523 29.59518623352051 5.114293098449707 C 35.26533508300781 2.716026782989502 41.28937149047852 1.5 47.5 1.5 C 53.71062850952148 1.5 59.73468017578125 2.716026782989502 65.40481567382812 5.114293098449707 C 70.88229370117188 7.431066513061523 75.80186462402344 10.74804019927979 80.02691650390625 14.97309303283691 C 84.25196075439453 19.19813346862793 87.56893157958984 24.11771965026855 89.88570404052734 29.59518623352051 C 92.28397369384766 35.26533508300781 93.5 41.28937149047852 93.5 47.5 C 93.5 53.71062850952148 92.28397369384766 59.73468017578125 89.88570404052734 65.40481567382812 C 87.56893157958984 70.88229370117188 84.25196075439453 75.80186462402344 80.02691650390625 80.02691650390625 C 75.80186462402344 84.25196075439453 70.88229370117188 87.56893157958984 65.40481567382812 89.88570404052734 C 59.73468017578125 92.28397369384766 53.71062850952148 93.5 47.5 93.5 Z" stroke="none"/>
                        <path d="M 47.5 3 C 41.49121475219727 3 35.66376876831055 4.176155090332031 30.17950439453125 6.495796203613281 C 24.88084411621094 8.736953735351562 20.12152099609375 11.94598388671875 16.03375244140625 16.03375244140625 C 11.94598388671875 20.12152099609375 8.736953735351562 24.88084411621094 6.495796203613281 30.17950439453125 C 4.176155090332031 35.66376876831055 3 41.49121475219727 3 47.5 C 3 53.50878524780273 4.176155090332031 59.33623123168945 6.495796203613281 64.82049560546875 C 8.736953735351562 70.11915588378906 11.94598388671875 74.87847900390625 16.03375244140625 78.96624755859375 C 20.12152099609375 83.05401611328125 24.88084411621094 86.26304626464844 30.17950439453125 88.50419616699219 C 35.66376876831055 90.82384490966797 41.49121475219727 92 47.5 92 C 53.50878524780273 92 59.33623123168945 90.82384490966797 64.82049560546875 88.50419616699219 C 70.11915588378906 86.26304626464844 74.87847900390625 83.05401611328125 78.96624755859375 78.96624755859375 C 83.05401611328125 74.87847900390625 86.26304626464844 70.11915588378906 88.50419616699219 64.82049560546875 C 90.82384490966797 59.33623123168945 92 53.50878524780273 92 47.5 C 92 41.49121475219727 90.82384490966797 35.66376876831055 88.50419616699219 30.17950439453125 C 86.26304626464844 24.88084411621094 83.05401611328125 20.12152099609375 78.96624755859375 16.03375244140625 C 74.87847900390625 11.94598388671875 70.11915588378906 8.736953735351562 64.82049560546875 6.495796203613281 C 59.33623123168945 4.176155090332031 53.50878524780273 3 47.5 3 M 47.5 0 C 73.7335205078125 0 95 21.2664794921875 95 47.5 C 95 73.7335205078125 73.7335205078125 95 47.5 95 C 21.2664794921875 95 0 73.7335205078125 0 47.5 C 0 21.2664794921875 21.2664794921875 0 47.5 0 Z" stroke="none" fill="#eca675"/>
                      </g>
                    </g>
                  </g>
                </g>
              </g>
            </g>
          </g>
        </g>
      </g>
    </g>
    <g id="environmental-regulations_18780449_1_" data-name="environmental-regulations_18780449 (1)" transform="translate(1177.984 7184.335)">
      <g id="Grupo_1222288" data-name="Grupo 1222288" transform="translate(14.668 0.858)">
        <path id="Trazado_1174377" data-name="Trazado 1174377" d="M44.457,8.01h-17a5.655,5.655,0,0,0-5.641,5.638v7.493H44.458V8.01Z" transform="translate(-21.82 -8.01)" fill="#8bd7fa" fill-rule="evenodd"/>
        <path id="Trazado_1174378" data-name="Trazado 1174378" d="M113.359,8.01A5.654,5.654,0,0,1,119,13.648V61.166H80.078V13.648A5.654,5.654,0,0,0,74.44,8.01Z" transform="translate(-68.801 -8.01)" fill="#daeafa" fill-rule="evenodd"/>
        <path id="Trazado_1174379" data-name="Trazado 1174379" d="M258.71,191.53h8.772a1.084,1.084,0,0,1,1.079,1.079v2.648H257.63v-2.648A1.085,1.085,0,0,1,258.71,191.53Z" transform="translate(-232.357 -171.861)" fill="#223c55" fill-rule="evenodd"/>
        <path id="Trazado_1174380" data-name="Trazado 1174380" d="M286.531,37.51a2.653,2.653,0,1,1-2.651,2.651A2.654,2.654,0,0,1,286.531,37.51Z" transform="translate(-255.794 -34.348)" fill="#986b54" fill-rule="evenodd"/>
        <path id="Trazado_1174381" data-name="Trazado 1174381" d="M187.924,318.73a13.491,13.491,0,0,0,12.588,16.692c.929-3.8,2.515-8.725-2.332-11.335C193.636,321.939,190.867,322.222,187.924,318.73Z" transform="translate(-169.775 -285.429)" fill="#70da40" fill-rule="evenodd"/>
        <path id="Trazado_1174382" data-name="Trazado 1174382" d="M284.138,386.06a13.915,13.915,0,0,0,1.813.192c.847-3.465,2.241-7.864-1.2-10.592a7.622,7.622,0,0,0-1.512,4.4A21.016,21.016,0,0,0,284.138,386.06Z" transform="translate(-255.214 -336.258)" fill="#65c43a" fill-rule="evenodd"/>
        <path id="Trazado_1174383" data-name="Trazado 1174383" d="M312.824,318.73a13.491,13.491,0,0,1-12.591,16.692c-.926-3.8-2.515-8.725,2.335-11.335C307.112,321.939,309.878,322.222,312.824,318.73Z" transform="translate(-269.495 -285.429)" fill="#70da40" fill-rule="evenodd"/>
        <path id="Trazado_1174384" data-name="Trazado 1174384" d="M306.971,412.781c-.325.035-.648.062-.976.074-.1-.413-.209-.837-.315-1.274a20.734,20.734,0,0,1,2.008-2.931,15.454,15.454,0,0,1,3.288-3.052.855.855,0,1,1,.943,1.428,13.653,13.653,0,0,0-2.911,2.71A19.094,19.094,0,0,0,306.971,412.781Z" transform="translate(-275.258 -362.86)" fill="#70da40" fill-rule="evenodd"/>
        <path id="Trazado_1174385" data-name="Trazado 1174385" d="M388.981,41.33a2.241,2.241,0,1,1-2.241,2.241A2.241,2.241,0,0,1,388.981,41.33Z" transform="translate(-347.63 -37.759)" fill="#986b54" fill-rule="evenodd"/>
        <path id="Trazado_1174386" data-name="Trazado 1174386" d="M190.961,41.33a2.241,2.241,0,1,1-2.241,2.241A2.241,2.241,0,0,1,190.961,41.33Z" transform="translate(-170.833 -37.759)" fill="#986b54" fill-rule="evenodd"/>
        <path id="Trazado_1174387" data-name="Trazado 1174387" d="M374.734,138.51H365.76v1.8a1.808,1.808,0,0,0,1.8,1.8h5.373a1.806,1.806,0,0,0,1.8-1.8v-1.8Z" transform="translate(-328.899 -124.524)" fill="#fea832" fill-rule="evenodd"/>
        <path id="Trazado_1174388" data-name="Trazado 1174388" d="M176.744,138.51H167.77v1.8a1.8,1.8,0,0,0,1.8,1.8h5.373a1.808,1.808,0,0,0,1.8-1.8v-1.8Z" transform="translate(-152.128 -124.524)" fill="#fea832" fill-rule="evenodd"/>
        <path id="Trazado_1174389" data-name="Trazado 1174389" d="M68.986,13.648v7.493h2.147V13.648A5.652,5.652,0,0,0,65.521,8.01h-.027a5.622,5.622,0,0,0-1.074.1,5.661,5.661,0,0,1,4.566,5.536Z" transform="translate(-59.854 -8.01)" fill="#7dc2e1" fill-rule="evenodd"/>
        <path id="Trazado_1174390" data-name="Trazado 1174390" d="M169.448,139.463v-.943H167.77v1.8a1.8,1.8,0,0,0,1.8,1.8h1.68a1.808,1.808,0,0,1-1.8-1.8v-.855Z" transform="translate(-152.128 -124.533)" fill="#e5972d" fill-rule="evenodd"/>
        <path id="Trazado_1174391" data-name="Trazado 1174391" d="M365.77,138.51v1.8a1.808,1.808,0,0,0,1.8,1.8h1.678a1.808,1.808,0,0,1-1.8-1.8v-1.8H365.77Z" transform="translate(-328.908 -124.524)" fill="#e5972d" fill-rule="evenodd"/>
        <path id="Trazado_1174392" data-name="Trazado 1174392" d="M259.32,195.258v-2.648a1.082,1.082,0,0,1,1.079-1.079h-1.68a1.084,1.084,0,0,0-1.079,1.079v2.648Z" transform="translate(-232.366 -171.861)" fill="#1f364d" fill-rule="evenodd"/>
        <path id="Trazado_1174393" data-name="Trazado 1174393" d="M189.781,43.562a2.241,2.241,0,0,1,1.7-2.177,2.24,2.24,0,1,0-.533,4.417,2.087,2.087,0,0,0,.534-.065,2.238,2.238,0,0,1-1.705-2.175Z" transform="translate(-170.824 -37.75)" fill="#89604c" fill-rule="evenodd"/>
        <path id="Trazado_1174394" data-name="Trazado 1174394" d="M286.54,37.51a2.649,2.649,0,0,0-2.509,1.793,2.651,2.651,0,0,0,3.047,3.457,2.634,2.634,0,0,1-1.392-.773,2.724,2.724,0,0,1-.587-.967,2.651,2.651,0,0,1,1.978-3.456A2.542,2.542,0,0,0,286.54,37.51Z" transform="translate(-255.803 -34.348)" fill="#89604c" fill-rule="evenodd"/>
        <path id="Trazado_1174395" data-name="Trazado 1174395" d="M386.9,42.714a2.242,2.242,0,0,0,2.073,3.1,2.1,2.1,0,0,0,.534-.065,2.241,2.241,0,0,1-1.708-2.176,2.192,2.192,0,0,1,.171-.858A2.238,2.238,0,0,1,389.5,41.4a2.238,2.238,0,0,0-2.605,1.318Z" transform="translate(-347.621 -37.759)" fill="#89604c" fill-rule="evenodd"/>
      </g>
      <path id="Trazado_1174396" data-name="Trazado 1174396" d="M59.225,0H20.308a6.506,6.506,0,0,0-6.5,6.5V13.99a.857.857,0,0,0,.856.856H25.09V54.016a.856.856,0,0,0,.856.856h38.92a.856.856,0,0,0,.856-.856V6.5a6.506,6.506,0,0,0-6.5-6.5Zm-43.7,13.134V6.5a4.784,4.784,0,1,1,9.567,0v6.635ZM64.009,53.159H26.8V6.5a6.486,6.486,0,0,0-2.1-4.785H59.225A4.79,4.79,0,0,1,64.009,6.5ZM60.5,13.987h-.97l-1.71-4.8a3.1,3.1,0,1,0-4.783-3.37H48.809a3.509,3.509,0,0,0-6.806,0H37.772a3.1,3.1,0,1,0-4.78,3.37l-1.712,4.8h-.97a.856.856,0,0,0-.856.856v1.8A2.66,2.66,0,0,0,32.112,19.3h5.372a2.659,2.659,0,0,0,2.658-2.655v-1.8a.856.856,0,0,0-.856-.856h-.97L36.6,9.184a3.1,3.1,0,0,0,1.168-1.656H42a3.522,3.522,0,0,0,2.545,2.546v9.6H41.022a1.938,1.938,0,0,0-1.936,1.936v2.649a.856.856,0,0,0,.856.856H50.871a.856.856,0,0,0,.856-.856v-2.65a1.938,1.938,0,0,0-1.936-1.936h-3.53v-9.6a3.519,3.519,0,0,0,2.545-2.546h4.232A3.107,3.107,0,0,0,54.21,9.185l-1.712,4.8h-.97a.856.856,0,0,0-.856.856v1.8A2.66,2.66,0,0,0,53.33,19.3H58.7a2.659,2.659,0,0,0,2.658-2.655v-1.8a.855.855,0,0,0-.856-.856Zm-10.49,7.619V23.4H40.8V21.606a.225.225,0,0,1,.222-.222h8.771A.224.224,0,0,1,50.013,21.606Zm6-16.319a1.384,1.384,0,1,1-1.385,1.386A1.387,1.387,0,0,1,56.016,5.287Zm-21.22,0a1.384,1.384,0,1,1-1.385,1.386A1.386,1.386,0,0,1,34.8,5.287Zm3.631,11.358a.944.944,0,0,1-.945.942H32.11a.945.945,0,0,1-.945-.942V15.7h7.261v.945Zm-1.932-2.658H33.1L34.6,9.761c.063,0,.128.006.192.006s.129,0,.192-.006ZM45.4,8.468a1.8,1.8,0,1,1,1.8-1.8A1.8,1.8,0,0,1,45.4,8.468ZM55.824,9.761c.063,0,.128.006.192.006s.129,0,.192-.006l1.506,4.226h-3.4Zm3.823,6.884a.944.944,0,0,1-.945.942H53.33a.945.945,0,0,1-.945-.942V15.7h7.261v.945Zm-.1,11.214a.856.856,0,0,1-.856.856H32.12a.856.856,0,0,1,0-1.713H58.693A.857.857,0,0,1,59.55,27.859ZM32.12,32.4a.856.856,0,0,1,0-1.713H45.4a.856.856,0,1,1,0,1.713Zm26.073.922a.857.857,0,0,0-.851.282c-1.819,2.158-3.525,2.738-5.888,3.543a36.278,36.278,0,0,0-4.08,1.594l-.04.019a8.019,8.019,0,0,0-1.933,1.42,7.919,7.919,0,0,0-1.925-1.421l-.039-.019a36.278,36.278,0,0,0-4.08-1.594c-2.362-.8-4.069-1.385-5.888-3.543a.857.857,0,0,0-1.488.349A14.352,14.352,0,0,0,45.37,51.709h.066A14.351,14.351,0,0,0,58.828,33.957a.853.853,0,0,0-.636-.631ZM35.833,44.979a12.6,12.6,0,0,1-2.469-9.019,14.2,14.2,0,0,0,5.442,2.812,35,35,0,0,1,3.879,1.511,5.986,5.986,0,0,1,1.676,1.3c-1.393,2.567-.718,5.723-.076,8.316a12.589,12.589,0,0,1-8.452-4.92Zm19.148,0a12.59,12.59,0,0,1-8.061,4.864,14.645,14.645,0,0,1,4.412-4.819.857.857,0,0,0-.948-1.426,16.139,16.139,0,0,0-4.667,4.928c-.744-3.228-1.033-6.376,2.411-8.241a35,35,0,0,1,3.879-1.511,14.192,14.192,0,0,0,5.442-2.812,12.6,12.6,0,0,1-2.468,9.018Z"/>
    </g>
  </g>
</svg>
