<svg xmlns="http://www.w3.org/2000/svg" xmlns:xlink="http://www.w3.org/1999/xlink" width="400" height="330.468" viewBox="0 0 400 330.468">
  <defs>
    <clipPath id="clip-path">
      <rect id="Rectángulo_417777" data-name="Rectángulo 417777" width="400" height="330.468" transform="translate(180 7690.034)" fill="#27454a" stroke="#707070" stroke-width="1" opacity="0.38"/>
    </clipPath>
    <clipPath id="clip-path-2">
      <rect id="Rectángulo_421227" data-name="Rectángulo 421227" width="500.752" height="445.93" fill="none"/>
    </clipPath>
  </defs>
  <g id="Enmascarar_grupo_1211500" data-name="Enmascarar grupo 1211500" transform="translate(-180 -7690.034)" clip-path="url(#clip-path)">
    <g id="Grupo_1222226" data-name="Grupo 1222226" transform="translate(180 7690.034)">
      <rect id="Rectángulo_417777-2" data-name="Rectángulo 417777" width="304" height="330.468" fill="#93ac7d" opacity="0.52"/>
    </g>
    <g id="Grupo_1222291" data-name="Grupo 1222291" transform="translate(124.498 7669.575)">
      <g id="Grupo_1222290" data-name="Grupo 1222290" clip-path="url(#clip-path-2)">
        <path id="Trazado_1174398" data-name="Trazado 1174398" d="M82.669,198.369c0,84.458,70.592,152.927,157.669,152.927s157.669-68.468,157.669-152.927S327.417,45.443,240.338,45.443,82.669,113.911,82.669,198.369" transform="translate(6.975 7.201)" fill="#dcdb22"/>
        <path id="Trazado_1174399" data-name="Trazado 1174399" d="M109.91,94.794s-4.486-1.584-2.639-5.937,8.576-2.374,8.576-2.374-.233-7.33,8.078-8.253S133,85.558,133,85.558a17.327,17.327,0,0,1,3.676-.2c6.046.309,5.677,9.438-.379,9.438Z" transform="translate(235.971 12.386)" fill="#a2c037"/>
        <path id="Trazado_1174400" data-name="Trazado 1174400" d="M327.263,134.27s-4.486-1.584-2.639-5.937,8.576-2.375,8.576-2.375-.233-7.328,8.078-8.252,9.072,7.329,9.072,7.329a17.328,17.328,0,0,1,3.676-.2c6.046.309,5.677,9.438-.379,9.438Z" transform="translate(-233.179 18.642)" fill="#a2c037"/>
        <path id="Trazado_1174401" data-name="Trazado 1174401" d="M188.624,138.515s-3.694-1.3-2.173-4.89,7.063-1.956,7.063-1.956-.192-6.036,6.653-6.8,7.471,6.036,7.471,6.036a14.2,14.2,0,0,1,3.027-.167c4.98.254,4.676,7.772-.312,7.772Z" transform="translate(70.93 19.78)" fill="#a2c037"/>
        <path id="Trazado_1174402" data-name="Trazado 1174402" d="M352.352,93.055l5.344-.913s-.835,4.276-1.3,8.4h-8.511c-.467-4.121-.875-8.4-.875-8.4Z" transform="translate(-258.943 14.602)" fill="#4d8c3f"/>
        <path id="Trazado_1174403" data-name="Trazado 1174403" d="M338.936,83.086A14.694,14.694,0,0,0,350.787,97.5a14.293,14.293,0,0,0,2.838.278,14.457,14.457,0,0,0,2.363-.2,14.694,14.694,0,0,0,1.321-28.73,14.86,14.86,0,0,0-3.684-.463,14.487,14.487,0,0,0-4.031.568,14.7,14.7,0,0,0-10.658,14.133" transform="translate(-260.222 10.837)" fill="#a2c037"/>
        <path id="Trazado_1174404" data-name="Trazado 1174404" d="M351.911,99.389h4.749l-1.775,1.574h-4.977l-1.776-1.574Z" transform="translate(-259.209 15.75)" fill="#a2c037"/>
        <path id="Trazado_1174405" data-name="Trazado 1174405" d="M349.619,97.5a14.293,14.293,0,0,0,2.838.278,14.457,14.457,0,0,0,2.363-.2c1.321-3.07,3.985-10.264,3.672-17.644a29.858,29.858,0,0,0-2.352-11.087,14.86,14.86,0,0,0-3.684-.463,14.486,14.486,0,0,0-4.031.568,39.4,39.4,0,0,0-2,11.735,39.8,39.8,0,0,0,3.2,16.809" transform="translate(-259.054 10.837)" fill="#dcdb22"/>
        <path id="Trazado_1174406" data-name="Trazado 1174406" d="M157.152,82.769a18.721,18.721,0,1,0,18.721-18.721,18.721,18.721,0,0,0-18.721,18.721" transform="translate(124.102 10.15)" fill="#f9f68a"/>
        <path id="Trazado_1174407" data-name="Trazado 1174407" d="M51.962,151.536V132.77h17.1v18.766H84.922v37.486h56.1v31.773H264.915V179.556h3.774v-8.4H286.18v8.4h16.981v44.581h30.961v18.734h92.546V224.137h3.991V214.77h14.173v9.367h14.743v90.247l-414.453.359V151.536Z" transform="translate(-11.094 21.04)" fill="#a2c037"/>
        <rect id="Rectángulo_421206" data-name="Rectángulo 421206" width="5.131" height="5.131" transform="translate(425.217 259.424)" fill="#f9f68a"/>
        <rect id="Rectángulo_421209" data-name="Rectángulo 421209" width="29.497" height="3.848" transform="translate(258.673 206.092)" fill="#dcdb22"/>
        <rect id="Rectángulo_421210" data-name="Rectángulo 421210" width="29.497" height="3.848" transform="translate(258.673 213.043)" fill="#dcdb22"/>
        <rect id="Rectángulo_421211" data-name="Rectángulo 421211" width="4.403" height="8.606" transform="translate(65.397 178.165)" fill="#f9f68a"/>
        <rect id="Rectángulo_421212" data-name="Rectángulo 421212" width="4.403" height="8.606" transform="translate(58.637 178.165)" fill="#f9f68a"/>
        <rect id="Rectángulo_421213" data-name="Rectángulo 421213" width="4.403" height="8.606" transform="translate(51.876 178.165)" fill="#f9f68a"/>
        <rect id="Rectángulo_421214" data-name="Rectángulo 421214" width="4.403" height="8.606" transform="translate(45.117 178.165)" fill="#f9f68a"/>
        <rect id="Rectángulo_421215" data-name="Rectángulo 421215" width="4.403" height="8.606" transform="translate(38.356 178.165)" fill="#f9f68a"/>
        <rect id="Rectángulo_421216" data-name="Rectángulo 421216" width="4.403" height="8.606" transform="translate(65.397 189.502)" fill="#f9f68a"/>
        <rect id="Rectángulo_421217" data-name="Rectángulo 421217" width="4.403" height="8.606" transform="translate(58.637 189.502)" fill="#f9f68a"/>
        <rect id="Rectángulo_421218" data-name="Rectángulo 421218" width="4.403" height="8.606" transform="translate(51.876 189.502)" fill="#f9f68a"/>
        <rect id="Rectángulo_421219" data-name="Rectángulo 421219" width="4.403" height="8.606" transform="translate(45.117 189.502)" fill="#f9f68a"/>
        <rect id="Rectángulo_421220" data-name="Rectángulo 421220" width="4.403" height="8.606" transform="translate(38.356 189.502)" fill="#f9f68a"/>
        <rect id="Rectángulo_421221" data-name="Rectángulo 421221" width="4.403" height="8.606" transform="translate(65.397 200.837)" fill="#f9f68a"/>
        <rect id="Rectángulo_421222" data-name="Rectángulo 421222" width="4.403" height="8.606" transform="translate(58.637 200.837)" fill="#f9f68a"/>
        <rect id="Rectángulo_421223" data-name="Rectángulo 421223" width="4.403" height="8.606" transform="translate(51.876 200.837)" fill="#f9f68a"/>
        <rect id="Rectángulo_421224" data-name="Rectángulo 421224" width="4.403" height="8.606" transform="translate(45.117 200.837)" fill="#f9f68a"/>
        <rect id="Rectángulo_421225" data-name="Rectángulo 421225" width="4.403" height="8.606" transform="translate(38.356 200.837)" fill="#f9f68a"/>
        <path id="Trazado_1174408" data-name="Trazado 1174408" d="M374.718,285.06h6.046l-1.708-74.794h-2.939Z" transform="translate(-314.113 33.321)" fill="#025256"/>
        <path id="Trazado_1174409" data-name="Trazado 1174409" d="M354.6,212.987s3.022,3.78,4.523,4.4c1.163.483,13.453,1.786,18.9,2.346a1.475,1.475,0,0,0,.583-2.878l-23.629-7.272Z" transform="translate(-289.689 33.214)" fill="#ffb43f"/>
        <path id="Trazado_1174410" data-name="Trazado 1174410" d="M377.287,213.806s2.926-3.854,3.163-5.461c.183-1.247-1.558-13.482-2.347-18.9a1.475,1.475,0,0,0-2.933.138L373.9,214.27Z" transform="translate(-312.86 29.821)" fill="#ffb43f"/>
        <path id="Trazado_1174411" data-name="Trazado 1174411" d="M401.607,211.173s-4.563-1.613-6.165-1.347c-1.243.205-12.366,5.593-17.288,8a1.475,1.475,0,0,0,1.026,2.751l23.9-6.315Z" transform="translate(-339.454 33.247)" fill="#ffb43f"/>
        <path id="Trazado_1174412" data-name="Trazado 1174412" d="M373.316,212.323a4.885,4.885,0,1,0,4.884-4.884,4.884,4.884,0,0,0-4.884,4.884" transform="translate(-314.81 32.873)" fill="#ffe1b8"/>
        <path id="Trazado_1174413" data-name="Trazado 1174413" d="M348.564,256.19a19.468,19.468,0,0,1,16.011,8.387,16.451,16.451,0,1,1-1.7,24.322,19.488,19.488,0,1,1-14.31-32.709" transform="translate(-271.645 40.599)" fill="#4d8c3f"/>
        <path id="Trazado_1174414" data-name="Trazado 1174414" d="M68.1,252.067a20.026,20.026,0,0,1,17.009,9.462,16.871,16.871,0,1,1-2.071,23.948A20.048,20.048,0,1,1,68.1,252.067" transform="translate(332.373 39.946)" fill="#4d8c3f"/>
        <path id="Trazado_1174420" data-name="Trazado 1174420" d="M146.485,167.519l45.908,97.014,68.364,15.547L262,313.662l-96.858-11.815s-15.548-3.265-28.763-28.918,10.105-105.409,10.105-105.409" transform="translate(85.458 26.547)" fill="#025256"/>
        <path id="Trazado_1174421" data-name="Trazado 1174421" d="M297.5,133.32s-2.565,2.332-5.364,11.66-3.032,14.459-3.032,14.459-12.127-5.208-17.258-12.9-11.427-16.091-11.427-16.091,9.329-14.147,9.795-20.91l10.028-1.4Z" transform="translate(-98.442 17.136)" fill="#ff9279"/>
        <path id="Trazado_1174422" data-name="Trazado 1174422" d="M229.309,89.532c4.277.178,7.275,5.1,9.057,9.279.012-.658.02-1.315.038-1.972.467-17.025,25.653-44.076,44.076-42.444s25.557,23.589,24.1,34.748c0,0-1.614,19.388-6.977,34.546s-13.855,25.621-21.318,27.487-16.791-2.566-27.751-11.427c-6.091-4.926-10.96-18.968-10.96-18.968s-18.812-3.265-20.522-14.926c-1.58-10.773,2.8-16.635,10.261-16.324" transform="translate(-59.399 8.609)" fill="#ff9279"/>
        <path id="Trazado_1174423" data-name="Trazado 1174423" d="M214.621,154.534c19.358-5.642,19.126-8.584,25.428-12.627S249.838,121,249.838,121c-9.094-3.638-9.789-9.094-9.789-9.094,3.5-7.472,12.824-8.631,12.824-8.631.463,6.059,3.5,13.763,5.711,11.191s.579-13.288,4.078-16.323,10.5-.7,25.892-11.423a42.916,42.916,0,0,0,17.725-26.355c10.067,2.827,21.455,22.613,16.022,50.961-3.429,17.922-9.581,29.622-15.859,36.283-3.661,3.881-7.356,6.036-10.588,6.719-8.781,1.854-20.47-7.009-20.47-7.009-4.784,6.731-6.65,23.587-6.65,23.587,6.684,11.955,26.772,21.27,31.9,23.517.776.324,1.2.5,1.2.5l4.669-9.557s10.5-28.915,20.285-60.171,11.272-57.368-12.28-75.787-38.762-12.755-38.762-12.755-40.581-4.425-55.5,35.449-5.63,82.437-5.63,82.437" transform="translate(-78.065 5.677)" fill="#025256"/>
        <path id="Trazado_1174424" data-name="Trazado 1174424" d="M235.116,155.652c6.684,11.955,26.772,21.27,31.9,23.517a22.61,22.61,0,0,0,.452-4.854c-.012-11.434,2.328-26.865,5.352-41.96-3.661,3.881-7.356,6.036-10.588,6.719-8.781,1.854-20.47-7.009-20.47-7.009-4.784,6.731-6.65,23.586-6.65,23.586" transform="translate(-44.448 20.929)" fill="#003534"/>
        <path id="Trazado_1174425" data-name="Trazado 1174425" d="M323.616,145.077a201.254,201.254,0,0,0,15.742,12.593c18.12,13.346,21.689,16.208,21.689,16.208s8.161,47.341,6.3,59-16.326,75.326-16.326,75.326H239.08s-2.8-55.736-2.8-57.836-12.127-78.124-9.562-84.887,6.764-9.1,6.764-9.1l57.6-29s18.191,23.632,24.021,25.964,8.511-8.278,8.511-8.278" transform="translate(-129.104 20.188)" fill="#005c66"/>
        <path id="Trazado_1174426" data-name="Trazado 1174426" d="M252.445,133.359S286.7,197.549,297,286.177c0,0,10.261-31.405,13.37-65.608s-4.233-68.444-4.233-68.444l-6.916-5.659-7.819,6.512-30.388-23.933Z" transform="translate(-102.839 20.45)" fill="#e0bb96"/>
        <path id="Trazado_1174427" data-name="Trazado 1174427" d="M297.663,139.79a50.484,50.484,0,0,1,2.742,10.047,37.39,37.39,0,0,1,.467,11.777l-9.212-6.063-15.391,8.163s-6.646-12.593-10.844-22.5-3.8-11.573-3.8-11.573l6.31-4.33s19.173,26.223,24.2,26.981c2.06.31,5.536-12.5,5.536-12.5" transform="translate(-103.444 19.858)" fill="#ffddb8"/>
        <path id="Trazado_1174428" data-name="Trazado 1174428" d="M268.638,202.195l-3.989,19.139,30.58,75.018h9.018L299.435,242.9l-8.72-37.859Z" transform="translate(-110.084 32.042)" fill="#034949"/>
        <path id="Trazado_1174429" data-name="Trazado 1174429" d="M276.068,140.381,282.84,212.7s13.526-1.244,39.321,4.431l-28.72-85.491Z" transform="translate(-141.226 20.861)" fill="#025256"/>
        <path id="Trazado_1174430" data-name="Trazado 1174430" d="M246.142,156.513s13.205,39.071,16.315,52.441L240.01,224.189,234.32,147.4Z" transform="translate(-33.158 23.359)" fill="#025256"/>
        <path id="Trazado_1174431" data-name="Trazado 1174431" d="M263.045,206.217l5.889,19.238-19.2,70.259H237.611V273.948L250.3,214.869Z" transform="translate(-43.447 32.68)" fill="#025256"/>
        <path id="Trazado_1174432" data-name="Trazado 1174432" d="M230.405,151.415s10.883,4.519,15.858,18.429,22.387,92.534,22.387,92.534l97.247-26,11.661,28.844s-104.3,47.263-125.569,41.667-42.573-96.859-40.085-120.18,8.861-35.292,18.5-35.292" transform="translate(-122.063 23.995)" fill="#016d72"/>
        <path id="Trazado_1174433" data-name="Trazado 1174433" d="M189.828,207.106s3.068,9.665,2.359,13.207-2.644,4.2-2.644,4.2l-5.77-15.489Z" transform="translate(95.564 32.821)" fill="#4d8c3f"/>
        <path id="Trazado_1174434" data-name="Trazado 1174434" d="M181.319,199.437l3.562-.781a1.629,1.629,0,0,1,1.975,1.691l-.518,8.445-5.159,1.131Z" transform="translate(104 31.475)" fill="#4d8c3f"/>
        <path id="Trazado_1174435" data-name="Trazado 1174435" d="M184.83,210.569a4.463,4.463,0,0,0,2.19,3.012,40.024,40.024,0,0,1,6.036,3.916l29.715-6.986,1.216-8.237v-.012A4.454,4.454,0,0,0,221.3,197.5l-5.317-2.247a4.5,4.5,0,0,0-2.7-.255L189.8,200.143a4.485,4.485,0,0,0-3.325,3.082l-1.552,5.167a4.357,4.357,0,0,0-.093,2.178" transform="translate(62.708 30.886)" fill="#dcdb22"/>
        <path id="Trazado_1174436" data-name="Trazado 1174436" d="M195.823,220.661l16.536-3.623a3.258,3.258,0,0,0,2.487-3.88l-.769-3.507-22.9,5.017.767,3.507a3.257,3.257,0,0,0,3.88,2.485" transform="translate(64.357 33.224)" fill="#4d8c3f"/>
        <path id="Trazado_1174437" data-name="Trazado 1174437" d="M196.077,215.43a20.623,20.623,0,0,0,7.757,10.96c6.18,4.349,8.625,3.576,12.863,13.7a44.131,44.131,0,0,1,3.032,13.8,9.2,9.2,0,0,1-7.239,9.583l-24.84,5.441a9.227,9.227,0,0,1-10.52-5.524c-2.315-5.67-5.127-13.426-5.44-18.307-.541-8.436,4.7-25.332,4.7-25.332Z" transform="translate(82.151 34.14)" fill="#fffeee"/>
        <rect id="Rectángulo_421226" data-name="Rectángulo 421226" width="38.881" height="3.25" transform="translate(275.554 287.529) rotate(-102.351)" fill="#4d8c3f"/>
        <path id="Trazado_1174438" data-name="Trazado 1174438" d="M183.458,226.7l2.132,5.236,7.078,17.389,3.823-1.39a21.041,21.041,0,0,0,7.518-.962,51.649,51.649,0,0,0,10.137-4.367l7.426,1.691a2.573,2.573,0,0,0,.591.07,2.68,2.68,0,0,0,1.819-.718.036.036,0,0,0,.012-.023,2.516,2.516,0,0,0,.684-1,2.676,2.676,0,0,0-1.251-3.313l-2.027-1.077h2.317a3.24,3.24,0,0,0,1.182-6.256l-2.549-1s1.251-.127,2.525-.255a3.281,3.281,0,0,0,2.943-2.908l.012-.07a3.207,3.207,0,0,0-2.213-3.417,119.075,119.075,0,0,0-12.6-2.792l1.355-.209c.162-.023.336-.058.521-.081l.626-.093c.209-.035.417-.07.649-.1l2.977-.452c1.043-.162,2.1-.324,3.047-.463l.382-.081A3.782,3.782,0,0,0,225,218.109c0-.012.023-.023.023-.023a3.882,3.882,0,0,0,.382-2.305l-.012-.093a3.769,3.769,0,0,0-3.881-3.232l-14.782.6a18.494,18.494,0,0,0-10.449,3.788Z" transform="translate(60.373 33.668)" fill="#ff9279"/>
        <path id="Trazado_1174439" data-name="Trazado 1174439" d="M238.443,101.038a23.691,23.691,0,0,0-.575,10.127s4.812,1.149,3.879,4.813-7.613,2.8-7.613,2.8,4.31-1.149,5.171-3.3-3.591-3.592-3.591-3.592-1.077-6.967,2.729-10.846" transform="translate(-12.352 16.012)" fill="#a0625c"/>
        <path id="Trazado_1174440" data-name="Trazado 1174440" d="M226.738,101.126c-.577,2.444-.155,4.636.941,4.895s2.455-1.513,3.032-3.957.155-4.635-.942-4.895-2.454,1.513-3.031,3.957" transform="translate(7.412 15.395)" fill="#025256"/>
        <path id="Trazado_1174441" data-name="Trazado 1174441" d="M247.271,97.336c-.577,2.444-.155,4.636.941,4.895s2.455-1.513,3.032-3.957.155-4.635-.942-4.895-2.454,1.513-3.031,3.957" transform="translate(-36.908 14.794)" fill="#025256"/>
        <path id="Trazado_1174442" data-name="Trazado 1174442" d="M254.592,121.539s-1.108.175-6.471-1.282-6.471-2.157-6.471-2.157,1.108,3.265,6.179,4.664,6.763-1.225,6.763-1.225" transform="translate(-33.785 18.715)" fill="#fff"/>
        <path id="Trazado_1174443" data-name="Trazado 1174443" d="M230.654,92.219s-.117-1.982-2.974-3.032a7.75,7.75,0,0,0-5.3,0s1.865-2.857,5.014-2.332,3.5,3.265,3.265,5.364" transform="translate(12.423 13.754)" fill="#025256"/>
        <path id="Trazado_1174444" data-name="Trazado 1174444" d="M251.383,87.748s-.351-2.186-3.639-3.031a8.645,8.645,0,0,0-5.885.6s1.749-3.378,5.3-3.149,4.246,3.23,4.223,5.584" transform="translate(-30.819 13.019)" fill="#025256"/>
        <path id="Trazado_1174445" data-name="Trazado 1174445" d="M275.384,134.108a39.834,39.834,0,0,1-13.443-14.94s-.8,14.5,10.809,20.271a43.684,43.684,0,0,1,2.634-5.331" transform="translate(-78.069 18.885)" fill="#a0625c"/>
        <path id="Trazado_1174446" data-name="Trazado 1174446" d="M218.662,100.272c-1.614,6.837,1.185,13.35,6.251,14.546s10.483-3.377,12.1-10.214-1.185-13.35-6.251-14.547S220.276,93.435,218.662,100.272Z" transform="translate(10.5 14.241)" fill="none" stroke="#fff" stroke-miterlimit="10" stroke-width="1"/>
        <ellipse id="Elipse_14601" data-name="Elipse 14601" cx="10.262" cy="12.721" rx="10.262" ry="12.721" transform="matrix(-0.973, -0.23, 0.23, -0.973, 218.363, 126.378)" fill="none" stroke="#fff" stroke-miterlimit="10" stroke-width="1"/>
        <path id="Trazado_1174447" data-name="Trazado 1174447" d="M242.282,100.2s-.847-2.457-7.63-1.778" transform="translate(-13.368 15.578)" fill="none" stroke="#fff" stroke-miterlimit="10" stroke-width="1"/>
        <path id="Trazado_1174448" data-name="Trazado 1174448" d="M258.106,94.285s15.978-3.021,26.937-1.161" transform="translate(-83.299 14.662)" fill="none" stroke="#fff" stroke-miterlimit="10" stroke-width="1"/>
        <path id="Trazado_1174449" data-name="Trazado 1174449" d="M238.84,36.536s17.111,5.668,26.378,17.087" transform="translate(-41.156 5.79)" fill="none" stroke="#003534" stroke-linecap="round" stroke-linejoin="round" stroke-width="1"/>
        <path id="Trazado_1174450" data-name="Trazado 1174450" d="M300.914,53.572s5.05,12.776-15.188,28.954-37.977,8.1-50.369,26.559" transform="translate(-73.376 8.49)" fill="none" stroke="#003534" stroke-linecap="round" stroke-linejoin="round" stroke-width="1"/>
        <path id="Trazado_1174451" data-name="Trazado 1174451" d="M319.189,109.342s-2.651,13.222-7.288,18.5-27.926,15.042-27.926,15.042" transform="translate(-147.414 17.328)" fill="none" stroke="#003534" stroke-linecap="round" stroke-linejoin="round" stroke-width="1"/>
        <path id="Trazado_1174452" data-name="Trazado 1174452" d="M298.927,82.153s-6.454,7.155-7.944,16.4" transform="translate(-135.27 13.019)" fill="none" stroke="#003534" stroke-linecap="round" stroke-linejoin="round" stroke-width="1"/>
        <path id="Trazado_1174453" data-name="Trazado 1174453" d="M271.077,240.565s-1.292-60.7-9.467-89.151" transform="translate(-73.393 23.995)" fill="none" stroke="#ad8a6a" stroke-miterlimit="10" stroke-width="1"/>
        <path id="Trazado_1174454" data-name="Trazado 1174454" d="M315.389,206.064s-23.8-5.714-39.321-4.431" transform="translate(-134.454 31.924)" fill="none" stroke="#003534" stroke-linecap="round" stroke-linejoin="round" stroke-width="1"/>
        <path id="Trazado_1174455" data-name="Trazado 1174455" d="M305.938,254.079s-5.118-24.214-10.4-42.851S268.8,131.635,268.8,131.635" transform="translate(-116.587 20.861)" fill="none" stroke="#003534" stroke-linecap="round" stroke-linejoin="round" stroke-width="1"/>
        <path id="Trazado_1174456" data-name="Trazado 1174456" d="M234.319,147.4l5.851,75.366,22.286-13.812" transform="translate(-33.157 23.359)" fill="none" stroke="#003534" stroke-linecap="round" stroke-linejoin="round" stroke-width="1"/>
        <line id="Línea_3629" data-name="Línea 3629" y1="25.657" x2="5.851" transform="translate(201.163 246.125)" fill="none" stroke="#003534" stroke-linecap="round" stroke-linejoin="round" stroke-width="1"/>
        <path id="Trazado_1174457" data-name="Trazado 1174457" d="M326.738,224.754l-97.247,26s-6.192,9.782-7.72,17.975" transform="translate(-82.901 35.617)" fill="none" stroke="#003534" stroke-linecap="round" stroke-linejoin="round" stroke-width="1"/>
        <path id="Trazado_1174458" data-name="Trazado 1174458" d="M347.234,262.4s-15.87-84.032-25.328-98.784-16.191-12.179-16.191-12.179" transform="translate(-200.646 23.972)" fill="none" stroke="#003534" stroke-linecap="round" stroke-linejoin="round" stroke-width="1"/>
        <path id="Trazado_1174459" data-name="Trazado 1174459" d="M226.348,167.519s6.325,43.17,6.574,52.058a50,50,0,0,1-2.187,15.959" transform="translate(5.595 26.547)" fill="none" stroke="#003534" stroke-linecap="round" stroke-linejoin="round" stroke-width="1"/>
        <path id="Trazado_1174460" data-name="Trazado 1174460" d="M217.439,262.715s-7.282,9.081-9.6,14.47" transform="translate(42.536 41.633)" fill="none" stroke="#003534" stroke-linecap="round" stroke-linejoin="round" stroke-width="1"/>
        <path id="Trazado_1174461" data-name="Trazado 1174461" d="M218.771,248.717a3.872,3.872,0,1,0,3.872-3.872,3.871,3.871,0,0,0-3.872,3.872" transform="translate(20.798 38.801)" fill="#005c66"/>
        <path id="Trazado_1174462" data-name="Trazado 1174462" d="M228.7,252.059a3.872,3.872,0,1,0,3.872-3.872,3.871,3.871,0,0,0-3.872,3.872" transform="translate(-0.624 39.331)" fill="#005c66"/>
        <path id="Trazado_1174463" data-name="Trazado 1174463" d="M184.776,209.56a4.463,4.463,0,0,0,2.19,3.012A40.024,40.024,0,0,1,193,216.487l29.715-6.986,1.216-8.237a103.547,103.547,0,0,1-25.359,6.765c-7.009.973-11.249,1.379-13.8,1.529" transform="translate(62.762 31.895)" fill="#bfbb16"/>
        <path id="Trazado_1174464" data-name="Trazado 1174464" d="M164.349,193.723s-.407.074-1.127.246" transform="translate(147.315 30.7)" fill="none" stroke="#fff" stroke-linecap="round" stroke-linejoin="round" stroke-width="0.75"/>
        <path id="Trazado_1174465" data-name="Trazado 1174465" d="M177.616,194.445a49.918,49.918,0,0,0-11.514,5.028" transform="translate(130.711 30.814)" fill="none" stroke="#fff" stroke-linecap="round" stroke-linejoin="round" stroke-width="0.75" stroke-dasharray="1.977 1.977"/>
        <path id="Trazado_1174466" data-name="Trazado 1174466" d="M177.855,199.311q-.487.313-.97.643" transform="translate(117.981 31.585)" fill="none" stroke="#fff" stroke-linecap="round" stroke-linejoin="round" stroke-width="0.75"/>
        <path id="Trazado_1174467" data-name="Trazado 1174467" d="M176.576,204.665s.37.187,1.048.482" transform="translate(118.569 32.434)" fill="none" stroke="#fff" stroke-linecap="round" stroke-linejoin="round" stroke-width="0.75"/>
        <path id="Trazado_1174468" data-name="Trazado 1174468" d="M164.193,205.819a49.907,49.907,0,0,0,12.224,2.9" transform="translate(134.122 32.617)" fill="none" stroke="#fff" stroke-linecap="round" stroke-linejoin="round" stroke-width="0.75" stroke-dasharray="1.977 1.977"/>
        <path id="Trazado_1174469" data-name="Trazado 1174469" d="M162.2,208.413q.577.043,1.162.07" transform="translate(149.486 33.028)" fill="none" stroke="#fff" stroke-linecap="round" stroke-linejoin="round" stroke-width="0.75"/>
        <path id="Trazado_1174470" data-name="Trazado 1174470" d="M162.733,201s-.412.027-1.152.079" transform="translate(150.832 31.853)" fill="none" stroke="#fff" stroke-linecap="round" stroke-linejoin="round" stroke-width="0.75"/>
        <path id="Trazado_1174471" data-name="Trazado 1174471" d="M176.807,201.209c-2.929.221-7.447.587-12.3,1.079" transform="translate(133.37 31.886)" fill="none" stroke="#fff" stroke-linecap="round" stroke-linejoin="round" stroke-width="0.75" stroke-dasharray="1.938 1.938"/>
        <path id="Trazado_1174472" data-name="Trazado 1174472" d="M177.249,202.24l-1.155.122" transform="translate(119.503 32.049)" fill="none" stroke="#fff" stroke-linecap="round" stroke-linejoin="round" stroke-width="0.75"/>
        <path id="Trazado_1174473" data-name="Trazado 1174473" d="M198.01,228.771l-9.805-2.229a28.7,28.7,0,0,1,7.633-.62c3.1.372,3.073,2.941,3.073,2.941Z" transform="translate(83.81 35.789)" fill="#a0625c"/>
        <path id="Trazado_1174474" data-name="Trazado 1174474" d="M198.286,235.072l-9.26-1.446a8.885,8.885,0,0,1,5.341-1.118,4.87,4.87,0,0,1,3.919,2.564" transform="translate(83.485 36.837)" fill="#a0625c"/>
        <path id="Trazado_1174475" data-name="Trazado 1174475" d="M186.786,229.275l7.078,17.389,3.823-1.39a21.041,21.041,0,0,0,7.518-.962,51.649,51.649,0,0,0,10.137-4.367l7.426,1.691a2.573,2.573,0,0,0,.591.07,2.68,2.68,0,0,0,1.819-.718.036.036,0,0,0,.012-.023L213.8,237.6s-3.2,2.977-9.523,4.217-8.758.313-8.758.313Z" transform="translate(59.176 36.334)" fill="#a0625c"/>
        <path id="Trazado_1174476" data-name="Trazado 1174476" d="M185.916,220.011l3.916.765,1.355-.209.521-.081.626-.093.649-.1,2.977-.452,3.047-.463.382-.081a3.782,3.782,0,0,0,2.433-1.958,9.852,9.852,0,0,1-2.871.854c-2.356.352-6.687-.912-9.525-.356s-3.51,2.178-3.51,2.178" transform="translate(83.552 34.442)" fill="#a0625c"/>
        <path id="Trazado_1174477" data-name="Trazado 1174477" d="M113.469,200.131h11.582s-1.165,3.964-2.1,23.087a313.2,313.2,0,0,0,0,32.882h-7.384a313.2,313.2,0,0,0,0-32.882c-.933-19.123-2.1-23.087-2.1-23.087" transform="translate(244.25 31.715)" fill="#025256"/>
        <path id="Trazado_1174478" data-name="Trazado 1174478" d="M132.775,209.574c7.381,2.429,8.163,4.431,10.378,8.4s4.9,3.149,7.463,6.763,1.515,6.413,2.1,8.978,5.13,6.413,5.13,6.413v3.265a21.906,21.906,0,0,0-12.593-6.3c-7.93-1.05-11.777-2.915-13.993-8.978s-4.664-3.964-6.879-8.978-4.664-13.061-3.614-16.791c0,0,2.8,4.2,12.01,7.229" transform="translate(203.294 32.066)" fill="#025256"/>
        <path id="Trazado_1174479" data-name="Trazado 1174479" d="M109.4,208.23c-7.381,2.429-8.163,4.431-10.378,8.4s-4.9,3.149-7.463,6.763-1.515,6.413-2.1,8.978-5.13,6.413-5.13,6.413v3.265a21.906,21.906,0,0,1,12.593-6.3c7.93-1.05,11.777-2.915,13.993-8.978s4.664-3.964,6.879-8.978,4.664-13.061,3.614-16.791c0,0-2.8,4.2-12.01,7.229" transform="translate(281.395 31.853)" fill="#025256"/>
        <path id="Trazado_1174480" data-name="Trazado 1174480" d="M69.245,162.938a58.424,58.424,0,0,0,36.741,54.306,55.215,55.215,0,0,0,7.172,2.362,58.509,58.509,0,1,0-37.905-82.515,58.631,58.631,0,0,0-6.008,25.847" transform="translate(234.297 16.551)" fill="#a2c037"/>
        <path id="Trazado_1174481" data-name="Trazado 1174481" d="M76.11,188.408l2.776,15.781L92.9,211.948l2.459,4.679a55.219,55.219,0,0,0,7.172,2.362v-9.914h13.68l10.97-11.655-2.808-3.266,2.808-5.746,14.224,1.632,13.061-13.049,4.189-10.349,8.87-3.581c.924-8.707-3.266-26.587-3.266-26.587V127.7a58.67,58.67,0,0,0-18-16.107H129.273l-4.9-3.265h-7.259V115.8l12.157,5.137-8.891,5.734-7.586-5.734-10.263,3.722L95.7,136.475l10.534,3.112V149.85s9.523,3.733,10.883,5.126,3.266,8.086,3.266,8.086,4.7-.621,9.359-.74,11.666,0,11.666,0l6.062,14.572-8,6.529-7.857-6.432-22.386-1.959L97.55,183.423H86.373Z" transform="translate(244.92 17.167)" fill="#4d8c3f"/>
        <path id="Trazado_1174482" data-name="Trazado 1174482" d="M143.437,107.664v6.841L132.4,119.947l-2.177,3.731L124,123.056l3.887-9.638,7.618-3.731,1.555-2.022Z" transform="translate(213.659 17.062)" fill="#4d8c3f"/>
        <path id="Trazado_1174483" data-name="Trazado 1174483" d="M143.808,136.125h4.951l4.658-6.062H161.5l6.91-19.524a58.7,58.7,0,0,0-24.606,25.586" transform="translate(165.74 17.517)" fill="#4d8c3f"/>
        <path id="Trazado_1174484" data-name="Trazado 1174484" d="M161.581,156.068a58.344,58.344,0,0,0,6.965,27.719L171.6,172.98l-1.861-7.466,1.861-9.446-9.436-8.271a57.62,57.62,0,0,0-.587,8.271" transform="translate(141.961 23.422)" fill="#4d8c3f"/>
        <path id="Trazado_1174485" data-name="Trazado 1174485" d="M82.666,245.825A8.84,8.84,0,0,0,85.4,252.22l6.059,48.413h65.917l8.017-47.544a8.836,8.836,0,0,0,3.8-7.264Z" transform="translate(235.793 38.957)" fill="#e0bb96"/>
        <line id="Línea_3630" data-name="Línea 3630" x1="61.73" transform="translate(330.31 294.087)" fill="none" stroke="#ad8a6a" stroke-miterlimit="10" stroke-width="1"/>
        <line id="Línea_3631" data-name="Línea 3631" x1="5.295" y2="38.23" transform="translate(387.573 298.39)" fill="none" stroke="#ad8a6a" stroke-miterlimit="10" stroke-width="1"/>
        <path id="Trazado_1174486" data-name="Trazado 1174486" d="M60.118,263.943c10.572-23.476,5.6-49.828,5.6-49.828s-3.73,4.275-17.1,8.939S20.008,235.492,14.1,259.124,7.4,297.7,7.4,297.7s42.151-10.277,52.723-33.753" transform="translate(425.3 33.931)" fill="#dcdb22"/>
        <path id="Trazado_1174487" data-name="Trazado 1174487" d="M0,283.154s9.408-19.638,26.557-25.547,37.36-1.866,37.36-1.866S54.278,282.216,35,288.258s-35-5.1-35-5.1" transform="translate(436.836 40.314)" fill="#4d8c3f"/>
        <path id="Trazado_1174488" data-name="Trazado 1174488" d="M380.271,272.652c-10.571-23.476-5.6-49.828-5.6-49.828s3.73,4.275,17.1,8.94,28.607,12.437,34.514,36.069S433,306.405,433,306.405s-42.152-10.277-52.724-33.753" transform="translate(-364.939 35.311)" fill="#dcdb22"/>
        <path id="Trazado_1174489" data-name="Trazado 1174489" d="M441,291.863s-9.408-19.638-26.557-25.547-37.36-1.866-37.36-1.866,9.639,26.476,28.917,32.517,35-5.1,35-5.1" transform="translate(-377.079 41.694)" fill="#a2c037"/>
        <path id="Trazado_1174490" data-name="Trazado 1174490" d="M457.834,299.869s-49.77-11.828-141.66-20.39-205.127,14.6-205.127,14.6,53.649,50.184,168.692,47.611,178.1-41.821,178.1-41.821" transform="translate(-85.725 43.989)" fill="#dcdb22"/>
        <path id="Trazado_1174491" data-name="Trazado 1174491" d="M471.475,284.323s-28.953-14.309-111.95,4.992-141.093,43.108-221.421,38.6-113.142-34.1-113.142-34.1,48.9,72.061,187.871,73.346,234.194-48.588,258.643-82.842" transform="translate(0.359 44.249)" fill="#a2c037"/>
        <path id="Trazado_1174492" data-name="Trazado 1174492" d="M353.349,286.177v4.12c0,1.074-7.075,1.944-15.8,1.944s-15.8-.87-15.8-1.944v-4.12Z" transform="translate(-225.326 45.351)" fill="#dc911b"/>
        <path id="Trazado_1174493" data-name="Trazado 1174493" d="M321.741,286.443c0,1.074,7.075,1.944,15.8,1.944s15.8-.87,15.8-1.944-7.076-1.943-15.8-1.943-15.8.87-15.8,1.943" transform="translate(-225.324 45.085)" fill="#e7b142"/>
        <path id="Trazado_1174494" data-name="Trazado 1174494" d="M352.175,281.412v4.12c0,1.074-7.075,1.944-15.8,1.944s-15.8-.87-15.8-1.944v-4.12Z" transform="translate(-222.792 44.596)" fill="#dc911b"/>
        <path id="Trazado_1174495" data-name="Trazado 1174495" d="M320.567,281.678c0,1.073,7.075,1.943,15.8,1.943s15.8-.87,15.8-1.943-7.076-1.944-15.8-1.944-15.8.871-15.8,1.944" transform="translate(-222.79 44.33)" fill="#e7b142"/>
        <path id="Trazado_1174496" data-name="Trazado 1174496" d="M353.047,276.883V281c0,1.074-7.075,1.944-15.8,1.944s-15.8-.87-15.8-1.944v-4.12Z" transform="translate(-224.674 43.878)" fill="#dc911b"/>
        <path id="Trazado_1174497" data-name="Trazado 1174497" d="M321.439,277.149c0,1.073,7.075,1.944,15.8,1.944s15.8-.871,15.8-1.944-7.076-1.944-15.8-1.944-15.8.871-15.8,1.944" transform="translate(-224.672 43.612)" fill="#e7b142"/>
        <path id="Trazado_1174498" data-name="Trazado 1174498" d="M352.175,272.588v4.12c0,1.074-7.075,1.944-15.8,1.944s-15.8-.87-15.8-1.944v-4.12Z" transform="translate(-222.792 43.198)" fill="#dc911b"/>
        <path id="Trazado_1174499" data-name="Trazado 1174499" d="M320.567,272.854c0,1.073,7.075,1.943,15.8,1.943s15.8-.87,15.8-1.943-7.076-1.944-15.8-1.944-15.8.871-15.8,1.944" transform="translate(-222.79 42.932)" fill="#e7b142"/>
        <path id="Trazado_1174500" data-name="Trazado 1174500" d="M352.622,268.289v4.12c0,1.074-7.076,1.944-15.8,1.944s-15.8-.87-15.8-1.944v-4.12Z" transform="translate(-223.757 42.516)" fill="#dc911b"/>
        <path id="Trazado_1174501" data-name="Trazado 1174501" d="M321.014,268.555c0,1.073,7.075,1.944,15.8,1.944s15.8-.871,15.8-1.944-7.076-1.943-15.8-1.943-15.8.87-15.8,1.943" transform="translate(-223.754 42.251)" fill="#e7b142"/>
        <path id="Trazado_1174502" data-name="Trazado 1174502" d="M304.372,290.132c-1.344-7.966,3.174-15.372,10.1-16.606v-.006l2.961-.5.063.386c5.857.54,11.01,5.579,12.171,12.456,1.174,6.957-2.125,13.483-7.591,15.85l.053.329-2.091.319c-.191.043-.378.1-.572.131-.345.058-.689.088-1.033.114l-.129.02v-.006c-6.557.421-12.655-4.928-13.931-12.487" transform="translate(-181.485 43.266)" fill="#dc911b"/>
        <path id="Trazado_1174503" data-name="Trazado 1174503" d="M301.494,289.6c1.351,8.005,8.108,13.539,15.094,12.36s11.552-8.624,10.2-16.629-8.108-13.538-15.094-12.36-11.552,8.624-10.2,16.629" transform="translate(-175.273 43.234)" fill="#e7b142"/>
        <path id="Trazado_1174504" data-name="Trazado 1174504" d="M304.172,288.353c.966,5.726,5.8,9.685,10.8,8.841s8.265-6.169,7.3-11.9-5.8-9.685-10.8-8.841-8.265,6.169-7.3,11.9" transform="translate(-173.864 43.793)" fill="#f7c263"/>
        <g id="Grupo_1222305" data-name="Grupo 1222305" transform="translate(-20.981 -9.932)">
          <path id="Trazado_1174415" data-name="Trazado 1174415" d="M33.071,223.484h6.046l-1.708-33.794H34.47Z" transform="translate(412.381 21.864)" fill="#025256"/>
          <path id="Trazado_1174416" data-name="Trazado 1174416" d="M12.951,192.411s3.022,3.78,4.523,4.4c1.163.483,13.452,1.786,18.9,2.346a1.475,1.475,0,0,0,.583-2.878L13.329,189.01Z" transform="translate(436.804 21.756)" fill="#ffb43f"/>
          <path id="Trazado_1174417" data-name="Trazado 1174417" d="M35.64,193.23s2.926-3.854,3.163-5.461c.183-1.247-1.558-13.482-2.347-18.9a1.475,1.475,0,0,0-2.933.138l-1.273,24.691Z" transform="translate(413.634 18.363)" fill="#ffb43f"/>
          <path id="Trazado_1174418" data-name="Trazado 1174418" d="M59.96,190.6s-4.563-1.613-6.165-1.347c-1.243.205-12.366,5.593-17.288,8A1.476,1.476,0,0,0,37.533,200l23.9-6.315Z" transform="translate(387.04 21.789)" fill="#ffb43f"/>
          <path id="Trazado_1174419" data-name="Trazado 1174419" d="M31.669,191.747a4.885,4.885,0,1,0,4.884-4.884,4.884,4.884,0,0,0-4.884,4.884" transform="translate(411.684 21.416)" fill="#ffe1b8"/>
        </g>
        <rect id="Rectángulo_421208" data-name="Rectángulo 421208" width="5.13" height="5.13" transform="translate(420.155 250.819)" fill="#f9f68a"/>
        <rect id="Rectángulo_421207" data-name="Rectángulo 421207" width="5.131" height="5.13" transform="translate(429.588 250.819)" fill="#f9f68a"/>
        <rect id="Rectángulo_421205" data-name="Rectángulo 421205" width="5.131" height="5.131" transform="translate(434.719 259.424)" fill="#f9f68a"/>
        <rect id="Rectángulo_421204" data-name="Rectángulo 421204" width="5.131" height="5.13" transform="translate(439.022 250.819)" fill="#f9f68a"/>
      </g>
    </g>
  </g>
</svg>
