<svg xmlns="http://www.w3.org/2000/svg" width="295" height="113.547" viewBox="0 0 295 113.547">
  <g id="Grupo_1222304" data-name="Grupo 1222304" transform="translate(-1125 -1030.453)">
    <g id="Grupo_1222229" data-name="Grupo 1222229" transform="translate(0 -2413.35)">
      <rect id="Rect치ngulo_421164" data-name="Rect치ngulo 421164" width="295" height="84.35" transform="translate(1125 3463)" fill="#4a5641"/>
      <rect id="Rect치ngulo_421165" data-name="Rect치ngulo 421165" width="221" height="104.35" transform="translate(1162 3453)" fill="#899e78"/>
    </g>
    <g id="FILLED_OUTLINE" transform="translate(1200.199 1014.453)">
      <path id="Trazado_1174544" data-name="Trazado 1174544" d="M155.267,24H75.785A3.785,3.785,0,0,0,72,27.785V80.773a3.785,3.785,0,0,0,3.785,3.785h30.279l9.462,15.14,9.462-15.14h30.279a3.785,3.785,0,0,0,3.785-3.785V27.785A3.785,3.785,0,0,0,155.267,24Z" transform="translate(-42.905 -6.108)" fill="#fcdfd0"/>
      <path id="Trazado_1174545" data-name="Trazado 1174545" d="M7.57,0h3.785a7.57,7.57,0,0,1,7.57,7.57H0A7.57,7.57,0,0,1,7.57,0Z" transform="translate(59.374 65.203) rotate(180)" fill="#f2c34e"/>
      <path id="Trazado_1174546" data-name="Trazado 1174546" d="M7.57,0h3.785a7.57,7.57,0,0,1,7.57,7.57H0A7.57,7.57,0,0,1,7.57,0Z" transform="translate(59.374 65.203) rotate(180)" fill="#d7a25b"/>
      <path id="Trazado_1174547" data-name="Trazado 1174547" d="M118.793,116.928l6.574-14.462,6.523,14.351h4.157l-8.885-19.523a1.892,1.892,0,0,0-3.591,0l-8.936,19.634Z" transform="translate(-75.455 -61.076)" fill="#f1bc75"/>
      <path id="Trazado_1174548" data-name="Trazado 1174548" d="M322.354,248h-1.892a18.924,18.924,0,0,0-18.924,18.924l-5.363,8.045a2.129,2.129,0,0,0,1.771,3.31h3.592v11.355a3.785,3.785,0,0,0,3.785,3.785h3.785v13.247h20.817V293.419l.649-.649a36.55,36.55,0,0,0,10.705-25.845A18.924,18.924,0,0,0,322.354,248Z" transform="translate(-213.776 -177.119)" fill="#4e89de"/>
      <path id="Trazado_1174549" data-name="Trazado 1174549" d="M68.906,274.969l-5.363-8.045A18.924,18.924,0,0,0,44.618,248H42.726A18.924,18.924,0,0,0,23.8,266.925a36.55,36.55,0,0,0,10.705,25.845l.649.649v13.247H55.973V293.419h3.785a3.785,3.785,0,0,0,3.785-3.785V278.279h3.592a2.129,2.129,0,0,0,1.771-3.31Z" transform="translate(-6.108 -177.119)" fill="#4e89de"/>
      <path id="Trazado_1174550" data-name="Trazado 1174550" d="M248,80h3.785v34.064H248Z" transform="translate(-177.271 -48.86)" fill="#f1bc75"/>
      <path id="Trazado_1174551" data-name="Trazado 1174551" d="M216,223.57v-3.785A3.785,3.785,0,0,1,219.785,216H231.14a3.785,3.785,0,0,1,3.785,3.785v3.785Z" transform="translate(-152.841 -152.689)" fill="#d7a25b"/>
      <path id="Trazado_1174552" data-name="Trazado 1174552" d="M7.57,0h3.785a7.57,7.57,0,0,1,7.57,7.57H0A7.57,7.57,0,0,1,7.57,0Z" transform="translate(104.793 53.849) rotate(180)" fill="#d7a25b"/>
      <path id="Trazado_1174553" data-name="Trazado 1174553" d="M311.007,68.817l6.523-14.351,6.523,14.351h4.157l-8.885-19.523a1.892,1.892,0,0,0-3.591,0l-8.885,19.523Z" transform="translate(-222.199 -24.43)" fill="#f1bc75"/>
      <path id="Trazado_1174554" data-name="Trazado 1174554" d="M0,0H80.845V3.785H0Z" transform="translate(34.097 57.748) rotate(-20.556)" fill="#68a3f8"/>
      <path id="Trazado_1174555" data-name="Trazado 1174555" d="M0,0H60.588V3.785H0Z" transform="matrix(0.968, -0.25, 0.25, 0.968, 41.864, 36.869)" fill="#f2c383"/>
      <circle id="Elipse_14604" data-name="Elipse 14604" cx="3.785" cy="3.785" r="3.785" transform="translate(68.837 25.462)" fill="#d7a25b"/>
      <g id="Grupo_1222303" data-name="Grupo 1222303" transform="translate(15.801 16)">
        <path id="Trazado_1174556" data-name="Trazado 1174556" d="M108.578,240h-1.892a20.78,20.78,0,0,0-16.041,7.57H82.084a1.893,1.893,0,0,0-1.6.889l-7.857,12.572-7.857-12.572a1.892,1.892,0,0,0-1.6-.889H54.551A20.779,20.779,0,0,0,38.511,240H36.618A20.84,20.84,0,0,0,15.8,260.817,38.191,38.191,0,0,0,27.061,288l.1.1v12.463h3.785V287.311a1.892,1.892,0,0,0-.554-1.338l-.649-.649a34.43,34.43,0,0,1-10.151-24.507,17.051,17.051,0,0,1,17.032-17.032h1.893a17.051,17.051,0,0,1,17.032,17.032,1.892,1.892,0,0,0,.318,1.05l5.363,8.045a.237.237,0,0,1-.2.368H57.435a1.892,1.892,0,0,0-1.892,1.892v11.355a1.9,1.9,0,0,1-1.892,1.892H49.865a1.892,1.892,0,0,0-1.892,1.892v13.247h3.785V289.2H53.65a5.684,5.684,0,0,0,5.677-5.677v-9.462h1.7a4.021,4.021,0,0,0,3.346-6.252l-5.053-7.58a20.673,20.673,0,0,0-2.271-8.877H62.11l8.906,14.25a1.893,1.893,0,0,0,3.21,0l8.906-14.25h5.016a20.673,20.673,0,0,0-2.271,8.877l-5.053,7.58a4.021,4.021,0,0,0,3.346,6.252h1.7v9.462a5.684,5.684,0,0,0,5.677,5.677h1.892v11.355h3.785V287.311a1.892,1.892,0,0,0-1.892-1.892H91.546a1.9,1.9,0,0,1-1.892-1.892V272.171a1.892,1.892,0,0,0-1.892-1.892H84.169a.237.237,0,0,1-.2-.368l5.363-8.045a1.892,1.892,0,0,0,.318-1.05,17.051,17.051,0,0,1,17.032-17.032h1.892a17.051,17.051,0,0,1,17.032,17.032,34.431,34.431,0,0,1-10.151,24.507l-.649.649a1.893,1.893,0,0,0-.554,1.338v13.247h3.785V288.095l.1-.095a38.192,38.192,0,0,0,11.26-27.183A20.84,20.84,0,0,0,108.578,240Z" transform="translate(-15.801 -187.012)" fill="#0f3c68"/>
        <path id="Trazado_1174557" data-name="Trazado 1174557" d="M67.785,21.677a1.9,1.9,0,0,1,1.892-1.892H149.16a1.9,1.9,0,0,1,1.892,1.892V67.1h3.785V21.677A5.684,5.684,0,0,0,149.16,16H69.677A5.684,5.684,0,0,0,64,21.677V67.1h3.785Z" transform="translate(-52.598 -16)" fill="#0f3c68"/>
        <path id="Trazado_1174558" data-name="Trazado 1174558" d="M168.888,47.884l-9.074,3.4L156.9,44.865l3.668-.947-.946-3.665-22.5,5.806a5.678,5.678,0,0,0-10.98,2.833l-25.188,6.5.946,3.665,3.767-.972-7.4,16.282-5.073,1.9,1.329,3.544,3.424-1.284a9.479,9.479,0,0,0,9.159,7.082h3.785a9.473,9.473,0,0,0,9.462-9.462,1.882,1.882,0,0,0-.171-.783h0l-2.01-4.421,11.642-4.366V79.935h-3.785a5.684,5.684,0,0,0-5.677,5.677V89.4a1.892,1.892,0,0,0,1.892,1.892h18.924a1.892,1.892,0,0,0,1.892-1.892V85.612a5.684,5.684,0,0,0-5.677-5.677H133.6V65.161l10.982-4.118-1.35,2.97h0a1.882,1.882,0,0,0-.171.783,9.473,9.473,0,0,0,9.462,9.462h3.785a9.473,9.473,0,0,0,9.462-9.462,1.882,1.882,0,0,0-.171-.783h0l-4.215-9.272,8.834-3.313Zm-11.057,8.188,3.1,6.831H147.89l1.7-3.74Zm-3.418-7.52,1.849,4.067L151.8,54.29ZM108.995,59.907l4.053,8.918-9.773,3.665Zm5.623,12.371.9,1.98h-6.18Zm-3.731,9.55H107.1a5.687,5.687,0,0,1-5.353-3.785H116.24a5.687,5.687,0,0,1-5.353,3.785ZM116.6,67.492l-4.975-10.944,16.618-4.288a5.671,5.671,0,0,0,1.569.856v9.423ZM137.381,83.72a1.9,1.9,0,0,1,1.892,1.892V87.5h-15.14V85.612a1.9,1.9,0,0,1,1.892-1.892ZM131.7,49.656a1.892,1.892,0,1,1,1.892-1.892A1.892,1.892,0,0,1,131.7,49.656ZM133.6,61.119v-8a5.707,5.707,0,0,0,3.315-3.093l14.361-3.706-4.479,9.853Zm28.062,5.569a5.687,5.687,0,0,1-5.353,3.785h-3.785a5.687,5.687,0,0,1-5.353-3.785Z" transform="translate(-74.884 -34.516)" fill="#0f3c68"/>
      </g>
    </g>
  </g>
</svg>
