<svg xmlns="http://www.w3.org/2000/svg" xmlns:xlink="http://www.w3.org/1999/xlink" width="108" height="108" viewBox="0 0 108 108">
  <defs>
    <filter id="Trazado_904820" x="0" y="0" width="108" height="108" filterUnits="userSpaceOnUse">
      <feOffset dy="3" input="SourceAlpha"/>
      <feGaussianBlur stdDeviation="3" result="blur"/>
      <feFlood flood-opacity="0.161"/>
      <feComposite operator="in" in2="blur"/>
      <feComposite in="SourceGraphic"/>
    </filter>
  </defs>
  <g id="Grupo_1222205" data-name="Grupo 1222205" transform="translate(9 6)">
    <g id="Grupo_1173585" data-name="Grupo 1173585" transform="translate(0 0)">
      <g id="Grupo_1173428" data-name="Grupo 1173428">
        <g id="Grupo_1171958" data-name="Grupo 1171958">
          <g id="Grupo_1167341" data-name="Grupo 1167341">
            <g id="Grupo_1166792" data-name="Grupo 1166792">
              <g transform="matrix(1, 0, 0, 1, -9, -6)" filter="url(#Trazado_904820)">
                <g id="Trazado_904820-2" data-name="Trazado 904820" transform="translate(9 6)" fill="#f2f4f0">
                  <path d="M 44.99999618530273 88.49997711181641 C 39.12687301635742 88.49997711181641 33.43022155761719 87.35005187988281 28.06829643249512 85.0821533203125 C 22.88852119445801 82.89128875732422 18.23629570007324 79.75457763671875 14.24084663391113 75.75912475585938 C 10.24540901184082 71.76367950439453 7.108683586120605 67.1114501953125 4.917821407318115 61.93169021606445 C 2.649921178817749 56.56975173950195 1.499996185302734 50.87311172485352 1.499996185302734 44.9999885559082 C 1.499996185302734 39.12686538696289 2.649921178817749 33.43021392822266 4.917821407318115 28.06828880310059 C 7.108683586120605 22.88851356506348 10.24540901184082 18.23630142211914 14.24084663391113 14.24085140228271 C 18.23629570007324 10.24540138244629 22.88852119445801 7.108688354492188 28.06829643249512 4.917826175689697 C 33.43022155761719 2.649925947189331 39.12687301635742 1.500001072883606 44.99999618530273 1.500001072883606 C 50.87311935424805 1.500001072883606 56.56977081298828 2.649925947189331 61.93169784545898 4.917826175689697 C 67.11147308349609 7.108688354492188 71.76369476318359 10.24540138244629 75.75914764404297 14.24085140228271 C 79.75458526611328 18.23630142211914 82.89131164550781 22.88851356506348 85.08216857910156 28.06828880310059 C 87.35007476806641 33.43021392822266 88.5 39.12686538696289 88.5 44.9999885559082 C 88.5 50.87311172485352 87.35007476806641 56.56975173950195 85.08216857910156 61.93169021606445 C 82.89131164550781 67.1114501953125 79.75458526611328 71.76367950439453 75.75914764404297 75.75912475585938 C 71.76369476318359 79.75457763671875 67.11147308349609 82.89128875732422 61.93169784545898 85.0821533203125 C 56.56977081298828 87.35005187988281 50.87311935424805 88.49997711181641 44.99999618530273 88.49997711181641 Z" stroke="none"/>
                  <path d="M 44.99999618530273 3 C 39.32870864868164 3 33.82865142822266 4.110061645507812 28.65262603759766 6.299331665039062 C 23.65165710449219 8.414573669433594 19.15968322753906 11.44332885742188 15.301513671875 15.301513671875 C 11.44333648681641 19.15969085693359 8.414566040039062 23.65164947509766 6.299339294433594 28.65261840820312 C 4.110054016113281 33.82864379882812 2.999992370605469 39.32870101928711 2.999992370605469 44.9999885559082 C 2.999992370605469 50.6712760925293 4.110054016113281 56.17131805419922 6.299339294433594 61.34735870361328 C 8.414566040039062 66.34832763671875 11.44333648681641 70.84028625488281 15.301513671875 74.69845581054688 C 19.15968322753906 78.55663299560547 23.65165710449219 81.58540344238281 28.65262603759766 83.70063018798828 C 33.82865142822266 85.88991546630859 39.32870864868164 86.99997711181641 44.99999618530273 86.99997711181641 C 50.67128372192383 86.99997711181641 56.17134094238281 85.88991546630859 61.34736633300781 83.70063018798828 C 66.34834289550781 81.58540344238281 70.84030914306641 78.55663299560547 74.69847869873047 74.69845581054688 C 78.55665588378906 70.84028625488281 81.58542633056641 66.34832763671875 83.70065307617188 61.34735870361328 C 85.88993835449219 56.17131805419922 87 50.6712760925293 87 44.9999885559082 C 87 39.32870101928711 85.88993835449219 33.82864379882812 83.70065307617188 28.65261840820312 C 81.58542633056641 23.65164947509766 78.55665588378906 19.15969085693359 74.69847869873047 15.301513671875 C 70.84030914306641 11.44332885742188 66.34834289550781 8.414573669433594 61.34736633300781 6.299331665039062 C 56.17134094238281 4.110061645507812 50.67128372192383 3 44.99999618530273 3 M 44.99999618530273 0 C 69.85281372070312 0 90 20.14717102050781 90 44.9999885559082 C 90 69.85279083251953 69.85281372070312 89.99997711181641 44.99999618530273 89.99997711181641 C 20.14717864990234 89.99997711181641 -7.62939453125e-06 69.85279083251953 -7.62939453125e-06 44.9999885559082 C -7.62939453125e-06 20.14717102050781 20.14717864990234 0 44.99999618530273 0 Z" stroke="none" fill="#899e78"/>
                </g>
              </g>
            </g>
          </g>
        </g>
      </g>
    </g>
    <g id="lawyer_12308491" transform="translate(18.457 13.647)">
      <path id="Trazado_1174347" data-name="Trazado 1174347" d="M55,52h7.136A3.568,3.568,0,1,1,55,52Z" transform="translate(-5.942 -5.618)" fill="#f7a539"/>
      <circle id="Elipse_14597" data-name="Elipse 14597" cx="2.23" cy="2.23" r="2.23" transform="translate(44.152 36.125)" fill="#f7a539"/>
      <path id="Trazado_1174348" data-name="Trazado 1174348" d="M53.136,59A3.563,3.563,0,0,1,56.7,62.568H46A3.567,3.567,0,0,1,49.568,59Z" transform="translate(-4.97 -6.374)" fill="#ae672b"/>
      <path id="Trazado_1174349" data-name="Trazado 1174349" d="M41,52h7.136A3.568,3.568,0,1,1,41,52Z" transform="translate(-4.429 -5.618)" fill="#f7a539"/>
      <path id="Trazado_1174350" data-name="Trazado 1174350" d="M47.069,42.676H43.055L34.136,40,37.7,44.46,35.92,47.136v5.352L27,60.515H43.947a3.567,3.567,0,0,1,3.568-3.568H49.3V44.906A2.231,2.231,0,0,1,47.069,42.676ZM45.58,53.228A3.57,3.57,0,0,1,39.488,50.7h7.136A3.59,3.59,0,0,1,45.58,53.228Z" transform="translate(-2.917 -4.321)" fill="#666"/>
      <path id="Trazado_1174351" data-name="Trazado 1174351" d="M29.988,51.926,34.136,40,37.7,44.46,35.92,47.136v5.352L27,60.515Z" transform="translate(-2.917 -4.321)" fill="#999"/>
      <path id="Trazado_1174352" data-name="Trazado 1174352" d="M7.244,60.515H1V51.6c0-5.057,4.13-8.215,8.92-9.812L17.055,40l-3.568,4.46,1.784,2.676v5.352l8.92,8.028Z" transform="translate(-0.108 -4.321)" fill="#666"/>
      <path id="Trazado_1174353" data-name="Trazado 1174353" d="M22.716,51.926l2.988,8.59-8.92-8.028V47.136L15,44.46,18.568,40Z" transform="translate(-1.621 -4.321)" fill="#999"/>
      <path id="Trazado_1174354" data-name="Trazado 1174354" d="M26.638,45l2.988,7.466-2.988,8.59-2.988-8.59Z" transform="translate(-2.555 -4.862)" fill="#666"/>
      <path id="Trazado_1174355" data-name="Trazado 1174355" d="M34.136,40,29.988,51.926,27,44.46Z" transform="translate(-2.917 -4.321)" fill="#e6e6e6"/>
      <path id="Trazado_1174356" data-name="Trazado 1174356" d="M26.136,44.46l-2.988,7.466L19,40Z" transform="translate(-2.053 -4.321)" fill="#e6e6e6"/>
      <path id="Trazado_1174357" data-name="Trazado 1174357" d="M15.46,15.784V24.7a15.035,15.035,0,0,1-2.23-2.337A9.659,9.659,0,0,1,11,16.676a2.924,2.924,0,0,1,.651-2.007A2.076,2.076,0,0,1,13.23,14,2.114,2.114,0,0,1,15.46,15.784Z" transform="translate(-1.188 -1.512)" fill="#e09b8d"/>
      <path id="Trazado_1174358" data-name="Trazado 1174358" d="M33.271,33.55V39.3l-7.136,4.46L19,39.3V33.55a9.745,9.745,0,0,0,7.136,3.077A9.925,9.925,0,0,0,33.271,33.55Z" transform="translate(-2.053 -3.625)" fill="#e09b8d"/>
      <path id="Trazado_1174359" data-name="Trazado 1174359" d="M41.809,14.669a2.924,2.924,0,0,1,.651,2.007C42.46,21.136,38,24.7,38,24.7v-8.92a1.669,1.669,0,0,1,.651-1.231A2.508,2.508,0,0,1,40.23,14,2.076,2.076,0,0,1,41.809,14.669Z" transform="translate(-4.105 -1.512)" fill="#e09b8d"/>
      <path id="Trazado_1174360" data-name="Trazado 1174360" d="M18.676,31.222A9.782,9.782,0,0,1,16,24.488v-8.92h1.365a6.46,6.46,0,0,0,3.389-.963A6.586,6.586,0,0,0,23.136,12a6.459,6.459,0,0,0,5.771,3.568h6.717v8.92a9.782,9.782,0,0,1-2.676,6.734A9.925,9.925,0,0,1,25.812,34.3,9.745,9.745,0,0,1,18.676,31.222Z" transform="translate(-1.729 -1.296)" fill="#f4baa6"/>
      <path id="Trazado_1174361" data-name="Trazado 1174361" d="M13.23,12.6a2.076,2.076,0,0,0-1.579.669A2.924,2.924,0,0,0,11,15.271V11.7A10.689,10.689,0,0,1,21.7,1h7.136a10.7,10.7,0,0,1,10.7,10.7v3.568a2.924,2.924,0,0,0-.651-2.007,2.076,2.076,0,0,0-1.579-.669,2.508,2.508,0,0,0-1.579.553,1.669,1.669,0,0,0-.651,1.231H28.367A6.459,6.459,0,0,1,22.6,10.812a6.586,6.586,0,0,1-2.382,2.6,6.46,6.46,0,0,1-3.389.963H15.46A2.114,2.114,0,0,0,13.23,12.6Z" transform="translate(-1.188 -0.108)" fill="#ae672b"/>
      <g id="Grupo_1222281" data-name="Grupo 1222281" transform="translate(0)">
        <path id="Trazado_1174362" data-name="Trazado 1174362" d="M26.892,27.46a.891.891,0,0,0,.892-.892V23.892a.892.892,0,0,0-1.784,0v2.676A.891.891,0,0,0,26.892,27.46Z" transform="translate(-2.809 -2.485)" fill="#252525"/>
        <path id="Trazado_1174363" data-name="Trazado 1174363" d="M28.624,29.251a3.089,3.089,0,0,1-2.056.641,3.1,3.1,0,0,1-2.054-.64.892.892,0,0,0-1.252,1.27,4.732,4.732,0,0,0,3.307,1.153,4.732,4.732,0,0,0,3.307-1.153.885.885,0,0,0,.005-1.245.9.9,0,0,0-1.256-.026Z" transform="translate(-2.485 -3.133)" fill="#252525"/>
        <path id="Trazado_1174364" data-name="Trazado 1174364" d="M30.892,5.784A6.284,6.284,0,0,1,36.3,8.908a.892.892,0,1,0,1.541-.9A8.076,8.076,0,0,0,30.891,4a.892.892,0,1,0,0,1.784Z" transform="translate(-3.241 -0.432)" fill="#252525"/>
        <path id="Trazado_1174365" data-name="Trazado 1174365" d="M11.892,59.784H15.46a.892.892,0,1,0,0-1.784H11.892a.892.892,0,1,0,0,1.784Z" transform="translate(-1.188 -6.266)" fill="#252525"/>
        <path id="Trazado_1174366" data-name="Trazado 1174366" d="M53.441,37.992a.841.841,0,0,0-.815-.53H49.359a3.115,3.115,0,0,0-2.085-2.085V33.895a.892.892,0,0,0-1.784,0v1.483a3.115,3.115,0,0,0-2.085,2.085H40.27l-8.159-2.448V30.254a10.632,10.632,0,0,0,2.655-6.634c1.068-.945,4.48-4.289,4.48-8.456V11.6A11.609,11.609,0,0,0,27.651,0H20.515A11.582,11.582,0,0,0,8.92,11.6v3.568A10.305,10.305,0,0,0,11.335,21.4,16.478,16.478,0,0,0,13.4,23.617a10.632,10.632,0,0,0,2.655,6.636v4.728L9.53,36.616C3.384,38.664,0,42.449,0,47.273v8.92a.891.891,0,0,0,.892.892H51.734a.891.891,0,0,0,.892-.892,4.455,4.455,0,0,0-4.46-4.46h-.892V41.33a3.115,3.115,0,0,0,2.085-2.085h1.895s-3.087,7.133-3.087,7.136a4.46,4.46,0,1,0,8.92,0s-3.645-8.39-3.645-8.39Zm1.38,7.5h-4.39l2.2-4.94Zm-16.878,0,2.2-4.94,2.2,4.94Zm4.719,1.784a2.677,2.677,0,0,1-5.047,0ZM15.906,42.319l-1.423-2.134,2.152-2.69L22.1,53.209l-6.046-5.441V42.813a.9.9,0,0,0-.15-.5Zm8.178-8.425a10.717,10.717,0,0,0,6.244-2.015v3.3l-6.244,3.9-6.244-3.9v-3.3A10.578,10.578,0,0,0,24.083,33.895Zm-5.462,3.882L22.978,40.5l-1.824,4.558Zm5.462,4.762,2.035,5.087-2.035,5.852-2.035-5.852Zm2.929,2.518L25.188,40.5l4.356-2.723ZM31.53,37.5l2.152,2.69L32.26,42.319a.9.9,0,0,0-.15.5v4.955L26.064,53.21,31.53,37.5Zm3.256-16.434V14.271a.814.814,0,0,1,.326-.542,1.614,1.614,0,0,1,1.011-.35,1.2,1.2,0,0,1,.915.374,2.088,2.088,0,0,1,.423,1.41A9.479,9.479,0,0,1,34.786,21.061ZM13.573,4.653a9.752,9.752,0,0,1,6.942-2.869h7.136a10.1,10.1,0,0,1,9.812,10.125,5.371,5.371,0,0,0-1.338-.313,3.389,3.389,0,0,0-2.153.763,2.824,2.824,0,0,0-.777,1.021H27.178A5.54,5.54,0,0,1,22.2,10.3a.892.892,0,0,0-.795-.491h0a.893.893,0,0,0-.8.488,5.686,5.686,0,0,1-2.054,2.249,5.569,5.569,0,0,1-2.921.831H14.97A3.227,3.227,0,0,0,12.042,11.6a5.542,5.542,0,0,0-1.338.3,10.468,10.468,0,0,1,2.869-7.245ZM10.7,15.163a2.088,2.088,0,0,1,.424-1.411,1.2,1.2,0,0,1,.914-.373c.776,0,1.338.533,1.338.892v6.8c-.205-.231-.417-.481-.63-.757A8.893,8.893,0,0,1,10.7,15.163Zm4.46,0h.473a7.353,7.353,0,0,0,3.862-1.1,7.469,7.469,0,0,0,1.9-1.707,7.3,7.3,0,0,0,5.775,2.806H33v8.028a8.911,8.911,0,0,1-2.456,6.147,9.051,9.051,0,0,1-6.464,2.772,8.92,8.92,0,0,1-8.92-8.92ZM1.784,47.274c0-5.391,5.206-7.931,8.244-8.946L14.6,37.185l-1.917,2.4a.9.9,0,0,0-.045,1.053l1.634,2.451v5.082a.89.89,0,0,0,.3.663L21.759,55.3H8.028V49.951a.892.892,0,0,0-1.784,0V55.3H1.784V47.275ZM50.055,54.3a2.746,2.746,0,0,1,.633,1.006H42.075A2.681,2.681,0,0,1,44.6,53.518h3.568A2.685,2.685,0,0,1,50.055,54.3ZM44.6,51.734a4.468,4.468,0,0,0-4.37,3.568H26.408L33.6,48.829a.89.89,0,0,0,.3-.663V43.085l1.634-2.451a.894.894,0,0,0-.045-1.053L33.7,37.356l5.209,1.563s-3.233,7.461-3.233,7.464a4.46,4.46,0,1,0,8.92,0s-3.087-7.136-3.087-7.136h1.895a3.115,3.115,0,0,0,2.085,2.085v10.4Zm1.784-12.042a1.338,1.338,0,1,1,1.338-1.338A1.34,1.34,0,0,1,46.382,39.692Zm8.142,8.579a2.679,2.679,0,0,1-4.421-1h5.047a2.7,2.7,0,0,1-.625,1Z" transform="translate(0)" fill="#252525"/>
        <circle id="Elipse_14598" data-name="Elipse 14598" cx="1.5" cy="1.5" r="1.5" transform="translate(25.543 17.543)" fill="#252525"/>
        <circle id="Elipse_14599" data-name="Elipse 14599" cx="1.5" cy="1.5" r="1.5" transform="translate(19.543 17.543)" fill="#252525"/>
      </g>
    </g>
  </g>
</svg>
