<svg xmlns="http://www.w3.org/2000/svg" xmlns:xlink="http://www.w3.org/1999/xlink" width="113" height="113" viewBox="0 0 113 113">
  <defs>
    <filter id="Trazado_982547" x="0" y="0" width="113" height="113" filterUnits="userSpaceOnUse">
      <feOffset dy="3" input="SourceAlpha"/>
      <feGaussianBlur stdDeviation="3" result="blur"/>
      <feFlood flood-opacity="0.161"/>
      <feComposite operator="in" in2="blur"/>
      <feComposite in="SourceGraphic"/>
    </filter>
  </defs>
  <g id="Grupo_1222371" data-name="Grupo 1222371" transform="translate(-323.75 -2234.611)">
    <g id="Grupo_1222271" data-name="Grupo 1222271" transform="translate(332.75 2240.611)">
      <g id="Grupo_1202185" data-name="Grupo 1202185">
        <g id="Grupo_1174813" data-name="Grupo 1174813">
          <g id="Grupo_1201680" data-name="Grupo 1201680">
            <g id="Grupo_1201330" data-name="Grupo 1201330">
              <g id="Grupo_1172010" data-name="Grupo 1172010">
                <g id="Grupo_1171046" data-name="Grupo 1171046">
                  <g id="Grupo_1148525" data-name="Grupo 1148525">
                    <g transform="matrix(1, 0, 0, 1, -9, -6)" filter="url(#Trazado_982547)">
                      <g id="Trazado_982547-2" data-name="Trazado 982547" transform="translate(9 6)" fill="#f2f4f0">
                        <path d="M 47.5 93.5 C 41.28937149047852 93.5 35.26533508300781 92.28397369384766 29.59518623352051 89.88570404052734 C 24.11771965026855 87.56893157958984 19.19813346862793 84.25196075439453 14.97309303283691 80.02691650390625 C 10.74804019927979 75.80186462402344 7.431066513061523 70.88229370117188 5.114293098449707 65.40481567382812 C 2.716026782989502 59.73468017578125 1.5 53.71062850952148 1.5 47.5 C 1.5 41.28937149047852 2.716026782989502 35.26533508300781 5.114293098449707 29.59518623352051 C 7.431066513061523 24.11771965026855 10.74804019927979 19.19813346862793 14.97309303283691 14.97309303283691 C 19.19813346862793 10.74804019927979 24.11771965026855 7.431066513061523 29.59518623352051 5.114293098449707 C 35.26533508300781 2.716026782989502 41.28937149047852 1.5 47.5 1.5 C 53.71062850952148 1.5 59.73468017578125 2.716026782989502 65.40481567382812 5.114293098449707 C 70.88229370117188 7.431066513061523 75.80186462402344 10.74804019927979 80.02691650390625 14.97309303283691 C 84.25196075439453 19.19813346862793 87.56893157958984 24.11771965026855 89.88570404052734 29.59518623352051 C 92.28397369384766 35.26533508300781 93.5 41.28937149047852 93.5 47.5 C 93.5 53.71062850952148 92.28397369384766 59.73468017578125 89.88570404052734 65.40481567382812 C 87.56893157958984 70.88229370117188 84.25196075439453 75.80186462402344 80.02691650390625 80.02691650390625 C 75.80186462402344 84.25196075439453 70.88229370117188 87.56893157958984 65.40481567382812 89.88570404052734 C 59.73468017578125 92.28397369384766 53.71062850952148 93.5 47.5 93.5 Z" stroke="none"/>
                        <path d="M 47.5 3 C 41.49121475219727 3 35.66376876831055 4.176155090332031 30.17950439453125 6.495796203613281 C 24.88084411621094 8.736953735351562 20.12152099609375 11.94598388671875 16.03375244140625 16.03375244140625 C 11.94598388671875 20.12152099609375 8.736953735351562 24.88084411621094 6.495796203613281 30.17950439453125 C 4.176155090332031 35.66376876831055 3 41.49121475219727 3 47.5 C 3 53.50878524780273 4.176155090332031 59.33623123168945 6.495796203613281 64.82049560546875 C 8.736953735351562 70.11915588378906 11.94598388671875 74.87847900390625 16.03375244140625 78.96624755859375 C 20.12152099609375 83.05401611328125 24.88084411621094 86.26304626464844 30.17950439453125 88.50419616699219 C 35.66376876831055 90.82384490966797 41.49121475219727 92 47.5 92 C 53.50878524780273 92 59.33623123168945 90.82384490966797 64.82049560546875 88.50419616699219 C 70.11915588378906 86.26304626464844 74.87847900390625 83.05401611328125 78.96624755859375 78.96624755859375 C 83.05401611328125 74.87847900390625 86.26304626464844 70.11915588378906 88.50419616699219 64.82049560546875 C 90.82384490966797 59.33623123168945 92 53.50878524780273 92 47.5 C 92 41.49121475219727 90.82384490966797 35.66376876831055 88.50419616699219 30.17950439453125 C 86.26304626464844 24.88084411621094 83.05401611328125 20.12152099609375 78.96624755859375 16.03375244140625 C 74.87847900390625 11.94598388671875 70.11915588378906 8.736953735351562 64.82049560546875 6.495796203613281 C 59.33623123168945 4.176155090332031 53.50878524780273 3 47.5 3 M 47.5 0 C 73.7335205078125 0 95 21.2664794921875 95 47.5 C 95 73.7335205078125 73.7335205078125 95 47.5 95 C 21.2664794921875 95 0 73.7335205078125 0 47.5 C 0 21.2664794921875 21.2664794921875 0 47.5 0 Z" stroke="none" fill="#899e78"/>
                      </g>
                    </g>
                  </g>
                </g>
              </g>
            </g>
          </g>
        </g>
      </g>
    </g>
    <g id="debt_3636041" transform="translate(346.731 2248.613)">
      <g id="Grupo_1222370" data-name="Grupo 1222370" transform="translate(0.981 18.569)">
        <g id="Grupo_1222369" data-name="Grupo 1222369">
          <g id="Grupo_1222368" data-name="Grupo 1222368">
            <g id="Grupo_1222365" data-name="Grupo 1222365" transform="translate(0.978 6.137)">
              <path id="Trazado_1174780" data-name="Trazado 1174780" d="M67.509,137.608H59.153v-5.044a1.326,1.326,0,0,1,1.326-1.326h5.7a1.326,1.326,0,0,1,1.326,1.326v5.044Z" transform="translate(-53.368 -131.238)" fill="#335e80"/>
              <g id="Grupo_1222364" data-name="Grupo 1222364" transform="translate(0 3.931)">
                <ellipse id="Elipse_14609" data-name="Elipse 14609" cx="10.239" cy="10.117" rx="10.239" ry="10.117" fill="#3d6d93"/>
              </g>
              <path id="Trazado_1174781" data-name="Trazado 1174781" d="M80.127,161.263a10.4,10.4,0,0,0-1.964.188,10.095,10.095,0,0,1,0,19.858,10.4,10.4,0,0,0,1.964.188,10.118,10.118,0,1,0,0-20.234Z" transform="translate(-69.888 -157.332)" fill="#335e80"/>
            </g>
            <g id="Grupo_1222366" data-name="Grupo 1222366" transform="translate(39.684)">
              <ellipse id="Elipse_14610" data-name="Elipse 14610" cx="11.79" cy="11.651" rx="11.79" ry="11.651" transform="translate(0 0)" fill="#ffe179"/>
              <path id="Trazado_1174782" data-name="Trazado 1174782" d="M387.6,84.365a12,12,0,0,0-1.964.162,11.629,11.629,0,0,1,0,22.977,12,12,0,0,0,1.964.162,11.651,11.651,0,1,0,0-23.3Z" transform="translate(-375.807 -84.365)" fill="#fbd268"/>
            </g>
            <g id="Grupo_1222367" data-name="Grupo 1222367" transform="translate(0 18.65)">
              <path id="Trazado_1174783" data-name="Trazado 1174783" d="M0,0H3.974V36.941H0Z" transform="translate(17.07 20.124) rotate(-98.916)" fill="#eaf6ff"/>
              <path id="Trazado_1174784" data-name="Trazado 1174784" d="M377.1,276.777l-6.854,1.079a2.649,2.649,0,0,1-3.029-2.205l-.823-5.235,12.088-1.9.823,5.236A2.649,2.649,0,0,1,377.1,276.777Z" transform="translate(-319.4 -263.052)" fill="#3d6d93"/>
              <path id="Trazado_1174785" data-name="Trazado 1174785" d="M384.793,273.748l-.823-5.236-4.024.633.415,2.639a2.649,2.649,0,0,1-2.205,3.028l-5.446.857a2.648,2.648,0,0,0,3.025,2.185l6.854-1.079A2.649,2.649,0,0,0,384.793,273.748Z" transform="translate(-324.891 -263.051)" fill="#335e80"/>
              <path id="Trazado_1174786" data-name="Trazado 1174786" d="M72.364,324.736l-6.854,1.079a2.649,2.649,0,0,1-3.029-2.205l-.823-5.235,12.088-1.9.823,5.236A2.649,2.649,0,0,1,72.364,324.736Z" transform="translate(-54.567 -304.731)" fill="#3d6d93"/>
              <path id="Trazado_1174787" data-name="Trazado 1174787" d="M80.678,321.707l-.823-5.236-3.962.624.475,3.02a2.649,2.649,0,0,1-2.205,3.028L68.687,324a2.647,2.647,0,0,0,2.932,1.809l6.854-1.079A2.649,2.649,0,0,0,80.678,321.707Z" transform="translate(-60.676 -304.73)" fill="#335e80"/>
              <path id="Trazado_1174788" data-name="Trazado 1174788" d="M334.344,231.8l-17.95,2.825a3.628,3.628,0,0,1-4.148-3.02h0a1.008,1.008,0,0,1,.839-1.153l23.126-3.639a1.008,1.008,0,0,1,1.153.839h0A3.628,3.628,0,0,1,334.344,231.8Z" transform="translate(-272.333 -226.801)" fill="#eaf6ff"/>
              <path id="Trazado_1174789" data-name="Trazado 1174789" d="M343.686,227.654h0a1.008,1.008,0,0,0-1.153-.839l-3.242.51a3.628,3.628,0,0,1-3.064,3.572l-16.719,2.631a3.624,3.624,0,0,0,3.208,1.1l17.95-2.825A3.628,3.628,0,0,0,343.686,227.654Z" transform="translate(-278.656 -226.801)" fill="#d8ecfe"/>
              <path id="Trazado_1174790" data-name="Trazado 1174790" d="M29.611,279.76l-17.95,2.825a3.628,3.628,0,0,1-4.148-3.02h0a1.008,1.008,0,0,1,.839-1.153l23.126-3.639a1.008,1.008,0,0,1,1.153.839h0A3.628,3.628,0,0,1,29.611,279.76Z" transform="translate(-7.5 -268.481)" fill="#eaf6ff"/>
              <path id="Trazado_1174791" data-name="Trazado 1174791" d="M37.137,275.612h0a1.008,1.008,0,0,0-1.153-.839l-2.8.44a3.629,3.629,0,0,1-3.043,3.2l-17.456,2.747a3.627,3.627,0,0,0,3.481,1.428l17.95-2.825a3.628,3.628,0,0,0,3.02-4.147Z" transform="translate(-12.007 -268.48)" fill="#d8ecfe"/>
            </g>
          </g>
          <path id="Trazado_1174792" data-name="Trazado 1174792" d="M171.556,445.254h-19.2a6.093,6.093,0,0,0-6.093,6.093h0a.53.53,0,0,0,.53.53h30.326a.53.53,0,0,0,.53-.53h0A6.093,6.093,0,0,0,171.556,445.254Z" transform="translate(-128.094 -398.001)" fill="#3d6d93"/>
          <path id="Trazado_1174793" data-name="Trazado 1174793" d="M313.361,445.254h-3.928a6.093,6.093,0,0,1,6.093,6.093h0a.53.53,0,0,1-.53.53h3.928a.53.53,0,0,0,.53-.53h0A6.093,6.093,0,0,0,313.361,445.254Z" transform="translate(-269.9 -398.001)" fill="#335e80"/>
          <path id="Trazado_1174794" data-name="Trazado 1174794" d="M232.521,322.609H220.6V305.456a1.325,1.325,0,0,1,1.325-1.325h9.27a1.325,1.325,0,0,1,1.325,1.325Z" transform="translate(-192.7 -275.356)" fill="#d1a08f"/>
          <path id="Trazado_1174795" data-name="Trazado 1174795" d="M275.44,304.131h-3.928a1.324,1.324,0,0,1,1.324,1.325v17.153h3.928V305.456A1.324,1.324,0,0,0,275.44,304.131Z" transform="translate(-236.944 -275.356)" fill="#c68d7a"/>
          <ellipse id="Elipse_14611" data-name="Elipse 14611" cx="1.986" cy="1.987" rx="1.986" ry="1.987" transform="translate(31.875 32.749)" fill="#eaf6ff"/>
        </g>
      </g>
      <path id="Trazado_1174796" data-name="Trazado 1174796" d="M10.053,12.954h.029a.982.982,0,0,0,.954-1.01L10.969,9.61a.982.982,0,1,0-1.963.056L9.072,12A.982.982,0,0,0,10.053,12.954Zm3.325.887a.982.982,0,0,0,1.384-.114l1.9-2.24a.982.982,0,0,0-1.5-1.27l-1.9,2.24A.982.982,0,0,0,13.379,13.841Zm-7.949-.09a.982.982,0,1,0,1.456-1.318l-2.028-2.24A.982.982,0,1,0,3.4,11.511ZM34.843,50.337a2.969,2.969,0,1,0,2.969,2.969A2.972,2.972,0,0,0,34.843,50.337Zm0,3.975a1.005,1.005,0,1,1,1-1.005A1.006,1.006,0,0,1,34.843,54.311Zm32.14-16.38,0-.013a2,2,0,0,0-2.276-1.657l-1.136.179a12.531,12.531,0,0,0,1.659-6.22,12.773,12.773,0,0,0-25.545,0,12.479,12.479,0,0,0,4.152,9.326L41.58,39.9a1.993,1.993,0,0,0-1.659,2.259l0,.017a4.61,4.61,0,0,0,5.271,3.838l1.961-.308.312,1.986-5.687.895a2.307,2.307,0,0,0-2.3-2.224H30.208A2.309,2.309,0,0,0,27.9,48.669v2.1l-6.307.992-.312-1.986,1.962-.309A4.615,4.615,0,0,0,27.081,44.2a1.99,1.99,0,0,0-2.276-1.657l-2.192.345a10.983,10.983,0,0,0,.8-4.13,11.1,11.1,0,0,0-6.336-9.991V26.033a2.311,2.311,0,0,0-2.308-2.308H13.037a4.12,4.12,0,0,0-.5-2.3,4.314,4.314,0,0,0-1.676-1.577A2.012,2.012,0,0,1,10,19.1c-.353-.708.086-1.834.517-2.654a.982.982,0,0,0-1.739-.913c-.936,1.783-1.116,3.277-.536,4.443a3.79,3.79,0,0,0,1.589,1.543,2.514,2.514,0,0,1,1,.872,2.281,2.281,0,0,1,.234,1.335H9.071a2.311,2.311,0,0,0-2.308,2.308v3.023a11.187,11.187,0,0,0-4.227,4.055A.982.982,0,1,0,4.22,34.119a9.328,9.328,0,0,1,7.977-4.5,9.207,9.207,0,0,1,9.257,9.135,9.011,9.011,0,0,1-1.2,4.5L5.964,45.506a9.061,9.061,0,0,1-3.022-6.751c0-.247.01-.5.03-.742a.982.982,0,0,0-1.958-.159c-.024.3-.036.6-.036.9a10.994,10.994,0,0,0,2.616,7.124l-1.913.3A1.993,1.993,0,0,0,.024,48.456l0,.01a4.673,4.673,0,0,0,5.269,3.828l1.961-.308.671,4.265a3.663,3.663,0,0,0,4.152,3.023L27.9,56.783V64.84H25.243a7.083,7.083,0,0,0-7.075,7.076,1.514,1.514,0,0,0,1.512,1.512H50.006a1.514,1.514,0,0,0,1.512-1.513,7.083,7.083,0,0,0-7.075-7.075H41.784V54.6l17.047-2.683a3.636,3.636,0,0,0,3.023-4.151L61.182,43.5l1.962-.309a4.615,4.615,0,0,0,3.839-5.258ZM15.118,28.04a11.25,11.25,0,0,0-6.392.167V26.032a.345.345,0,0,1,.344-.344h5.7a.345.345,0,0,1,.344.344V28.04ZM4.989,50.354a2.646,2.646,0,0,1-3.025-2.2v0a.026.026,0,0,1,.022-.028l23.126-3.64a.03.03,0,0,1,.03.023,2.649,2.649,0,0,1-2.2,3.024Zm13.637,5.9-6.854,1.079a1.679,1.679,0,0,1-1.906-1.388L9.195,51.68l10.148-1.6.671,4.265A1.669,1.669,0,0,1,18.626,56.254Zm11.24-7.585a.343.343,0,0,1,.343-.343h9.269a.343.343,0,0,1,.343.343V64.84H29.865V48.669ZM21.81,55.753a4,4,0,0,0,.09-2.05l6-.944v2.035ZM44.443,66.8a5.118,5.118,0,0,1,5.091,4.66H20.152a5.118,5.118,0,0,1,5.091-4.66Zm-2.8-36.584a10.81,10.81,0,0,1,21.617,0,10.579,10.579,0,0,1-2.35,6.638l-7.476,1.177V37.3a3.2,3.2,0,0,0,3.426-3.267V32.5a3.175,3.175,0,0,0-3.426-3.267v-4.13a1.23,1.23,0,0,1,1.462,1.3.982.982,0,0,0,1.964,0,3.173,3.173,0,0,0-3.426-3.267V22.4a.982.982,0,0,0-1.964,0v.748a3.174,3.174,0,0,0-3.426,3.267v1.523A3.178,3.178,0,0,0,51.474,31.2v4.13a1.229,1.229,0,0,1-1.462-1.3.982.982,0,1,0-1.964,0A3.184,3.184,0,0,0,51.474,37.3s.016.949.045,1.041l-5.016.789a10.57,10.57,0,0,1-4.856-8.906Zm11.791,5.112V31.2A1.23,1.23,0,0,1,54.9,32.5v1.523A1.237,1.237,0,0,1,53.438,35.332ZM51.474,25.108v4.13a1.229,1.229,0,0,1-1.462-1.3V26.411a1.232,1.232,0,0,1,1.462-1.3Zm-9.69,27.5V50.574l5.988-.942a3.907,3.907,0,0,0,.712,1.923Zm21.055-11.36-5.688.9a.982.982,0,0,0,.305,1.94l1.786-.281.671,4.265a1.669,1.669,0,0,1-1.388,1.906l-6.847,1.078h-.014a1.679,1.679,0,0,1-1.9-1.389L49.1,45.4l3.781-.6a.982.982,0,1,0-.305-1.94l-7.682,1.209a2.646,2.646,0,0,1-3.023-2.192l0-.011a.026.026,0,0,1,.022-.03l19.708-3.1H61.6l3.409-.536a.026.026,0,0,1,.03.02v0A2.649,2.649,0,0,1,62.839,41.249Z" transform="translate(0)"/>
    </g>
  </g>
</svg>
