<svg xmlns="http://www.w3.org/2000/svg" xmlns:xlink="http://www.w3.org/1999/xlink" width="113" height="113" viewBox="0 0 113 113">
  <defs>
    <filter id="Trazado_982547" x="0" y="0" width="113" height="113" filterUnits="userSpaceOnUse">
      <feOffset dy="3" input="SourceAlpha"/>
      <feGaussianBlur stdDeviation="3" result="blur"/>
      <feFlood flood-opacity="0.161"/>
      <feComposite operator="in" in2="blur"/>
      <feComposite in="SourceGraphic"/>
    </filter>
  </defs>
  <g id="Grupo_1222380" data-name="Grupo 1222380" transform="translate(-743.5 -2234.611)">
    <g id="Grupo_1222272" data-name="Grupo 1222272" transform="translate(752.5 2240.611)">
      <g id="Grupo_1202185" data-name="Grupo 1202185">
        <g id="Grupo_1174813" data-name="Grupo 1174813">
          <g id="Grupo_1201680" data-name="Grupo 1201680">
            <g id="Grupo_1201330" data-name="Grupo 1201330">
              <g id="Grupo_1172010" data-name="Grupo 1172010">
                <g id="Grupo_1171046" data-name="Grupo 1171046">
                  <g id="Grupo_1148525" data-name="Grupo 1148525">
                    <g transform="matrix(1, 0, 0, 1, -9, -6)" filter="url(#Trazado_982547)">
                      <g id="Trazado_982547-2" data-name="Trazado 982547" transform="translate(9 6)" fill="#f2f4f0">
                        <path d="M 47.5 93.5 C 41.28937149047852 93.5 35.26533508300781 92.28397369384766 29.59518623352051 89.88570404052734 C 24.11771965026855 87.56893157958984 19.19813346862793 84.25196075439453 14.97309303283691 80.02691650390625 C 10.74804019927979 75.80186462402344 7.431066513061523 70.88229370117188 5.114293098449707 65.40481567382812 C 2.716026782989502 59.73468017578125 1.5 53.71062850952148 1.5 47.5 C 1.5 41.28937149047852 2.716026782989502 35.26533508300781 5.114293098449707 29.59518623352051 C 7.431066513061523 24.11771965026855 10.74804019927979 19.19813346862793 14.97309303283691 14.97309303283691 C 19.19813346862793 10.74804019927979 24.11771965026855 7.431066513061523 29.59518623352051 5.114293098449707 C 35.26533508300781 2.716026782989502 41.28937149047852 1.5 47.5 1.5 C 53.71062850952148 1.5 59.73468017578125 2.716026782989502 65.40481567382812 5.114293098449707 C 70.88229370117188 7.431066513061523 75.80186462402344 10.74804019927979 80.02691650390625 14.97309303283691 C 84.25196075439453 19.19813346862793 87.56893157958984 24.11771965026855 89.88570404052734 29.59518623352051 C 92.28397369384766 35.26533508300781 93.5 41.28937149047852 93.5 47.5 C 93.5 53.71062850952148 92.28397369384766 59.73468017578125 89.88570404052734 65.40481567382812 C 87.56893157958984 70.88229370117188 84.25196075439453 75.80186462402344 80.02691650390625 80.02691650390625 C 75.80186462402344 84.25196075439453 70.88229370117188 87.56893157958984 65.40481567382812 89.88570404052734 C 59.73468017578125 92.28397369384766 53.71062850952148 93.5 47.5 93.5 Z" stroke="none"/>
                        <path d="M 47.5 3 C 41.49121475219727 3 35.66376876831055 4.176155090332031 30.17950439453125 6.495796203613281 C 24.88084411621094 8.736953735351562 20.12152099609375 11.94598388671875 16.03375244140625 16.03375244140625 C 11.94598388671875 20.12152099609375 8.736953735351562 24.88084411621094 6.495796203613281 30.17950439453125 C 4.176155090332031 35.66376876831055 3 41.49121475219727 3 47.5 C 3 53.50878524780273 4.176155090332031 59.33623123168945 6.495796203613281 64.82049560546875 C 8.736953735351562 70.11915588378906 11.94598388671875 74.87847900390625 16.03375244140625 78.96624755859375 C 20.12152099609375 83.05401611328125 24.88084411621094 86.26304626464844 30.17950439453125 88.50419616699219 C 35.66376876831055 90.82384490966797 41.49121475219727 92 47.5 92 C 53.50878524780273 92 59.33623123168945 90.82384490966797 64.82049560546875 88.50419616699219 C 70.11915588378906 86.26304626464844 74.87847900390625 83.05401611328125 78.96624755859375 78.96624755859375 C 83.05401611328125 74.87847900390625 86.26304626464844 70.11915588378906 88.50419616699219 64.82049560546875 C 90.82384490966797 59.33623123168945 92 53.50878524780273 92 47.5 C 92 41.49121475219727 90.82384490966797 35.66376876831055 88.50419616699219 30.17950439453125 C 86.26304626464844 24.88084411621094 83.05401611328125 20.12152099609375 78.96624755859375 16.03375244140625 C 74.87847900390625 11.94598388671875 70.11915588378906 8.736953735351562 64.82049560546875 6.495796203613281 C 59.33623123168945 4.176155090332031 53.50878524780273 3 47.5 3 M 47.5 0 C 73.7335205078125 0 95 21.2664794921875 95 47.5 C 95 73.7335205078125 73.7335205078125 95 47.5 95 C 21.2664794921875 95 0 73.7335205078125 0 47.5 C 0 21.2664794921875 21.2664794921875 0 47.5 0 Z" stroke="none" fill="#899e78"/>
                      </g>
                    </g>
                  </g>
                </g>
              </g>
            </g>
          </g>
        </g>
      </g>
    </g>
    <g id="lawsuit_9934734" transform="translate(762.135 2249.892)">
      <g id="Grupo_1222379" data-name="Grupo 1222379" transform="translate(11.837 9.062)">
        <g id="Grupo_1222372" data-name="Grupo 1222372" transform="translate(0 19.108)">
          <path id="Trazado_1174797" data-name="Trazado 1174797" d="M37.182,160.239H81.394a1.329,1.329,0,0,1,1.325,1.325v28.344a1.329,1.329,0,0,1-1.325,1.325H37.182a1.329,1.329,0,0,1-1.325-1.325V161.564a1.328,1.328,0,0,1,1.325-1.325Z" transform="translate(-35.857 -160.239)" fill="#6cf5c2" fill-rule="evenodd"/>
          <path id="Trazado_1174798" data-name="Trazado 1174798" d="M81.133,160.239h.261a1.329,1.329,0,0,1,1.325,1.325v28.344a1.329,1.329,0,0,1-1.325,1.325H37.182a1.329,1.329,0,0,1-1.325-1.325v-.294H79.808a1.329,1.329,0,0,0,1.325-1.325Z" transform="translate(-35.857 -160.239)" fill="#00e499" fill-rule="evenodd"/>
        </g>
        <g id="Grupo_1222373" data-name="Grupo 1222373" transform="translate(13.371 37.931)">
          <path id="Trazado_1174799" data-name="Trazado 1174799" d="M228.661,411.958l-4.634,3.842,2.485,5.77a.249.249,0,0,0,.441.033l1.6-2.585,2.98.61a.249.249,0,0,0,.279-.343Z" transform="translate(-212.471 -397.436)" fill="#fe646f" fill-rule="evenodd"/>
          <path id="Trazado_1174800" data-name="Trazado 1174800" d="M243.941,411.958l-.613.508,2.937,6.819a.246.246,0,0,1-.015.227l.567.116a.249.249,0,0,0,.279-.343Zm-2.3,9.26,1.459-2.351.738.151-1.6,2.585a.249.249,0,0,1-.441-.033Z" transform="translate(-227.751 -397.436)" fill="#fd4755" fill-rule="evenodd"/>
          <path id="Trazado_1174801" data-name="Trazado 1174801" d="M151.139,423.262l-3.332,7.156a.249.249,0,0,1-.442.02l-1.528-2.63-3,.524a.249.249,0,0,1-.269-.351l3.3-7.077Z" transform="translate(-141.785 -405.196)" fill="#fe646f" fill-rule="evenodd"/>
          <path id="Trazado_1174802" data-name="Trazado 1174802" d="M151.139,436.876l-3.332,7.156a.249.249,0,0,1-.442.02l-1.528-2.63-3,.524a.249.249,0,0,1-.269-.351l.2-.435,2.642-.462,1.528,2.63a.249.249,0,0,0,.442-.02l3.125-6.712Z" transform="translate(-141.785 -418.809)" fill="#fd4755" fill-rule="evenodd"/>
          <path id="Trazado_1174803" data-name="Trazado 1174803" d="M148.121,302.764c1.992,1.491,1.54,1.327,4.025,1.465a2.1,2.1,0,0,1,1.947,1.634,5.071,5.071,0,0,0,.978,2.617l1.164,1.092a2.1,2.1,0,0,1,.441,2.5c-1.123,2.221-1.039,1.747-.744,4.218a2.1,2.1,0,0,1-1.271,2.2c-2.287.98-1.919.671-3.281,2.753a2.1,2.1,0,0,1-2.389.869c-2.382-.72-1.9-.72-4.283,0a2.1,2.1,0,0,1-2.389-.869c-1.362-2.082-.994-1.773-3.281-2.753a2.1,2.1,0,0,1-1.271-2.2c.3-2.471.379-2-.744-4.218a2.1,2.1,0,0,1,.441-2.5c1.814-1.7,1.574-1.287,2.142-3.709a2.1,2.1,0,0,1,1.947-1.634c2.485-.138,2.033.026,4.025-1.465A2.1,2.1,0,0,1,148.121,302.764Z" transform="translate(-136.79 -302.335)" fill="#ffe177" fill-rule="evenodd"/>
          <path id="Trazado_1174804" data-name="Trazado 1174804" d="M192.312,302.764c1.992,1.491,1.54,1.327,4.025,1.465a2.1,2.1,0,0,1,1.947,1.634,5.07,5.07,0,0,0,.978,2.617l1.164,1.092a2.1,2.1,0,0,1,.441,2.5c-1.123,2.221-1.039,1.747-.744,4.218a2.1,2.1,0,0,1-1.271,2.2c-2.287.98-1.919.671-3.281,2.753a2.094,2.094,0,0,1-2.308.892,2.107,2.107,0,0,0,1.219-.892c1.362-2.083.994-1.774,3.281-2.753a2.1,2.1,0,0,0,1.271-2.2c-.3-2.471-.379-2,.744-4.218a2.1,2.1,0,0,0-.441-2.5l-1.164-1.092a5.071,5.071,0,0,1-.978-2.617,2.1,2.1,0,0,0-1.947-1.634c-2.484-.138-2.033.026-4.025-1.465a2.155,2.155,0,0,0-.726-.357A2.1,2.1,0,0,1,192.312,302.764ZM190.5,321.648c-.364.083-.833.24-1.6.47a2.128,2.128,0,0,1-1.17.023l.081-.023C189.428,321.629,189.725,321.473,190.5,321.648Z" transform="translate(-180.981 -302.335)" fill="#ffd064" fill-rule="evenodd"/>
          <circle id="Elipse_14612" data-name="Elipse 14612" cx="5.936" cy="5.936" r="5.936" transform="translate(1.658 9.936) rotate(-45)" fill="#eceff1"/>
          <path id="Trazado_1174805" data-name="Trazado 1174805" d="M173.854,332.547q.239,0,.474.019a5.937,5.937,0,0,0,0,11.835q-.235.018-.474.019a5.936,5.936,0,0,1,0-11.873Z" transform="translate(-163.794 -328.545)" fill="#d1d1d6" fill-rule="evenodd"/>
        </g>
        <g id="Grupo_1222375" data-name="Grupo 1222375" transform="translate(1.792 5.733)">
          <g id="Grupo_1222374" data-name="Grupo 1222374">
            <path id="Trazado_1174806" data-name="Trazado 1174806" d="M97.015,246.728h4.619v2.349a1.4,1.4,0,0,1-1.4,1.4H98.416a1.4,1.4,0,0,1-1.4-1.4v-2.349Z" transform="translate(-90.705 -221.896)" fill="#b1b1b5" fill-rule="evenodd"/>
            <path id="Trazado_1174807" data-name="Trazado 1174807" d="M86.171,221.193h7.492v2.93a1.4,1.4,0,0,1-1.4,1.4H87.572a1.4,1.4,0,0,1-1.4-1.4Z" transform="translate(-81.297 -199.743)" fill="#d1d1d6" fill-rule="evenodd"/>
            <path id="Trazado_1174808" data-name="Trazado 1174808" d="M121.241,217.979v3.356a1.4,1.4,0,0,1-1.4,1.4h1.632a1.4,1.4,0,0,0,1.4-1.4v-3.356C122.339,218,121.777,217.979,121.241,217.979Z" transform="translate(-110.506 -196.954)" fill="#b1b1b5" fill-rule="evenodd"/>
            <path id="Trazado_1174809" data-name="Trazado 1174809" d="M75.6,201.03H85.891v2.8a1.4,1.4,0,0,1-1.4,1.4H77a1.4,1.4,0,0,1-1.4-1.4Z" transform="translate(-72.124 -182.251)" fill="#eceff1" fill-rule="evenodd"/>
            <path id="Trazado_1174810" data-name="Trazado 1174810" d="M131.815,211.591v1.4a1.4,1.4,0,0,1-1.4,1.4h1.678a1.4,1.4,0,0,0,1.354-1.4v-1.4Z" transform="translate(-119.679 -191.413)" fill="#d1d1d6" fill-rule="evenodd"/>
            <path id="Trazado_1174811" data-name="Trazado 1174811" d="M58,59.274a8.62,8.62,0,0,1,8.62,8.62c0,4.787-3.058,4.5-3.473,11.558H52.854c-.415-7.057-3.473-6.77-3.473-11.558A8.62,8.62,0,0,1,58,59.274Z" transform="translate(-49.381 -59.274)" fill="#ffe177" fill-rule="evenodd"/>
            <path id="Trazado_1174812" data-name="Trazado 1174812" d="M108.292,59.313a8.621,8.621,0,0,1,7.8,8.582c0,4.447-2.639,4.516-3.346,10.159-.054.432-.1.9-.127,1.4h1.632c.415-7.057,3.473-6.77,3.473-11.558a8.62,8.62,0,0,0-8.62-8.62Q108.7,59.275,108.292,59.313Z" transform="translate(-100.488 -59.275)" fill="#ffd064" fill-rule="evenodd"/>
          </g>
        </g>
        <g id="Grupo_1222378" data-name="Grupo 1222378" transform="translate(21.576)">
          <g id="Grupo_1222376" data-name="Grupo 1222376">
            <path id="Trazado_1174813" data-name="Trazado 1174813" d="M220.108,16.973l17.654,30.142a2.315,2.315,0,0,1-2,3.49H201.054a2.315,2.315,0,0,1-2-3.49l17.654-30.142a1.973,1.973,0,0,1,3.4,0Z" transform="translate(-198.73 -16.001)" fill="#ffe177" fill-rule="evenodd"/>
            <path id="Trazado_1174814" data-name="Trazado 1174814" d="M340.3,16.973l17.654,30.142a2.315,2.315,0,0,1-2,3.49H353.3a2.315,2.315,0,0,0,2-3.49L337.648,16.973a1.98,1.98,0,0,0-.376-.465A1.976,1.976,0,0,1,340.3,16.973Z" transform="translate(-318.919 -16.001)" fill="#ffd064" fill-rule="evenodd"/>
          </g>
          <g id="Grupo_1222377" data-name="Grupo 1222377" transform="translate(8.083 8.398)">
            <path id="Trazado_1174815" data-name="Trazado 1174815" d="M277.391,205.652l-.479-2.128a.607.607,0,0,0-.609-.456h-6.851a.607.607,0,0,0-.609.456l-.479,2.128-.192,1.521,9.54.2Z" transform="translate(-267.055 -186.685)" fill="#8d9ca8" fill-rule="evenodd"/>
            <path id="Trazado_1174816" data-name="Trazado 1174816" d="M323.944,205.652l-.479-2.128a.607.607,0,0,0-.609-.456h-1.023a.607.607,0,0,1,.609.456l.479,2.128.316,1.7,1.027.022Z" transform="translate(-313.609 -186.685)" fill="#8192a5" fill-rule="evenodd"/>
            <path id="Trazado_1174817" data-name="Trazado 1174817" d="M260.452,222.573H270.69a.7.7,0,0,1,.7.7v1.178a.7.7,0,0,1-.7.7H260.452a.7.7,0,0,1-.7-.7v-1.178A.705.705,0,0,1,260.452,222.573Z" transform="translate(-259.749 -203.606)" fill="#9facba" fill-rule="evenodd"/>
            <path id="Trazado_1174818" data-name="Trazado 1174818" d="M260.453,225.156h10.238a.7.7,0,0,0,.7-.7v-1.178a.7.7,0,0,0-.7-.7h-.32v.858a.7.7,0,0,1-.7.7H259.75v.32A.7.7,0,0,0,260.453,225.156Z" transform="translate(-259.75 -203.605)" fill="#8d9ca8" fill-rule="evenodd"/>
            <path id="Trazado_1174819" data-name="Trazado 1174819" d="M338.486,131.264l-1.756,1.756,10.428,10.94a.907.907,0,0,0,.621.293.762.762,0,0,0,.606-.224l1.109-1.109a.762.762,0,0,0,.224-.606.906.906,0,0,0-.293-.622Z" transform="translate(-326.532 -124.393)" fill="#e3a76f" fill-rule="evenodd"/>
            <path id="Trazado_1174820" data-name="Trazado 1174820" d="M346.584,131.264l-.519.519,10.94,10.428a.906.906,0,0,1,.293.622.762.762,0,0,1-.224.606l.519-.519a.762.762,0,0,0,.224-.606.906.906,0,0,0-.293-.622Z" transform="translate(-334.631 -124.393)" fill="#c48958" fill-rule="evenodd"/>
            <path id="Trazado_1174821" data-name="Trazado 1174821" d="M305.886,98.643c.634-.539,1.4-1.123,2.474-1.92l-3.744-3.744a21.552,21.552,0,0,1-6.171,6.171l3.744,3.744c.8-1.071,1.381-1.84,1.92-2.474A14.613,14.613,0,0,1,305.886,98.643Z" transform="translate(-293.319 -91.18)" fill="#c48958" fill-rule="evenodd"/>
            <path id="Trazado_1174822" data-name="Trazado 1174822" d="M305.135,93.5l-.519-.519a21.552,21.552,0,0,1-6.171,6.171l.519.519A21.553,21.553,0,0,0,305.135,93.5Z" transform="translate(-293.319 -91.18)" fill="#ab7448" fill-rule="evenodd"/>
            <path id="Trazado_1174823" data-name="Trazado 1174823" d="M339.327,79.581l-.887.887a.629.629,0,0,0,0,.887l4.3,4.3a.629.629,0,0,0,.887,0l.887-.887a.629.629,0,0,0,0-.887l-4.3-4.3A.629.629,0,0,0,339.327,79.581Z" transform="translate(-327.856 -79.398)" fill="#e3a76f" fill-rule="evenodd"/>
            <path id="Trazado_1174824" data-name="Trazado 1174824" d="M342.937,79.581l-.519.519a.629.629,0,0,1,.887,0l4.3,4.3a.629.629,0,0,1,0,.887l.519-.519a.629.629,0,0,0,0-.887l-4.3-4.3A.629.629,0,0,0,342.937,79.581Z" transform="translate(-331.467 -79.397)" fill="#c48958" fill-rule="evenodd"/>
            <path id="Trazado_1174825" data-name="Trazado 1174825" d="M285.935,132.973l-.887.887a.629.629,0,0,0,0,.887l4.3,4.3a.629.629,0,0,0,.887,0l.887-.887a.629.629,0,0,0,0-.887l-4.3-4.3A.63.63,0,0,0,285.935,132.973Z" transform="translate(-281.537 -125.717)" fill="#e3a76f" fill-rule="evenodd"/>
            <path id="Trazado_1174826" data-name="Trazado 1174826" d="M290.235,142.658l.519-.519a.629.629,0,0,1-.887,0l-4.3-4.3a.629.629,0,0,1,0-.887l-.519.519a.629.629,0,0,0,0,.887l4.3,4.3a.629.629,0,0,0,.887,0Z" transform="translate(-281.537 -129.327)" fill="#c48958" fill-rule="evenodd"/>
          </g>
        </g>
      </g>
      <path id="Trazado_1174827" data-name="Trazado 1174827" d="M52.082,37.949H42.557v-.463h9.525v.463ZM44.235,34.9H50.4l.1.464H44.131Zm8.612.465H52.68l-.292-1.3a1.66,1.66,0,0,0-1.643-1.284H43.894a1.658,1.658,0,0,0-1.642,1.284l-.293,1.3h-.167a1.355,1.355,0,0,0-1.354,1.353v2a1.355,1.355,0,0,0,1.354,1.353H52.848A1.355,1.355,0,0,0,54.2,38.717v-2a1.355,1.355,0,0,0-1.354-1.353Zm9.926.807-9.021-9.465c.106-.108.212-.214.32-.32l9.465,9.021ZM49.752,29.735l-3.689-3.689.276-.276,3.689,3.689Zm2.779-8.37a17.9,17.9,0,0,1-3.8,3.8l1.9,1.9a21.231,21.231,0,0,1,3.8-3.8Zm.881-2.668L57.1,22.386l-.276.277-3.689-3.689ZM65.122,33.99l-9.444-9L56,24.741a1.686,1.686,0,0,0,2.022-.274l.887-.888a1.687,1.687,0,0,0,0-2.386l-4.3-4.3a1.688,1.688,0,0,0-2.386,0l-.887.888a1.688,1.688,0,0,0-.273,2.024,16.56,16.56,0,0,1-3.888,3.888,1.686,1.686,0,0,0-2.024.272l-.888.888a1.687,1.687,0,0,0,0,2.386l4.3,4.3a1.691,1.691,0,0,0,2.386,0l.887-.888a1.687,1.687,0,0,0,.274-2.022c.085-.108.167-.214.249-.317l9,9.444a2.012,2.012,0,0,0,1.419.625H62.8a1.826,1.826,0,0,0,1.3-.539l1.109-1.109a1.825,1.825,0,0,0,.534-1.415,1.967,1.967,0,0,0-.62-1.33Zm6.418,7.984a1.234,1.234,0,0,0-.009-1.264L53.878,10.569a.914.914,0,0,0-1.573,0L34.651,40.71A1.255,1.255,0,0,0,35.737,42.6H70.445A1.236,1.236,0,0,0,71.54,41.974ZM57.639,58.1V44.724h-21.9a3.373,3.373,0,0,1-2.914-5.084l3.072-5.246h-1.98a1.06,1.06,0,1,1,0-2.119h3.222l1.784-3.047H30a12.228,12.228,0,0,0-1.547,5.78v1.364a2.462,2.462,0,0,1-1.4,2.218v.584a2.465,2.465,0,0,1-1.436,2.235v.567a2.464,2.464,0,0,1-2.461,2.46H21.34a2.463,2.463,0,0,1-2.461-2.46v-.567a2.464,2.464,0,0,1-1.437-2.235V38.59a2.463,2.463,0,0,1-1.4-2.218V35.008a12.226,12.226,0,0,0-1.548-5.78H12.9V58.1H24.951c-.052-.1-.107-.211-.171-.334-.085-.166-.179-.35-.284-.558a3.159,3.159,0,0,1-.263-2.155h-7.9a1.06,1.06,0,0,1,0-2.12h9.384a4.762,4.762,0,0,0,.787-.821,5.464,5.464,0,0,0,.349-1.226c.042-.181.087-.383.14-.61a3.213,3.213,0,0,1,.12-.388H16.333a1.06,1.06,0,1,1,0-2.119h14.68a3.1,3.1,0,0,0,.794-.106,5.472,5.472,0,0,0,1.056-.716l.5-.376a3.156,3.156,0,0,1,3.812,0l.5.376a5.466,5.466,0,0,0,1.056.716,3.1,3.1,0,0,0,.794.106H54.2a1.06,1.06,0,1,1,0,2.119H43.424a3.23,3.23,0,0,1,.12.388c.053.227.1.428.14.61a5.463,5.463,0,0,0,.349,1.226,4.768,4.768,0,0,0,.787.821H54.2a1.06,1.06,0,0,1,0,2.12H46.3a3.166,3.166,0,0,1-.262,2.155l-.285.558c-.064.123-.119.231-.171.334ZM43.87,56.8a4.464,4.464,0,0,0-.647,3.667c.022.181.048.381.075.608a1.041,1.041,0,0,1-.636,1.1c-.209.09-.4.168-.564.239a4.468,4.468,0,0,0-2.853,2.394c-.1.153-.209.323-.334.515a1.039,1.039,0,0,1-1.195.435l-.587-.18a6.519,6.519,0,0,0-1.861-.407,6.519,6.519,0,0,0-1.861.407c-.175.054-.369.114-.587.18a1.041,1.041,0,0,1-1.195-.435c-.125-.192-.236-.362-.334-.515a4.468,4.468,0,0,0-2.853-2.394c-.167-.07-.355-.148-.564-.239a1.041,1.041,0,0,1-.636-1.1l.076-.608a4.464,4.464,0,0,0-.647-3.667l-.279-.546A1.043,1.043,0,0,1,26.609,55c.167-.156.315-.294.449-.419a4.459,4.459,0,0,0,1.861-3.224c.041-.178.086-.376.138-.6a1.04,1.04,0,0,1,.975-.817c.228-.013.43-.024.612-.032l.475-.026.041,0a4.187,4.187,0,0,0,2.983-1.245c.146-.11.307-.232.49-.368a1.037,1.037,0,0,1,1.272,0c.183.136.344.258.49.368a4.186,4.186,0,0,0,2.983,1.245l.041,0,.475.026c.181.008.384.019.612.032a1.04,1.04,0,0,1,.975.817c.052.221.1.42.138.6a4.461,4.461,0,0,0,1.861,3.224c.134.125.282.262.449.419a1.041,1.041,0,0,1,.221,1.251l-.28.547ZM41.508,67.536l1.458.3-1.235-2.867a6.678,6.678,0,0,0-.706.994c-.1.157-.213.33-.34.524a3.154,3.154,0,0,1-1.72,1.3l.644,1.493.786-1.265a1.057,1.057,0,0,1,1.113-.48ZM30.926,70.359,32.072,67.9a3.159,3.159,0,0,1-2.22-1.412c-.127-.195-.24-.368-.34-.524-.13-.2-.239-.369-.334-.51l-1.566,3.366,1.466-.257a1.06,1.06,0,0,1,1.1.511ZM24.8,24.42v-.943a.943.943,0,1,1,.943.943Zm-2.12,9.492h-.859V26.54h.859ZM19.7,24.42h-.943a.943.943,0,1,1,.943-.943Zm6.636,11.952a.344.344,0,0,1-.34.342H18.5a.346.346,0,0,1-.34-.342v-.34h8.173Zm-1.4,2.8a.346.346,0,0,1-.34.342H19.9a.345.345,0,0,1-.342-.342v-.34h5.373ZM21,41.635h2.5v.34a.346.346,0,0,1-.342.34H21.341a.345.345,0,0,1-.34-.34v-.34Zm1.249-25.782a7.569,7.569,0,0,1,7.56,7.56,6.925,6.925,0,0,1-1.264,4.1,13.974,13.974,0,0,0-2.128,6.4H24.8V26.54h.943a3.063,3.063,0,1,0-3.063-3.063v.943h-.859v-.943a3.062,3.062,0,1,0-3.062,3.063H19.7v7.372H18.08a14,14,0,0,0-2.126-6.4,6.916,6.916,0,0,1-1.265-4.1,7.568,7.568,0,0,1,7.56-7.56ZM73.36,39.64,55.707,9.5a3.035,3.035,0,0,0-5.23,0L40.162,27.108H31.168a8.483,8.483,0,0,0,.761-3.7,9.68,9.68,0,0,0-19.359,0,8.493,8.493,0,0,0,.76,3.7H11.838a1.06,1.06,0,0,0-1.059,1.059v31a1.06,1.06,0,0,0,1.059,1.059h13.37c-.022.18-.047.379-.074.6a3.159,3.159,0,0,0,1.905,3.3l.348.147-2.555,5.488a1.061,1.061,0,0,0,1.143,1.492l2.741-.48,1.4,2.406a1.063,1.063,0,0,0,.917.527h.048a1.061,1.061,0,0,0,.913-.612l2.64-5.668a2.55,2.55,0,0,1,.639-.132,5.6,5.6,0,0,1,1.237.311l.086.027,1.875,4.352a1.058,1.058,0,0,0,.894.637.677.677,0,0,0,.078,0,1.061,1.061,0,0,0,.9-.5l1.466-2.363,2.725.557a1.058,1.058,0,0,0,1.185-1.457l-2.069-4.8A3.156,3.156,0,0,0,45.4,60.825c-.027-.224-.052-.423-.074-.6H58.7a1.06,1.06,0,0,0,1.059-1.059V44.724H70.445A3.374,3.374,0,0,0,73.36,39.64ZM32.592,18.911a1.06,1.06,0,0,1,.388-1.448l1.758-1.014a1.059,1.059,0,1,1,1.06,1.834L34.041,19.3a1.061,1.061,0,0,1-1.448-.389Zm-4.759-5.819,1.014-1.758a1.06,1.06,0,1,1,1.836,1.06l-1.014,1.758a1.06,1.06,0,0,1-.92.531,1.045,1.045,0,0,1-.529-.143,1.059,1.059,0,0,1-.388-1.448ZM10.987,19.441a1.047,1.047,0,0,1-.528-.141L8.7,18.283a1.059,1.059,0,1,1,1.06-1.834l1.759,1.014a1.06,1.06,0,0,1-.531,1.978Zm2.827-7.047a1.06,1.06,0,1,1,1.836-1.06l1.014,1.758a1.059,1.059,0,0,1-.389,1.448,1.043,1.043,0,0,1-.528.143,1.061,1.061,0,0,1-.919-.531Zm7.375-.514V9.849a1.06,1.06,0,0,1,2.119,0v2.03a1.06,1.06,0,1,1-2.119,0ZM35.268,61.808a4.877,4.877,0,1,1,4.877-4.877A4.883,4.883,0,0,1,35.268,61.808Zm0-11.873a7,7,0,1,1-7,7A7,7,0,0,1,35.268,49.934Z" fill-rule="evenodd"/>
    </g>
  </g>
</svg>
