<svg xmlns="http://www.w3.org/2000/svg" xmlns:xlink="http://www.w3.org/1999/xlink" width="113" height="113" viewBox="0 0 113 113">
  <defs>
    <filter id="Trazado_982547" x="0" y="0" width="113" height="113" filterUnits="userSpaceOnUse">
      <feOffset dy="3" input="SourceAlpha"/>
      <feGaussianBlur stdDeviation="3" result="blur"/>
      <feFlood flood-opacity="0.161"/>
      <feComposite operator="in" in2="blur"/>
      <feComposite in="SourceGraphic"/>
    </filter>
  </defs>
  <g id="Grupo_1222382" data-name="Grupo 1222382" transform="translate(-1163.75 -2223.611)">
    <g id="Grupo_1222273" data-name="Grupo 1222273" transform="translate(1172.75 2229.611)">
      <g id="Grupo_1202185" data-name="Grupo 1202185">
        <g id="Grupo_1174813" data-name="Grupo 1174813">
          <g id="Grupo_1201680" data-name="Grupo 1201680">
            <g id="Grupo_1201330" data-name="Grupo 1201330">
              <g id="Grupo_1172010" data-name="Grupo 1172010">
                <g id="Grupo_1171046" data-name="Grupo 1171046">
                  <g id="Grupo_1148525" data-name="Grupo 1148525">
                    <g transform="matrix(1, 0, 0, 1, -9, -6)" filter="url(#Trazado_982547)">
                      <g id="Trazado_982547-2" data-name="Trazado 982547" transform="translate(9 6)" fill="#f2f4f0">
                        <path d="M 47.5 93.5 C 41.28937149047852 93.5 35.26533508300781 92.28397369384766 29.59518623352051 89.88570404052734 C 24.11771965026855 87.56893157958984 19.19813346862793 84.25196075439453 14.97309303283691 80.02691650390625 C 10.74804019927979 75.80186462402344 7.431066513061523 70.88229370117188 5.114293098449707 65.40481567382812 C 2.716026782989502 59.73468017578125 1.5 53.71062850952148 1.5 47.5 C 1.5 41.28937149047852 2.716026782989502 35.26533508300781 5.114293098449707 29.59518623352051 C 7.431066513061523 24.11771965026855 10.74804019927979 19.19813346862793 14.97309303283691 14.97309303283691 C 19.19813346862793 10.74804019927979 24.11771965026855 7.431066513061523 29.59518623352051 5.114293098449707 C 35.26533508300781 2.716026782989502 41.28937149047852 1.5 47.5 1.5 C 53.71062850952148 1.5 59.73468017578125 2.716026782989502 65.40481567382812 5.114293098449707 C 70.88229370117188 7.431066513061523 75.80186462402344 10.74804019927979 80.02691650390625 14.97309303283691 C 84.25196075439453 19.19813346862793 87.56893157958984 24.11771965026855 89.88570404052734 29.59518623352051 C 92.28397369384766 35.26533508300781 93.5 41.28937149047852 93.5 47.5 C 93.5 53.71062850952148 92.28397369384766 59.73468017578125 89.88570404052734 65.40481567382812 C 87.56893157958984 70.88229370117188 84.25196075439453 75.80186462402344 80.02691650390625 80.02691650390625 C 75.80186462402344 84.25196075439453 70.88229370117188 87.56893157958984 65.40481567382812 89.88570404052734 C 59.73468017578125 92.28397369384766 53.71062850952148 93.5 47.5 93.5 Z" stroke="none"/>
                        <path d="M 47.5 3 C 41.49121475219727 3 35.66376876831055 4.176155090332031 30.17950439453125 6.495796203613281 C 24.88084411621094 8.736953735351562 20.12152099609375 11.94598388671875 16.03375244140625 16.03375244140625 C 11.94598388671875 20.12152099609375 8.736953735351562 24.88084411621094 6.495796203613281 30.17950439453125 C 4.176155090332031 35.66376876831055 3 41.49121475219727 3 47.5 C 3 53.50878524780273 4.176155090332031 59.33623123168945 6.495796203613281 64.82049560546875 C 8.736953735351562 70.11915588378906 11.94598388671875 74.87847900390625 16.03375244140625 78.96624755859375 C 20.12152099609375 83.05401611328125 24.88084411621094 86.26304626464844 30.17950439453125 88.50419616699219 C 35.66376876831055 90.82384490966797 41.49121475219727 92 47.5 92 C 53.50878524780273 92 59.33623123168945 90.82384490966797 64.82049560546875 88.50419616699219 C 70.11915588378906 86.26304626464844 74.87847900390625 83.05401611328125 78.96624755859375 78.96624755859375 C 83.05401611328125 74.87847900390625 86.26304626464844 70.11915588378906 88.50419616699219 64.82049560546875 C 90.82384490966797 59.33623123168945 92 53.50878524780273 92 47.5 C 92 41.49121475219727 90.82384490966797 35.66376876831055 88.50419616699219 30.17950439453125 C 86.26304626464844 24.88084411621094 83.05401611328125 20.12152099609375 78.96624755859375 16.03375244140625 C 74.87847900390625 11.94598388671875 70.11915588378906 8.736953735351562 64.82049560546875 6.495796203613281 C 59.33623123168945 4.176155090332031 53.50878524780273 3 47.5 3 M 47.5 0 C 73.7335205078125 0 95 21.2664794921875 95 47.5 C 95 73.7335205078125 73.7335205078125 95 47.5 95 C 21.2664794921875 95 0 73.7335205078125 0 47.5 C 0 21.2664794921875 21.2664794921875 0 47.5 0 Z" stroke="none" fill="#899e78"/>
                      </g>
                    </g>
                  </g>
                </g>
              </g>
            </g>
          </g>
        </g>
      </g>
    </g>
    <g id="_7-Law" data-name="7-Law" transform="translate(1191 2249)">
      <path id="Trazado_1174828" data-name="Trazado 1174828" d="M43,55l1,3-1,1H17l-1-1,1-3H43Z" fill="#e9edf5"/>
      <path id="Trazado_1174829" data-name="Trazado 1174829" d="M40,55H20c3.5-3.5,3-6,3-6H37S36.5,51.5,40,55Z" fill="#bec3d2"/>
      <circle id="Elipse_14613" data-name="Elipse 14613" cx="2" cy="2" r="2" transform="translate(28 41)" fill="#bec3d2"/>
      <path id="Trazado_1174830" data-name="Trazado 1174830" d="M59,37v8a4,4,0,0,1-4,4H5a4,4,0,0,1-4-4V37ZM32,43a2,2,0,1,0-2,2,2,2,0,0,0,2-2Z" fill="#e9edf5"/>
      <path id="Trazado_1174831" data-name="Trazado 1174831" d="M59,7V37H1V7A4,4,0,0,1,5,3H55A4,4,0,0,1,59,7Z" fill="#65b1fc"/>
      <path id="Trazado_1174832" data-name="Trazado 1174832" d="M18.039,3H5A4,4,0,0,0,1,7V18.686A31.1,31.1,0,0,1,18.039,3Z" fill="#87c7ff"/>
      <path id="Trazado_1174833" data-name="Trazado 1174833" d="M2.092,37A37.508,37.508,0,0,1,30.911,3H18.039A31.1,31.1,0,0,0,1,18.686V37Z" fill="#a3d4ff"/>
      <path id="Trazado_1174834" data-name="Trazado 1174834" d="M43,17a.979.979,0,0,1,1,1,4,4,0,1,1-8,0,.979.979,0,0,1,1-1Z" fill="#ffc247"/>
      <path id="Trazado_1174835" data-name="Trazado 1174835" d="M23,17a.979.979,0,0,1,1,1,4,4,0,0,1-8,0,.979.979,0,0,1,1-1Z" fill="#ffc247"/>
      <path id="Trazado_1174836" data-name="Trazado 1174836" d="M24,29.5c0-1.5.62-3.5,2-3.5h8c1.38,0,2,2.62,2,4,0,1-.62,1-2,1H26c-1.38,0-2,0-2-1Z" fill="#a65d4e"/>
      <path id="Trazado_1174837" data-name="Trazado 1174837" d="M31.21,11,32,26H28l.79-15Z" fill="#b46e5a"/>
      <path id="Trazado_1174838" data-name="Trazado 1174838" d="M31,7l.21,4H28.79L29,7h2Z" fill="#b46e5a"/>
      <circle id="Elipse_14614" data-name="Elipse 14614" cx="3" cy="3" r="3" transform="translate(27 1)" fill="#a65d4e"/>
      <path id="Trazado_1174839" data-name="Trazado 1174839" d="M19,17H17a.979.979,0,0,0-1,1,3.984,3.984,0,0,0,6.662,2.966A3.986,3.986,0,0,1,19,17Z" fill="#f5d882"/>
      <path id="Trazado_1174840" data-name="Trazado 1174840" d="M39,17H37a.979.979,0,0,0-1,1,3.984,3.984,0,0,0,6.662,2.966A3.986,3.986,0,0,1,39,17Z" fill="#f5d882"/>
      <path id="Trazado_1174841" data-name="Trazado 1174841" d="M24.025,29c-.014.17-.025.339-.025.5V30c0,1,.62,1,2,1h8c1.38,0,2,0,2-1a6.764,6.764,0,0,0-.085-1Z" fill="#915041"/>
      <g id="Grupo_1222381" data-name="Grupo 1222381">
        <path id="Trazado_1174842" data-name="Trazado 1174842" d="M55,2H33.444a3.965,3.965,0,0,0-6.888,0H5A5.006,5.006,0,0,0,0,7V45a5.006,5.006,0,0,0,5,5H21.948a8.437,8.437,0,0,1-2.37,4H17a1,1,0,0,0-.949.684l-1,3a1,1,0,0,0,.242,1.023l1,1A1,1,0,0,0,17,60H43a1,1,0,0,0,.707-.293l1-1a1,1,0,0,0,.242-1.023l-1-3A1,1,0,0,0,43,54H40.422a8.478,8.478,0,0,1-2.373-4H55a5.006,5.006,0,0,0,5-5V7A5.006,5.006,0,0,0,55,2ZM30.051,8l.1,2h-.312l.1-2Zm.9,17h-1.9l.684-13h.524ZM34,30H26c-.348,0-.761,0-1-.027V29.5c0-1.238.5-2.5,1-2.5h8c.311,0,.992,1.434,1,2.973C34.76,30,34.348,30,34,30ZM30,2a2,2,0,1,1-2,2A2,2,0,0,1,30,2ZM5,4H26a3.989,3.989,0,0,0,1.976,3.431L27.841,10H20a.992.992,0,0,0-.932.664c0,.007-.014.012-.017.02L17.279,16H17a1.959,1.959,0,0,0-2,2,5,5,0,1,0,10,0,1.959,1.959,0,0,0-2-2h-.279l-1.333-4h6.348l-.685,13H26c-1.97,0-3,2.264-3,4.5V30H22a1,1,0,0,0,0,2H38a1,1,0,0,0,0-2H37c0-1.631-.733-5-3-5H32.949l-.685-13h6.348l-1.333,4H37a1.959,1.959,0,0,0-2,2,5,5,0,1,0,10,0,1.959,1.959,0,0,0-2-2h-.279l-1.772-5.316c0-.008-.013-.013-.017-.02A.992.992,0,0,0,40,10H32.159l-.135-2.569A3.989,3.989,0,0,0,34,4H55a3,3,0,0,1,3,3V36H2V7A3,3,0,0,1,5,4ZM23,17.945A.259.259,0,0,1,23,18a3,3,0,0,1-6,0ZM19.387,16,20,14.162,20.613,16ZM43,17.945A.259.259,0,0,1,43,18a3,3,0,1,1-6,0ZM39.387,16,40,14.162,40.613,16Zm3.469,41.73-.27.27H17.414l-.27-.27L17.721,56H42.279ZM37.813,54H22.187a8.652,8.652,0,0,0,1.8-4H36.018A8.652,8.652,0,0,0,37.813,54ZM55,48H5a3,3,0,0,1-3-3V38H58v7a3,3,0,0,1-3,3Z" fill="#26121e"/>
        <path id="Trazado_1174843" data-name="Trazado 1174843" d="M30,40a3,3,0,1,0,3,3A3,3,0,0,0,30,40Zm0,4a1,1,0,1,1,1-1A1,1,0,0,1,30,44Z" fill="#26121e"/>
        <path id="Trazado_1174844" data-name="Trazado 1174844" d="M42,33h6a1,1,0,0,0,0-2H42a1,1,0,0,0,0,2Z" fill="#26121e"/>
        <path id="Trazado_1174845" data-name="Trazado 1174845" d="M42,29H54a1,1,0,0,0,0-2H42a1,1,0,0,0,0,2Z" fill="#26121e"/>
        <path id="Trazado_1174846" data-name="Trazado 1174846" d="M48,25h6a1,1,0,0,0,0-2H48a1,1,0,0,0,0,2Z" fill="#26121e"/>
        <path id="Trazado_1174847" data-name="Trazado 1174847" d="M51,21h3a1,1,0,0,0,0-2H51a1,1,0,0,0,0,2Z" fill="#26121e"/>
        <path id="Trazado_1174848" data-name="Trazado 1174848" d="M18,31H12a1,1,0,0,0,0,2h6a1,1,0,0,0,0-2Z" fill="#26121e"/>
        <path id="Trazado_1174849" data-name="Trazado 1174849" d="M6,29H18a1,1,0,0,0,0-2H6a1,1,0,0,0,0,2Z" fill="#26121e"/>
        <path id="Trazado_1174850" data-name="Trazado 1174850" d="M6,25h6a1,1,0,0,0,0-2H6a1,1,0,0,0,0,2Z" fill="#26121e"/>
        <path id="Trazado_1174851" data-name="Trazado 1174851" d="M6,21H9a1,1,0,0,0,0-2H6a1,1,0,0,0,0,2Z" fill="#26121e"/>
        <path id="Trazado_1174852" data-name="Trazado 1174852" d="M6,33H8a1,1,0,0,0,0-2H6a1,1,0,0,0,0,2Z" fill="#26121e"/>
        <path id="Trazado_1174853" data-name="Trazado 1174853" d="M54,31H52a1,1,0,0,0,0,2h2a1,1,0,0,0,0-2Z" fill="#26121e"/>
      </g>
    </g>
  </g>
</svg>
