<svg xmlns="http://www.w3.org/2000/svg" xmlns:xlink="http://www.w3.org/1999/xlink" width="113" height="113" viewBox="0 0 113 113">
  <defs>
    <filter id="Trazado_982547" x="0" y="0" width="113" height="113" filterUnits="userSpaceOnUse">
      <feOffset dy="3" input="SourceAlpha"/>
      <feGaussianBlur stdDeviation="3" result="blur"/>
      <feFlood flood-opacity="0.161"/>
      <feComposite operator="in" in2="blur"/>
      <feComposite in="SourceGraphic"/>
    </filter>
    <clipPath id="clip-path">
      <path id="path9420" d="M0-682.665H62.968V-619.7H0Z" transform="translate(0 682.665)"/>
    </clipPath>
  </defs>
  <g id="Grupo_1222307" data-name="Grupo 1222307" transform="translate(-796 -3233.131)">
    <g id="Grupo_1208010" data-name="Grupo 1208010" transform="translate(0 1986.241)">
      <g id="Grupo_1202142" data-name="Grupo 1202142" transform="translate(805 1252.89)">
        <g id="Grupo_1201923" data-name="Grupo 1201923" transform="translate(0 0)">
          <g id="Grupo_1176928" data-name="Grupo 1176928" transform="translate(0 0)">
            <g id="Grupo_1172322" data-name="Grupo 1172322">
              <g id="Grupo_1164700" data-name="Grupo 1164700">
                <g id="Grupo_1160931" data-name="Grupo 1160931">
                  <g id="Grupo_1160749" data-name="Grupo 1160749">
                    <g id="Grupo_1158891" data-name="Grupo 1158891">
                      <g id="Grupo_1157406" data-name="Grupo 1157406">
                        <g id="Grupo_1155793" data-name="Grupo 1155793">
                          <g id="Grupo_1154704" data-name="Grupo 1154704">
                            <g id="Grupo_1150790" data-name="Grupo 1150790">
                              <g id="Grupo_1154214" data-name="Grupo 1154214" transform="translate(0)">
                                <g id="Grupo_1152583" data-name="Grupo 1152583">
                                  <g id="Grupo_1146973" data-name="Grupo 1146973">
                                    <g id="Grupo_1146954" data-name="Grupo 1146954">
                                      <g transform="matrix(1, 0, 0, 1, -9, -6)" filter="url(#Trazado_982547)">
                                        <g id="Trazado_982547-2" data-name="Trazado 982547" transform="translate(9 6)" fill="#f2f4f0">
                                          <path d="M 47.50000762939453 93.49986267089844 C 41.28937911987305 93.49986267089844 35.26534271240234 92.28383636474609 29.59519386291504 89.88558197021484 C 24.11772727966309 87.56880950927734 19.19814109802246 84.25183868408203 14.97310066223145 80.02679443359375 C 10.74804782867432 75.8017578125 7.431074142456055 70.88218688964844 5.114300727844238 65.40471649169922 C 2.716034412384033 59.73458480834961 1.500007629394531 53.71054458618164 1.500007629394531 47.49993133544922 C 1.500007629394531 41.2893180847168 2.716034412384033 35.26527786254883 5.114300727844238 29.59514427185059 C 7.431074142456055 24.11767768859863 10.74804782867432 19.19810485839844 14.97310066223145 14.97306442260742 C 19.19814109802246 10.74802494049072 24.11772727966309 7.431051254272461 29.59519386291504 5.114277839660645 C 35.26534271240234 2.71602463722229 41.28937911987305 1.499997973442078 47.50000762939453 1.499997973442078 C 53.71063613891602 1.499997973442078 59.73467254638672 2.71602463722229 65.40482330322266 5.114277839660645 C 70.88228607177734 7.431051254272461 75.80187225341797 10.74802494049072 80.02691650390625 14.97306442260742 C 84.25196838378906 19.19810485839844 87.56893920898438 24.11767768859863 89.88571166992188 29.59514427185059 C 92.28398132324219 35.26527786254883 93.50000762939453 41.2893180847168 93.50000762939453 47.49993133544922 C 93.50000762939453 53.71054458618164 92.28398132324219 59.73458480834961 89.88571166992188 65.40471649169922 C 87.56893920898438 70.88218688964844 84.25196838378906 75.8017578125 80.02691650390625 80.02679443359375 C 75.80187225341797 84.25183868408203 70.88228607177734 87.56880950927734 65.40482330322266 89.88558197021484 C 59.73467254638672 92.28383636474609 53.71063613891602 93.49986267089844 47.50000762939453 93.49986267089844 Z" stroke="none"/>
                                          <path d="M 47.50000762939453 2.999992370605469 C 41.4912223815918 2.999992370605469 35.66377639770508 4.1761474609375 30.17951202392578 6.495796203613281 C 24.88085174560547 8.736930847167969 20.12152862548828 11.94596099853516 16.03376007080078 16.03372955322266 C 11.94597625732422 20.12148284912109 8.736961364746094 24.88080596923828 6.495803833007812 30.17946624755859 C 4.176162719726562 35.66371536254883 3.000007629394531 41.49116134643555 3.000007629394531 47.49993133544922 C 3.000007629394531 53.50870132446289 4.176162719726562 59.33614730834961 6.495803833007812 64.82038879394531 C 8.736961364746094 70.11905670166016 11.94597625732422 74.87836456298828 16.03376007080078 78.96613311767578 C 20.12152862548828 83.05390167236328 24.88085174560547 86.26291656494141 30.17951202392578 88.50406646728516 C 35.66377639770508 90.82369995117188 41.4912223815918 91.99985504150391 47.50000762939453 91.99985504150391 C 53.50879287719727 91.99985504150391 59.33623886108398 90.82369995117188 64.82049560546875 88.50406646728516 C 70.11916351318359 86.26291656494141 74.87848663330078 83.05390167236328 78.96625518798828 78.96613311767578 C 83.05403900146484 74.87836456298828 86.26305389404297 70.11905670166016 88.50421142578125 64.82038879394531 C 90.8238525390625 59.33614730834961 92.00000762939453 53.50870132446289 92.00000762939453 47.49993133544922 C 92.00000762939453 41.49116134643555 90.8238525390625 35.66371536254883 88.50421142578125 30.17946624755859 C 86.26305389404297 24.88080596923828 83.05403900146484 20.12148284912109 78.96625518798828 16.03372955322266 C 74.87848663330078 11.94596099853516 70.11916351318359 8.736930847167969 64.82049560546875 6.495796203613281 C 59.33623886108398 4.1761474609375 53.50879287719727 2.999992370605469 47.50000762939453 2.999992370605469 M 47.50000762939453 -7.62939453125e-06 C 73.73352813720703 -7.62939453125e-06 95.00000762939453 21.26644134521484 95.00000762939453 47.49993133544922 C 95.00000762939453 73.73342132568359 73.73352813720703 94.99985504150391 47.50000762939453 94.99985504150391 C 21.26648712158203 94.99985504150391 7.62939453125e-06 73.73342132568359 7.62939453125e-06 47.49993133544922 C 7.62939453125e-06 21.26644134521484 21.26648712158203 -7.62939453125e-06 47.50000762939453 -7.62939453125e-06 Z" stroke="none" fill="#899e78"/>
                                        </g>
                                      </g>
                                    </g>
                                  </g>
                                </g>
                              </g>
                            </g>
                          </g>
                        </g>
                      </g>
                    </g>
                  </g>
                </g>
              </g>
            </g>
          </g>
        </g>
      </g>
    </g>
    <g id="g9414" transform="translate(821.516 3937.811)">
      <g id="g9416" transform="translate(0 -682.665)">
        <g id="g9418" clip-path="url(#clip-path)">
          <g id="g9424" transform="translate(6.262 2.768)">
            <path id="path9426" d="M-38.868-343.377l.178,22.542h15.6l-.073-17.076A17.259,17.259,0,0,0-20-348.044l-.22-21.27a2.868,2.868,0,0,0-2.721-2.89,2.824,2.824,0,0,0-2.927,2.822v-3.036a2.824,2.824,0,0,0-2.824-2.824,2.824,2.824,0,0,0-2.824,2.824v-1.448a2.868,2.868,0,0,0-2.721-2.89,2.824,2.824,0,0,0-2.927,2.822v-1.444a2.868,2.868,0,0,0-2.721-2.89,2.824,2.824,0,0,0-2.927,2.822v23.383Z" transform="translate(42.817 378.268)" fill="#ffb09e"/>
          </g>
          <g id="g9428" transform="translate(11.154 8.831)">
            <path id="path9430" d="M-176.384-239.569c0-.061,0-.122,0-.182l-.219-21.269a2.868,2.868,0,0,0-2.722-2.89,2.819,2.819,0,0,0-2.124.848,2.926,2.926,0,0,1,.828,2.042l.093,8.962a10.8,10.8,0,0,0-10.612,2.748,10.774,10.774,0,0,0-3.166,7.642,10.774,10.774,0,0,0,3.166,7.642l6.247,6.247a4.613,4.613,0,0,1,1.351,3.245l.056,11.992h4.017l-.073-17.075a17.26,17.26,0,0,0,3.159-9.952" transform="translate(194.306 263.912)" fill="#fba08d"/>
          </g>
          <g id="g9432" transform="translate(6.262 2.768)">
            <path id="path9434" d="M-194.139-565.226l-.073-17.076a17.259,17.259,0,0,0,3.159-10.133l-.22-21.27a2.868,2.868,0,0,0-2.721-2.89,2.824,2.824,0,0,0-2.927,2.822v-3.036a2.824,2.824,0,0,0-2.824-2.824h0a2.824,2.824,0,0,0-2.824,2.824v-1.448a2.868,2.868,0,0,0-2.721-2.89,2.824,2.824,0,0,0-2.927,2.822v-1.444a2.868,2.868,0,0,0-2.721-2.89,2.824,2.824,0,0,0-2.927,2.822v23.383l3.949,8.684.178,22.542" transform="translate(213.866 622.66)" fill="none" stroke="#000" stroke-linecap="round" stroke-linejoin="round" stroke-miterlimit="10" stroke-width="1"/>
          </g>
          <g id="g9436" transform="translate(0.933 13.546)">
            <path id="path9438" d="M-66.128-126.619l.006-9.5a3.363,3.363,0,0,0-3.866-3.329,3.414,3.414,0,0,0-2.859,3.4v14.132a12.013,12.013,0,0,0,12.013,12.013H-57.1v-4.729a12.437,12.437,0,0,0-8.335-11.741Z" transform="translate(72.848 139.485)" fill="#ffcebf"/>
          </g>
          <g id="g9440" transform="translate(11.154 28.303)">
            <path id="path9442" d="M-54.429-99.345v2.685l-2.365-2.365a10.775,10.775,0,0,1-3.166-7.642,10.8,10.8,0,0,1,.36-2.772,12.439,12.439,0,0,1,5.17,10.095" transform="translate(59.96 109.44)" fill="#ffb09e"/>
          </g>
          <g id="g9444" transform="translate(7.652 23.661)">
            <path id="path9446" d="M-79.336-97.6a12.435,12.435,0,0,0-7.364-6.922l-.7-.244,0-2.751" transform="translate(87.397 107.514)" fill="none" stroke="#000" stroke-linecap="round" stroke-linejoin="round" stroke-miterlimit="10" stroke-width="1"/>
          </g>
          <g id="g9448" transform="translate(0.933 13.546)">
            <path id="path9450" d="M-66.172-56.06v-2.329a3.363,3.363,0,0,0-3.866-3.329,3.414,3.414,0,0,0-2.859,3.4v14.131A12.013,12.013,0,0,0-60.883-32.176h3.739" transform="translate(72.896 61.756)" fill="none" stroke="#000" stroke-linecap="round" stroke-linejoin="round" stroke-miterlimit="10" stroke-width="1"/>
          </g>
          <g id="g9452" transform="translate(23.207 11.655)">
            <path id="path9454" d="M0,0V11.32" fill="none" stroke="#000" stroke-linecap="round" stroke-linejoin="round" stroke-miterlimit="10" stroke-width="1"/>
          </g>
          <g id="g9456" transform="translate(17.559 8.619)">
            <path id="path9458" d="M0,0V14.356" fill="none" stroke="#000" stroke-linecap="round" stroke-linejoin="round" stroke-miterlimit="10" stroke-width="1"/>
          </g>
          <g id="g9460" transform="translate(11.911 7.103)">
            <path id="path9462" d="M0,0V15.871" fill="none" stroke="#000" stroke-linecap="round" stroke-linejoin="round" stroke-miterlimit="10" stroke-width="1"/>
          </g>
          <g id="g9464" transform="translate(33.892 2.768)">
            <path id="path9466" d="M-185.654-343.377l-.178,22.542h-15.6l.073-17.076a17.259,17.259,0,0,1-3.159-10.133l.22-21.27a2.868,2.868,0,0,1,2.721-2.89,2.824,2.824,0,0,1,2.927,2.822v-3.036a2.824,2.824,0,0,1,2.824-2.824A2.824,2.824,0,0,1-193-372.417v-1.448a2.868,2.868,0,0,1,2.721-2.89,2.824,2.824,0,0,1,2.927,2.822v-1.444a2.868,2.868,0,0,1,2.721-2.89,2.824,2.824,0,0,1,2.927,2.822v23.383Z" transform="translate(204.519 378.268)" fill="#ffb09e"/>
          </g>
          <g id="g9468" transform="translate(33.892 20.267)">
            <path id="path9470" d="M-145.229-181.577l-11.622,11.622.025-7.213a17.26,17.26,0,0,1-3.16-9.952c0-.061,0-.122,0-.182l.1-10.145a10.808,10.808,0,0,1,14.651.586,10.808,10.808,0,0,1,0,15.285" transform="translate(159.986 200.027)" fill="#fba08d"/>
          </g>
          <g id="g9472" transform="translate(48.781 2.767)">
            <path id="path9474" d="M-78-27.8V-4.412l-3.949,8.683-.179,22.543h-3.8l.177-22.543,3.95-8.683V-27.8a2.813,2.813,0,0,0-.914-2.079,2.758,2.758,0,0,1,1.786-.743A2.825,2.825,0,0,1-78-27.8" transform="translate(85.922 30.62)" fill="#fba08d"/>
          </g>
          <g id="g9476" transform="translate(52.579 11.056)">
            <path id="path9478" d="M0-483.657.178-506.2l3.949-8.684V-532.8" transform="translate(0 532.803)" fill="none" stroke="#000" stroke-linecap="round" stroke-linejoin="round" stroke-miterlimit="10" stroke-width="1"/>
          </g>
          <g id="g9480" transform="translate(33.892 2.768)">
            <path id="path9482" d="M-224.521-38.086v-1.046a2.824,2.824,0,0,0-2.927-2.822,2.868,2.868,0,0,0-2.721,2.89v1.444a2.824,2.824,0,0,0-2.927-2.822,2.868,2.868,0,0,0-2.721,2.89V-36.1a2.824,2.824,0,0,0-2.824-2.824,2.824,2.824,0,0,0-2.824,2.824v3.036a2.824,2.824,0,0,0-2.927-2.822A2.868,2.868,0,0,0-247.114-33l-.22,21.27A17.258,17.258,0,0,0-244.175-1.6l-.073,17.076" transform="translate(247.335 41.956)" fill="none" stroke="#000" stroke-linecap="round" stroke-linejoin="round" stroke-miterlimit="10" stroke-width="1"/>
          </g>
          <g id="g9484" transform="translate(46.284 13.546)">
            <path id="path9486" d="M-88.891-126.619l-.006-9.5a3.363,3.363,0,0,1,3.866-3.329,3.414,3.414,0,0,1,2.859,3.4v14.132a12.013,12.013,0,0,1-12.013,12.013h-3.739v-4.729a12.437,12.437,0,0,1,8.335-11.741Z" transform="translate(97.924 139.485)" fill="#ffcebf"/>
          </g>
          <g id="g9488" transform="translate(46.284 28.303)">
            <path id="path9490" d="M-23.275-102.493l-2.365,2.365v-2.685a12.439,12.439,0,0,1,5.17-10.095,10.8,10.8,0,0,1-2.805,10.415" transform="translate(25.64 112.908)" fill="#ffb09e"/>
          </g>
          <g id="g9492" transform="translate(46.284 13.546)">
            <path id="path9494" d="M-155.017-33.807v14.131A12.013,12.013,0,0,1-167.031-7.663h-3.738v-.008a12.011,12.011,0,0,0,11.618-12V-33.807a3.481,3.481,0,0,0-1.3-2.718,3.34,3.34,0,0,1,2.577-.678,3.413,3.413,0,0,1,2.86,3.4" transform="translate(170.769 37.242)" fill="#ffb09e"/>
          </g>
          <g id="g9496" transform="translate(46.284 13.546)">
            <path id="path9498" d="M-9.557-197.14a12.435,12.435,0,0,1,7.364-6.922l.7-.244-.006-9.5a3.363,3.363,0,0,1,3.866-3.329,3.414,3.414,0,0,1,2.859,3.4v14.131A12.013,12.013,0,0,1-6.789-187.592h-3.739" transform="translate(10.528 217.172)" fill="none" stroke="#000" stroke-linecap="round" stroke-linejoin="round" stroke-miterlimit="10" stroke-width="1"/>
          </g>
          <g id="g9500" transform="translate(39.761 11.655)">
            <path id="path9502" d="M0,0V11.32" fill="none" stroke="#000" stroke-linecap="round" stroke-linejoin="round" stroke-miterlimit="10" stroke-width="1"/>
          </g>
          <g id="g9504" transform="translate(45.41 8.619)">
            <path id="path9506" d="M0,0V14.356" fill="none" stroke="#000" stroke-linecap="round" stroke-linejoin="round" stroke-miterlimit="10" stroke-width="1"/>
          </g>
          <g id="g9508" transform="translate(51.058 7.103)">
            <path id="path9510" d="M0,0V15.871" fill="none" stroke="#000" stroke-linecap="round" stroke-linejoin="round" stroke-miterlimit="10" stroke-width="1"/>
          </g>
          <g id="g9512" transform="translate(11.153 16.016)">
            <path id="path9514" d="M-369.017-31.152h0a10.808,10.808,0,0,0-15.284,0l-1.881,1.881-1.881-1.881a10.808,10.808,0,0,0-15.284,0h0a10.808,10.808,0,0,0,0,15.284L-387.872-.391a2.388,2.388,0,0,0,3.377,0l15.477-15.477a10.808,10.808,0,0,0,0-15.284" transform="translate(406.514 34.318)" fill="#fd636f"/>
          </g>
          <g id="g9516" transform="translate(28.189 16.016)">
            <path id="path9518" d="M-201.358-181.575-216.834-166.1a2.389,2.389,0,0,1-3.378,0l-1.606-1.606,14.913-14.914a10.808,10.808,0,0,0,0-15.284,10.8,10.8,0,0,0-2.936-2.089,10.781,10.781,0,0,1,8.483,3.133,10.808,10.808,0,0,1,0,15.284" transform="translate(221.818 200.025)" fill="#fe4855"/>
          </g>
          <g id="g9520" transform="translate(11.153 16.016)">
            <path id="path9522" d="M-113.974-264.392l7.061,7.061a2.388,2.388,0,0,0,3.377,0l15.477-15.477a10.808,10.808,0,0,0,0-15.284,10.808,10.808,0,0,0-15.284,0l-1.881,1.881-1.881-1.881a10.808,10.808,0,0,0-15.284,0h0a10.808,10.808,0,0,0,0,15.284l5.291,5.291" transform="translate(125.555 291.257)" fill="none" stroke="#000" stroke-linecap="round" stroke-linejoin="round" stroke-miterlimit="10" stroke-width="1"/>
          </g>
        </g>
      </g>
    </g>
  </g>
</svg>
