<svg xmlns="http://www.w3.org/2000/svg" xmlns:xlink="http://www.w3.org/1999/xlink" width="113" height="113" viewBox="0 0 113 113">
  <defs>
    <filter id="Trazado_982547" x="0" y="0" width="113" height="113" filterUnits="userSpaceOnUse">
      <feOffset dy="3" input="SourceAlpha"/>
      <feGaussianBlur stdDeviation="3" result="blur"/>
      <feFlood flood-opacity="0.161"/>
      <feComposite operator="in" in2="blur"/>
      <feComposite in="SourceGraphic"/>
    </filter>
  </defs>
  <g id="Grupo_1222309" data-name="Grupo 1222309" transform="translate(-2818.5 -3233.131)">
    <g id="Grupo_1222266" data-name="Grupo 1222266" transform="translate(2022.5 1986.241)">
      <g id="Grupo_1202142" data-name="Grupo 1202142" transform="translate(805 1252.89)">
        <g id="Grupo_1201923" data-name="Grupo 1201923" transform="translate(0 0)">
          <g id="Grupo_1176928" data-name="Grupo 1176928" transform="translate(0 0)">
            <g id="Grupo_1172322" data-name="Grupo 1172322">
              <g id="Grupo_1164700" data-name="Grupo 1164700">
                <g id="Grupo_1160931" data-name="Grupo 1160931">
                  <g id="Grupo_1160749" data-name="Grupo 1160749">
                    <g id="Grupo_1158891" data-name="Grupo 1158891">
                      <g id="Grupo_1157406" data-name="Grupo 1157406">
                        <g id="Grupo_1155793" data-name="Grupo 1155793">
                          <g id="Grupo_1154704" data-name="Grupo 1154704">
                            <g id="Grupo_1150790" data-name="Grupo 1150790">
                              <g id="Grupo_1154214" data-name="Grupo 1154214" transform="translate(0)">
                                <g id="Grupo_1152583" data-name="Grupo 1152583">
                                  <g id="Grupo_1146973" data-name="Grupo 1146973">
                                    <g id="Grupo_1146954" data-name="Grupo 1146954">
                                      <g transform="matrix(1, 0, 0, 1, -9, -6)" filter="url(#Trazado_982547)">
                                        <g id="Trazado_982547-2" data-name="Trazado 982547" transform="translate(9 6)" fill="#f2f4f0">
                                          <path d="M 47.50000762939453 93.49986267089844 C 41.28937911987305 93.49986267089844 35.26534271240234 92.28383636474609 29.59519386291504 89.88558197021484 C 24.11772727966309 87.56880950927734 19.19814109802246 84.25183868408203 14.97310066223145 80.02679443359375 C 10.74804782867432 75.8017578125 7.431074142456055 70.88218688964844 5.114300727844238 65.40471649169922 C 2.716034412384033 59.73458480834961 1.500007629394531 53.71054458618164 1.500007629394531 47.49993133544922 C 1.500007629394531 41.2893180847168 2.716034412384033 35.26527786254883 5.114300727844238 29.59514427185059 C 7.431074142456055 24.11767768859863 10.74804782867432 19.19810485839844 14.97310066223145 14.97306442260742 C 19.19814109802246 10.74802494049072 24.11772727966309 7.431051254272461 29.59519386291504 5.114277839660645 C 35.26534271240234 2.71602463722229 41.28937911987305 1.499997973442078 47.50000762939453 1.499997973442078 C 53.71063613891602 1.499997973442078 59.73467254638672 2.71602463722229 65.40482330322266 5.114277839660645 C 70.88228607177734 7.431051254272461 75.80187225341797 10.74802494049072 80.02691650390625 14.97306442260742 C 84.25196838378906 19.19810485839844 87.56893920898438 24.11767768859863 89.88571166992188 29.59514427185059 C 92.28398132324219 35.26527786254883 93.50000762939453 41.2893180847168 93.50000762939453 47.49993133544922 C 93.50000762939453 53.71054458618164 92.28398132324219 59.73458480834961 89.88571166992188 65.40471649169922 C 87.56893920898438 70.88218688964844 84.25196838378906 75.8017578125 80.02691650390625 80.02679443359375 C 75.80187225341797 84.25183868408203 70.88228607177734 87.56880950927734 65.40482330322266 89.88558197021484 C 59.73467254638672 92.28383636474609 53.71063613891602 93.49986267089844 47.50000762939453 93.49986267089844 Z" stroke="none"/>
                                          <path d="M 47.50000762939453 2.999992370605469 C 41.4912223815918 2.999992370605469 35.66377639770508 4.1761474609375 30.17951202392578 6.495796203613281 C 24.88085174560547 8.736930847167969 20.12152862548828 11.94596099853516 16.03376007080078 16.03372955322266 C 11.94597625732422 20.12148284912109 8.736961364746094 24.88080596923828 6.495803833007812 30.17946624755859 C 4.176162719726562 35.66371536254883 3.000007629394531 41.49116134643555 3.000007629394531 47.49993133544922 C 3.000007629394531 53.50870132446289 4.176162719726562 59.33614730834961 6.495803833007812 64.82038879394531 C 8.736961364746094 70.11905670166016 11.94597625732422 74.87836456298828 16.03376007080078 78.96613311767578 C 20.12152862548828 83.05390167236328 24.88085174560547 86.26291656494141 30.17951202392578 88.50406646728516 C 35.66377639770508 90.82369995117188 41.4912223815918 91.99985504150391 47.50000762939453 91.99985504150391 C 53.50879287719727 91.99985504150391 59.33623886108398 90.82369995117188 64.82049560546875 88.50406646728516 C 70.11916351318359 86.26291656494141 74.87848663330078 83.05390167236328 78.96625518798828 78.96613311767578 C 83.05403900146484 74.87836456298828 86.26305389404297 70.11905670166016 88.50421142578125 64.82038879394531 C 90.8238525390625 59.33614730834961 92.00000762939453 53.50870132446289 92.00000762939453 47.49993133544922 C 92.00000762939453 41.49116134643555 90.8238525390625 35.66371536254883 88.50421142578125 30.17946624755859 C 86.26305389404297 24.88080596923828 83.05403900146484 20.12148284912109 78.96625518798828 16.03372955322266 C 74.87848663330078 11.94596099853516 70.11916351318359 8.736930847167969 64.82049560546875 6.495796203613281 C 59.33623886108398 4.1761474609375 53.50879287719727 2.999992370605469 47.50000762939453 2.999992370605469 M 47.50000762939453 -7.62939453125e-06 C 73.73352813720703 -7.62939453125e-06 95.00000762939453 21.26644134521484 95.00000762939453 47.49993133544922 C 95.00000762939453 73.73342132568359 73.73352813720703 94.99985504150391 47.50000762939453 94.99985504150391 C 21.26648712158203 94.99985504150391 7.62939453125e-06 73.73342132568359 7.62939453125e-06 47.49993133544922 C 7.62939453125e-06 21.26644134521484 21.26648712158203 -7.62939453125e-06 47.50000762939453 -7.62939453125e-06 Z" stroke="none" fill="#899e78"/>
                                        </g>
                                      </g>
                                    </g>
                                  </g>
                                </g>
                              </g>
                            </g>
                          </g>
                        </g>
                      </g>
                    </g>
                  </g>
                </g>
              </g>
            </g>
          </g>
        </g>
      </g>
    </g>
    <g id="Skills-Clipboard-Recruitment-List-Selection" transform="translate(2842.761 3254.403)">
      <path id="Trazado_1174559" data-name="Trazado 1174559" d="M61.335,13.032V57.383A4.032,4.032,0,0,1,57.3,61.414H23.032a3.671,3.671,0,0,1-.575-.04,3.959,3.959,0,0,1-1.482-.534,4,4,0,0,1-1.935-2.883,3.671,3.671,0,0,1-.04-.575V13.032A4.032,4.032,0,0,1,23.032,9H57.3A4.032,4.032,0,0,1,61.335,13.032Z" transform="translate(0.135 0.056)" fill="#c49a6c"/>
      <rect id="Rectángulo_421229" data-name="Rectángulo 421229" width="34.271" height="44.351" rx="2" transform="translate(23.167 13.088)" fill="#e6e7e8"/>
      <path id="Trazado_1174560" data-name="Trazado 1174560" d="M19.907,23.064A4.916,4.916,0,0,1,19,25.07V15a4.98,4.98,0,0,1,1.008,3.024v1.008h1.008a2.016,2.016,0,0,1,0,4.032Z" transform="translate(0.135 0.104)" fill="#a97c50"/>
      <path id="Trazado_1174561" data-name="Trazado 1174561" d="M22.115,30.259l-.192-.111a6.289,6.289,0,0,0-.907-.444,4.325,4.325,0,0,0-.595-.242A8.615,8.615,0,0,0,19,29.11V57.222a3.671,3.671,0,0,0,.04.575,4,4,0,0,0,1.935,2.883,3.959,3.959,0,0,0,1.482.534,3.691,3.691,0,0,0-1.4-1.4.054.054,0,0,0-.04-.03V46.135h2.016v-15.2A5.846,5.846,0,0,0,22.115,30.259Z" transform="translate(0.135 0.216)" fill="#a97c50"/>
      <path id="Trazado_1174562" data-name="Trazado 1174562" d="M23,30.917v15.2A2.022,2.022,0,0,0,25.016,44.1V35.335A5.879,5.879,0,0,0,23,30.917Z" transform="translate(0.167 0.231)" fill="#d8d7da"/>
      <path id="Trazado_1174563" data-name="Trazado 1174563" d="M7,44V61.135h6.048V44Z" transform="translate(0.04 0.335)" fill="#57565c"/>
      <path id="Trazado_1174564" data-name="Trazado 1174564" d="M13,44V61.135h6.048V44Z" transform="translate(0.088 0.335)" fill="#57565c"/>
      <path id="Trazado_1174565" data-name="Trazado 1174565" d="M40.1,7H28v6.048a2.022,2.022,0,0,0,2.016,2.016H50.175a2.022,2.022,0,0,0,2.016-2.016V7Z" transform="translate(0.207 0.04)" fill="#ff9811"/>
      <circle id="Elipse_14605" data-name="Elipse 14605" cx="2.016" cy="2.016" r="2.016" transform="translate(38.287 3.008)" fill="#ff9811"/>
      <path id="Trazado_1174566" data-name="Trazado 1174566" d="M40.072,25.016A4.98,4.98,0,0,1,41.08,28.04a5.04,5.04,0,1,1-1.008-3.024Z" transform="translate(0.231 0.168)" fill="#d8d7da"/>
      <path id="Trazado_1174567" data-name="Trazado 1174567" d="M40.072,41.016A4.98,4.98,0,0,1,41.08,44.04a5.04,5.04,0,1,1-1.008-3.024Z" transform="translate(0.231 0.295)" fill="#d8d7da"/>
      <path id="Trazado_1174568" data-name="Trazado 1174568" d="M38.072,23.016A4.98,4.98,0,0,1,39.08,26.04a5.04,5.04,0,1,1-1.008-3.024Z" transform="translate(0.215 0.152)" fill="#ffd422"/>
      <path id="Trazado_1174569" data-name="Trazado 1174569" d="M38.072,39.016A4.98,4.98,0,0,1,39.08,42.04a5.04,5.04,0,1,1-1.008-3.024Z" transform="translate(0.215 0.279)" fill="#ffd422"/>
      <path id="Trazado_1174570" data-name="Trazado 1174570" d="M23.032,40v2.016a2.022,2.022,0,0,1-2.016,2.016H19V40Z" transform="translate(0.135 0.303)" fill="#ffc477"/>
      <path id="Trazado_1174571" data-name="Trazado 1174571" d="M21.023,60.457a4.133,4.133,0,0,0-1.139-2.278,3.861,3.861,0,0,0-.8-.6.054.054,0,0,0-.04-.03A4.026,4.026,0,0,0,13,61.032h8.064a3.671,3.671,0,0,0-.04-.575Z" transform="translate(0.088 0.438)" fill="#3e3d42"/>
      <path id="Trazado_1174572" data-name="Trazado 1174572" d="M20.147,28.256l-.192-.111a6.289,6.289,0,0,0-.907-.444,4.325,4.325,0,0,0-.595-.242l-1.421,3.568-2.147-1.613-.877,2.621L15.016,40.1,13,43.124v1.008h6.048V40.1H23.08V33.347a5.883,5.883,0,0,0-2.933-5.09Z" transform="translate(0.088 0.203)" fill="#e6e7e8"/>
      <path id="Trazado_1174573" data-name="Trazado 1174573" d="M18.453,27.464l-1.421,3.568-2.147-1.613L13,28.008,15.016,27h.665a8.6,8.6,0,0,1,2.772.464Z" transform="translate(0.088 0.199)" fill="#d1d3d4"/>
      <path id="Trazado_1174574" data-name="Trazado 1174574" d="M14.024,32l1.008,8.064-2.016,3.024L11,40.064,12.008,32Z" transform="translate(0.072 0.239)" fill="#787680"/>
      <path id="Trazado_1174575" data-name="Trazado 1174575" d="M14.9,29.411l-.877,2.621H12.007l-.877-2.621L13.015,28Z" transform="translate(0.073 0.207)" fill="#787680"/>
      <path id="Trazado_1174576" data-name="Trazado 1174576" d="M7.032,40.1H3V33.447a6.048,6.048,0,0,1,3.024-5.241l.212-.121a7.408,7.408,0,0,1,1.381-.635l1.431,3.578,2.147-1.613.877,2.621L11.064,40.1l2.016,3.024v1.008H7.032Z" transform="translate(0.008 0.203)" fill="#e6e7e8"/>
      <path id="Trazado_1174577" data-name="Trazado 1174577" d="M13.043,28.008l-1.885,1.411L9.011,31.032,7.58,27.454A7.981,7.981,0,0,1,10.241,27h.786Z" transform="translate(0.044 0.199)" fill="#d1d3d4"/>
      <path id="Trazado_1174578" data-name="Trazado 1174578" d="M11.884,58.179A4.036,4.036,0,0,0,5,61.032h8.064a4.057,4.057,0,0,0-1.179-2.853Z" transform="translate(0.024 0.439)" fill="#3e3d42"/>
      <path id="Trazado_1174579" data-name="Trazado 1174579" d="M7.032,40v4.032H5.016A2.022,2.022,0,0,1,3,42.016V40Z" transform="translate(0.008 0.303)" fill="#ffc477"/>
      <path id="Trazado_1174580" data-name="Trazado 1174580" d="M15.032,23.59v3.437l-2.016,1.008L11,27.027V23.59a5.124,5.124,0,0,0,4.032,0Z" transform="translate(0.072 0.172)" fill="#ffc477"/>
      <path id="Trazado_1174581" data-name="Trazado 1174581" d="M19.009,17a2.016,2.016,0,0,1,0,4.032H17.9a4.75,4.75,0,0,0,.1-1.008V17Z" transform="translate(0.127 0.12)" fill="#ffb655"/>
      <path id="Trazado_1174582" data-name="Trazado 1174582" d="M18.08,16.04v1.008H17.072a3.024,3.024,0,0,1-3.024-3.024,3.024,3.024,0,0,1-3.024,3.024H8V16.04a5.04,5.04,0,1,1,10.08,0Z" transform="translate(0.048 0.072)" fill="#57565c"/>
      <path id="Trazado_1174583" data-name="Trazado 1174583" d="M8.125,21.032H7.016a2.016,2.016,0,0,1,0-4.032H8.024v3.024A4.75,4.75,0,0,0,8.125,21.032Z" transform="translate(0.024 0.12)" fill="#ffb655"/>
      <path id="Trazado_1174584" data-name="Trazado 1174584" d="M15.032,23v2.611a5.124,5.124,0,0,1-4.032,0V23Z" transform="translate(0.072 0.168)" fill="#ffb655"/>
      <path id="Trazado_1174585" data-name="Trazado 1174585" d="M18.08,17.024v3.024a4.75,4.75,0,0,1-.1,1.008,5.039,5.039,0,0,1-9.878,0A4.75,4.75,0,0,1,8,20.048V17.024h3.024A3.024,3.024,0,0,0,14.048,14a3.024,3.024,0,0,0,3.024,3.024Z" transform="translate(0.048 0.096)" fill="#ffc477"/>
      <path id="Trazado_1174586" data-name="Trazado 1174586" d="M57.438,8.048H53.406V7.04A1.008,1.008,0,0,0,52.4,6.032H43.145a3.024,3.024,0,1,0-5.685,0H28.207A1.008,1.008,0,0,0,27.2,7.04V8.048H23.167a5.024,5.024,0,0,0-5.01,4.768,6.048,6.048,0,0,0-11.118,3.3v.01a3.085,3.085,0,0,0-2.863,2.026A3.024,3.024,0,0,0,7.04,22.16h.353a6.092,6.092,0,0,0,2.671,3.215v.816a9.156,9.156,0,0,0-4.324,1.22l-.212.121A7.094,7.094,0,0,0,2,33.65v8.669a3.033,3.033,0,0,0,3.024,3.024H6.032V57.469a4.991,4.991,0,0,0-2.016,4,1.008,1.008,0,0,0,1.008,1.008H21.151a1.039,1.039,0,0,0,.595-.212,5.216,5.216,0,0,0,1.421.212H57.438a5.04,5.04,0,0,0,5.04-5.04V13.088a5.04,5.04,0,0,0-5.04-5.04Zm-50.4,12.1a1.036,1.036,0,0,1-.827-.423,1.02,1.02,0,0,1-.121-.937,1.063,1.063,0,0,1,.947-.645ZM40.3,4.016a1.008,1.008,0,1,1-1.008,1.008A1.008,1.008,0,0,1,40.3,4.016ZM29.215,8.048H51.39v5.04A1.008,1.008,0,0,1,50.383,14.1H30.223a1.008,1.008,0,0,1-1.008-1.008ZM27.381,14.1a3.034,3.034,0,0,0,2.842,2.016H50.383A3.034,3.034,0,0,0,53.225,14.1h2.2A1.008,1.008,0,0,1,56.43,15.1V55.423a1.008,1.008,0,0,1-1.008,1.008H25.183a1.008,1.008,0,0,1-1.008-1.008V15.1A1.008,1.008,0,0,1,25.183,14.1Zm-7.237-1.008a3.033,3.033,0,0,1,3.024-3.024H27.2V12.08H25.183A3.033,3.033,0,0,0,22.159,15.1V28.681a6.82,6.82,0,0,0-1.421-1.089l-.192-.121c-.131-.071-.272-.131-.4-.2v-5.3A3.068,3.068,0,0,0,21.595,20.9a2.992,2.992,0,0,0-1.451-4.586Zm-1.008,5.05a1.055,1.055,0,0,1,.947.655,1.008,1.008,0,0,1-.121.927,1.036,1.036,0,0,1-.827.423ZM19.1,29c.151.071.3.131.444.212l.192.121a4.872,4.872,0,0,1,2.429,4.213V39.3H20.143v-5.04H18.128v9.072H14.3l1.643-2.47a.945.945,0,0,0,.161-.675l-.978-7.842.363-1.079,1.028.776a1.037,1.037,0,0,0,.6.2.849.849,0,0,0,.272-.04,1.008,1.008,0,0,0,.665-.595Zm3.064,12.307v1.008a1.008,1.008,0,0,1-1.008,1.008H20.143V41.311ZM14.993,28.379l.353-.171h.423a7.373,7.373,0,0,1,1.411.151l-.5,1.28Zm3.135-4.9V26.5a9.022,9.022,0,0,0-2.016-.3v-.827a6.149,6.149,0,0,0,2.016-1.895Zm-5.04-11.4a4.032,4.032,0,0,1,4.032,4.032A2.022,2.022,0,0,1,15.1,14.1a1.008,1.008,0,0,0-2.016,0,2.022,2.022,0,0,1-2.016,2.016H9.056a4.032,4.032,0,0,1,4.032-4.032ZM9.056,20.144V18.128h2.016A4.032,4.032,0,0,0,14.1,16.757a4.032,4.032,0,0,0,3.024,1.371v2.016a4.032,4.032,0,0,1-8.064,0Zm1.23,8.064h.544l.353.171L9.5,29.639l-.514-1.3a7.11,7.11,0,0,1,1.3-.131ZM6.032,43.327H5.024a1.008,1.008,0,0,1-1.008-1.008V41.311H6.032Zm0-4.032H4.016V33.65a5.087,5.087,0,0,1,2.52-4.375l.212-.121c.1-.06.222-.1.333-.161L8.118,31.6a1.008,1.008,0,0,0,.665.595.849.849,0,0,0,.272.04,1.037,1.037,0,0,0,.6-.2l1.028-.776.363,1.079-.978,7.842a.945.945,0,0,0,.161.675l1.643,2.47H8.048V34.255H6.032ZM6.2,60.462a3.024,3.024,0,0,1,5.705,0Zm5.876-2.994a4.963,4.963,0,0,0-3.024-1.038,5.512,5.512,0,0,0-1.008.1V45.343H12.08Zm0-31.368a6.691,6.691,0,0,0,1.008.091A6.691,6.691,0,0,0,14.1,26.1v.474l-1.008.5-1.008-.5Zm1.7,3.891-.413,1.24h-.564l-.413-1.24.7-.524Zm-.7,11.521-.968-1.462.847-6.8h.242l.847,6.8Zm1.008,3.83h4.032V56.531a5.512,5.512,0,0,0-1.008-.1A4.963,4.963,0,0,0,14.1,57.469Zm.171,15.12a3.024,3.024,0,0,1,5.705,0Zm46.2-3.024a3.033,3.033,0,0,1-3.024,3.024H23.167a2.946,2.946,0,0,1-1.2-.282,4.979,4.979,0,0,0-1.824-2.711V45.343h1.008a3.024,3.024,0,0,0,1.008-.181V55.423a3.033,3.033,0,0,0,3.024,3.024H55.422a3.033,3.033,0,0,0,3.024-3.024V15.1a3.033,3.033,0,0,0-3.024-3.024H53.406V10.064h4.032a3.033,3.033,0,0,1,3.024,3.024Z"/>
      <path id="Trazado_1174587" data-name="Trazado 1174587" d="M34.048,32.1A6.054,6.054,0,0,0,40.1,26.048H38.08a4.032,4.032,0,1,1-4.032-4.032V20a6.048,6.048,0,1,0,0,12.1Z" transform="translate(0.207 0.144)"/>
      <path id="Trazado_1174588" data-name="Trazado 1174588" d="M32.718,24.317l-1.425,1.425,2.016,2.016a1.008,1.008,0,0,0,1.425,0l5.04-5.04-1.425-1.425L34.022,25.62Z" transform="translate(0.233 0.154)"/>
      <path id="Trazado_1174589" data-name="Trazado 1174589" d="M34.048,48.1A6.054,6.054,0,0,0,40.1,42.048H38.08a4.032,4.032,0,1,1-4.032-4.032V36a6.048,6.048,0,1,0,0,12.1Z" transform="translate(0.207 0.271)"/>
      <path id="Trazado_1174590" data-name="Trazado 1174590" d="M32.718,40.317l-1.425,1.425,2.016,2.016a1.008,1.008,0,0,0,1.425,0l5.04-5.04-1.425-1.425L34.022,41.62Z" transform="translate(0.233 0.281)"/>
      <path id="Trazado_1174591" data-name="Trazado 1174591" d="M44,28h8.064v2.016H44Z" transform="translate(0.335 0.207)"/>
      <path id="Trazado_1174592" data-name="Trazado 1174592" d="M44,24h8.064v2.016H44Z" transform="translate(0.335 0.176)"/>
      <path id="Trazado_1174593" data-name="Trazado 1174593" d="M44,44h8.064v2.016H44Z" transform="translate(0.335 0.335)"/>
      <path id="Trazado_1174594" data-name="Trazado 1174594" d="M44,40h8.064v2.016H44Z" transform="translate(0.335 0.303)"/>
    </g>
  </g>
</svg>
